<mxfile host="65bd71144e" scale="4" border="0">
    <diagram id="l1c7Nxvu9nQXHTme1ghr" name="Page-1">
        <mxGraphModel dx="491" dy="1733" grid="1" gridSize="10" guides="1" tooltips="1" connect="1" arrows="1" fold="1" page="1" pageScale="1" pageWidth="850" pageHeight="1100" math="0" shadow="0">
            <root>
                <mxCell id="0"/>
                <mxCell id="1" parent="0"/>
                <mxCell id="70" value="" style="rounded=0;whiteSpace=wrap;html=1;strokeWidth=3;dashed=1;" parent="1" vertex="1">
                    <mxGeometry x="560" y="-10" width="410" height="540" as="geometry"/>
                </mxCell>
                <mxCell id="69" value="" style="rounded=0;whiteSpace=wrap;html=1;strokeWidth=3;fillColor=none;dashed=1;" parent="1" vertex="1">
                    <mxGeometry x="10" y="-10" width="540" height="540" as="geometry"/>
                </mxCell>
                <mxCell id="68" value="" style="rounded=0;whiteSpace=wrap;html=1;" parent="1" vertex="1">
                    <mxGeometry x="10" y="-110" width="300" height="70" as="geometry"/>
                </mxCell>
                <mxCell id="9" value="" style="shape=image;verticalLabelPosition=bottom;labelBackgroundColor=#ffffff;verticalAlign=top;aspect=fixed;imageAspect=0;image=data:image/png,iVBORw0KGgoAAAANSUhEUgAAAmIAAAFqCAYAAAC57TYWAAAABHNCSVQICAgIfAhkiAAAABl0RVh0U29mdHdhcmUAZ25vbWUtc2NyZWVuc2hvdO8Dvz4AAAAtdEVYdENyZWF0aW9uIFRpbWUATW9uIDI0IE1heSAyMDIxIDA3OjE3OjU0IEFNIFdJQn8WqLkAACAASURBVHic7N15XI3p/z/wV/umEiGSkuzJGoNikF0pZKuJRphs0RhZI2PfhkGDyJ4IM5Q1IYTImn0ka2lR2rfTef/+6HvuX3fnFD6f+cz5fMb7+Xicx6NzXdd93de5zzn3ed/3fd3vVIiIwBhjjDHG/naqyh4AY4wxxtjXigMxxhhjjDEl4UCMMcYYY0xJ1JU9AMbYf86iRYuwceNGhXWOjo7o2rUrxo8fX+nykyZNQocOHfD999/L1c2YMQO5ubkKl7OxscHgwYPRoEGDKsc3ZcoUFBUVAQCMjIywatUqbN26FXFxcUKbrVu3orCwED4+PkJZo0aNMHv27Cr7Zoyx/wUqPFmfsX+ukpISLF++HOvWrcPDhw9Rs2ZNAEBaWhrCwsIwa9YsjBkzBjt27JBbNjg4GOPGjYOhoSEyMzOhoqIiqi8sLETfvn3x9u1bnDp1ShQ8rV69Gg8fPsTZs2fx7bffVjq+xMREdOvWDXp6ejh37hzq16+PlJQU9OvXD/fu3cPJkyfRr18/EBHCw8Ph6emJZs2aYdu2bWjZsuVfs5EYY0yJ+IwYY/9gGhoaMDc3h46ODkxNTYVyMzMz+Pr6Ii4uDnv27MHUqVPRpk0b0bIHDx7E6NGjERISgnPnzqF3796iem1tbZiZmaFBgwZo0qQJmjRpItT17dsXlpaW+PXXX6sMxBo2bIhOnTrByMgI9evXBwDUqVMHPXv2RK1atdCvXz8AgIqKCpycnGBlZYW+fftyEMYY+8fgOWKMfcUKCwuhoqICLS0tUXlSUhLevHmDnTt3wsLCAlFRUV/Ur4GBATQ0NP7KoTLG2D8SB2KMfQVKS0uRmJgoegQGBuLYsWOYOXMmmjdvLmp/8uRJ9O7dG5qamhg2bBi2b9+OwsJChX3n5+eLnmdmZsLT0xP5+flVzj9jjDHGlyYZ+yqkpaWhV69e0NXVBQAkJycjIyMDLi4umDNnjlz7DRs24NixYwAAHx8frFmzBufPn8eAAQPk2v7xxx9wcXFBtWrVUFRUhMuXL+P9+/fYvHkz+vfv/599YYwx9j+OAzHGvgLGxsZ4+PAhdHR0AACpqal4/PgxfHx8MHDgQERERMDAwAAAEB8fjydPnmDOnDmwtLTEq1evAABhYWEKA7FBgwZh37590NPTQ3FxMRITE7F//37MnTsXWVlZCgM9xhhjZTgQY+wroK6uLgRhAFC7dm3Url0bu3btQtu2bbFt2zbMnDkTQNkZLj8/P0ycOBEAIJFIUFpailOnTiE3NxfVqlUT9W1gYAA9PT0AgKamJpo2bYrFixcjLy8PP//8M2bPni13xyVjjLEyPEeMsa9YrVq1AAAJCQlC2dmzZzF9+nSYmZnBzMwMDRs2xNq1a5GSkoLQ0NAv6rugoECU1oIxxpgYB2KM/cNVlipQKpXCz88PGhoamDBhAgAgMjISxcXFMDY2FrU1NTVF165dERYW9lnrTEtLw6pVq2BqagpbW9sq2yYlJX1Wn4wx9k/ElyYZ+wcLDQ3FnDlzkJmZCRcXF1FddHQ0ateujaNHj6Jt27aIi4uDq6srVFVVERERgUGDBgltT548iSdPnuDDhw/w8fHBsmXLsGPHDoSGhqJevXoK+7a2tsaePXuqHN/atWtx/fp1pKen4+bNm7C1tUVcXBzOnTuH9+/fIzg4GJ6enigpKcFvv/2GGzduQFVVFcOGDUOLFi3+ug3FGGNKwpn1GfsHi4+Px/v37xXWffvtt6JcX69evcKzZ88AAE2bNhX9e6Jbt24hIyNDeG5vb4/r16+jpKREYd9NmjSBubn5J8d3/vx5lJaWAgAaNGiApk2b4urVq8jLyxPaODg4QCKR4OLFi7hw4QIyMzMxdOhQODg4fLJ/xhj7b8eBGGOMMcaYkvAcMcYYY4wxJeFAjDHGGGNMSTgQY4wxxhhTEg7EGGOMMcaUhAMxxhhjjDEl4UCMMcYYY0xJOBBjjDHGGFMSDsQYY4wxxpSEAzHGGGOMMSXhQIwxxhhjTEk4EGOMMcYYUxIOxBhjjDHGlES9YgERQSqVKmyspqb2We1kVFVVoaKiAgAoLS1V2E/FOtkyUqkUqqplcWL5v/8dUqkUsv9xXnEMjDHGGGN/NxWSRSb/5969e/Dx8UF0dDSMjIzg5OSE7OxsnD17Fl27dsWUKVPg6OiImJgYzJkzB5cvX4aWlhY0NTVFHefk5MDT0xPBwcEAgMGDByMiIgJSqRSLFi3CwoULhbb29va4cuUK1NTUEBQUhL59+8LBwQGNGzdGUVER1NXVERERgZCQEPz+++8oLi6GpqYmDhw4AHX1sljy8OHD2L9/P6RSKfT19bFnzx4heCsuLsaaNWsQEhKC169fAwD69OmDfv36QSqVYsKECcJYpk6dijdv3oCIYGxsjB07dgAA3rx5gx9//FEYz08//YRvvvlG9JqXLFmCly9fIjAwUG57XL58GWvWrKn0jTAwMMDmzZthYGAglBERtmzZgvfv3yMgIEBumUOHDuHw4cMYOHAg9PX14ezsLLzm69ev48KFC0hMTISJiQkWL16scL3R0dF4+fJlpeMCgObNm6Njx47IysrC8ePHhQBcTU0N7u7uAIAHDx7g1q1bwjKjR4+GhoaG8Ly4uBgnT55EWFgYcnNz4ejoiFGjRkFPT0/hOp8/f45Dhw7h9u3bcHR0RPfu3VGzZk3o6elBVVUVEokEoaGhQhDfsmVLdOjQQVj+5cuXiI6OBgBoaWlh4MCBACAsDwD79++Hk5OTwvXfuXMHHTt2hJqaGgoLC6vcPhoaGtDW1gYA5OXlCdtHW1tbtA1kSktLkZ+fLzzX0dERPscV5eTkCH+rqqpCT09PtLy6ujp0dHSENkVFRSguLhbqNDQ0UFBQINTr6uqKDkIkEolQr6mpCQ0NDeTl5VX6WmVjUCQ/Px+lpaWibSxDRCgqKhK2E2OMsf9DCiQlJREAioyMFMqysrJo5MiRBIDCw8OJiCglJYUA0OnTp+X62LZtG9WsWZOSkpKEstGjR5O2tjYBoHPnzgnlubm51KBBA9q2bZtQlpeXRwBo9OjRon737dtHWlpaBIDWrFkjqvP396d27dpRSUmJUJaenk4dO3YkU1NTevjwoVAeERFBWlpaNGDAALmxDxgwgKpVq0ZpaWmi8mnTppGDgwPduHFDbpnExETS1dUlAHT8+HG5+rFjx1KDBg3o+PHjFBkZSZqamtS7d2+KjIykNWvWkIaGBp08eVK0THx8PAEgbW1tio+Pl+tTIpHQ9OnTCQABoIiICKEuJSWFHBwcqE2bNnT58mW5ZWXevn1LkyZNIgA0cuRI8vb2Fh4TJ04kAwMDGjhwoND+2LFjpKurSxYWFqL3MDExkRo2bEhNmjShrVu3Cu+BVCqlqKgoatasGXl7e1NkZCRFRkbSihUrqGHDhrRjxw65Mfn6+lK7du3ozJkzFBkZSX5+fqShoUEA6OnTp0RElJaWRpMnTyYA1LJlS7p69aqwfGhoKPXo0YOCg4Pp1KlT1K9fP9LU1CQA9PjxYyIievXqFWlqapKxsTF5e3tT3bp1SV1dndzd3cnOzo5UVVUpKCiI3r59S56engSATExMyNvbm4YPH04mJiZkYmJC2tra1KxZM2Hd27dvp1q1ahEA8vDwULjN9+7dK7xnHTp0UPjeytja2hIAUlVVpaFDhxIR0ZUrV6hevXrCmBITE4X2ISEhpKenJ3x34uLihO9LjRo16MGDB6L+jx8/ToaGhqSqqkoLFy6kJ0+eUM2aNQkAGRgYCK/TxMSE9PX1SU9Pj5YsWSLq4969e+Tl5UWDBg2inj17Uu/evcnX15cWLlwotLlx4wY1aNCAHBwcRI+hQ4eSg4MDOTs7U1FRkdzrnzhxIo0bN67S7VNYWEi///47OTo6kru7O/Xv35+WL19OS5YsoXfv3hERUUlJCQ0cOFBY57Rp0yrt79ixY3JjdHBwoHHjxlFgYCA9efKk0mWJyr6T/v7+tHTpUoX1q1atIhcXF5o8eTJdvHhRVDd79mz64YcfaNq0aXJ15YWFhVFgYKDwKC4uJiKigoICUfndu3fp9evXojJFj7t37ypcT3Z2Np0+fZoCAwNpy5YtlJycTMnJyZSdnS1ql5KSItSlpqYq7Ovjx4+UkpKisO7ly5d07NgxoY/yj/j4eNF+TaakpISSk5MpLy9PYZ+5ublCHxkZGaK6Dx8+CHUfPnxQuDwRUU5OjsIxJScny/02EJVt/8raJycn0/v370Xt09PTFbZTtA0/fvxIBQUFJJVKKTk5WXjPZVJSUoT1V/weFRUVCX1//Pix0tfLlEdhICaRSOQCMSKi58+fk7a2tvCDIAvEbt++LbRJTU0lqVRKRESzZs2in3/+WaibPn06rVy5kqytralTp06ivps3b04vX74UnssCsenTp4vanT17lpydnWnChAmkq6tLr1+/FuquXLlCDg4OwvPS0lIaMGAAGRkZyf0AEREFBgZSnTp1qLCwUFQ+duxYGjFihKjs8OHDNG7cOIU/FkREmzZtInt7e6pTpw599913orqPHz+SjY2NaCeura0t+qGeN28eff/996Ll/P39ydHRkbS1teW2g8yWLVuoXbt2ZGlpSTY2NpSVlSXU7du3j8aPH69wufI2bNhAABRuozdv3lCjRo1EQayJiQk5OTmJ2oWHh5OHhwcVFBSIyi9cuEBqamr0yy+/yPUdGRlJampqFBISIpTduHGDGjVqRPn5+aK2wcHBcsFmaWkpAaADBw4IZY8ePSItLS169uyZaPn9+/eTlpYWbdmyhYjKfvQGDBgg7Ijt7e1FAdWcOXOoT58+RFQW9AGguXPnyr2Ghw8fUuPGjUXBrq+vrxBolX8/ZJycnIR6iUQiV1+eVCqlrl270qhRo0TlUVFRQh8V34ugoCDRAcnx48cJAO3atUvhOubPn09jx44Vnt+4cYMAUFBQkKjdu3fvaP369WRkZEQJCQlERPTs2TOytLQUBcL37t2junXrUvXq1YXPg5ubG9nb21NERATFxMSQiYkJubm5UWpqKq1evZp0dXXpxIkTovXFxsaSmpoaqaqqUkxMjMKxOzo6kre3N/35559ERHT16lVq0aIFAaDNmzfLvaYePXqI9hkVFRQU0J49ewgA+fr6UkxMDMXExNCBAwdoyJAhZGhoSNOnT5f7IZQ5e/YsAaBq1aopDDzu379PgwYNEgJdWbBIRHT79m0yNTUlZ2dnevPmTaVjvHfvHvXu3Vt4j2SfoZKSEpo+fTpVr16d1q9fT+/evaPMzEwKCwsjFRUVatWqFf3444+ih4WFBdWoUUMuuAoLCyNLS0tycXGhixcv0sGDB+mbb74hADRr1ixR2/nz55O+vj6pqqrSlClTFI65Xr16pKWlJdrHy/z0008EgCwtLcnc3JwAUPXq1cnS0pIMDQ3JyMhIbr8rez/79eun8Dt07tw56tSpk9BXenq6ULdmzRrS0tIiLS0tWr16daXbeceOHcIBj4WFBVlaWgqP6tWrU//+/UX7mYiICGrVqhUBIFNTU1F7ExMTUlFRoZ07dxJRWZDn4+NDGhoapKOjI2pbt25d6t27N509e1boe8OGDdSuXTvq1KkT1a1bl27duiUa68CBA6lJkyakr69PV65cEcpDQkKoe/fuNHToUOrevTtZWFhQly5dhN/wiqRSKU2cOJEcHBzkAkciopiYGHJycqIuXbrQgAED6I8//hDqbt68Sc7OztSlSxfq1q0bHTx4UG75kpIScnFxoUGDBsn97n7NvigQy83NJUNDwyoDseHDhwtHKSUlJfT27Vuhbvr06bRt2za6evUqqaqq0vbt24W6Lw3EUlJSSF9fn1xdXYW6ioHY4cOHFe44yr/O4cOH071790TlFQOxw4cPk5eXV5UfnO7du9Mff/xB8+bNIwMDA9GOIyMjg44ePSpqr62tLdpppaSkCEECUdkXomXLlnTlyhUaOHAgWVpaKlz/li1baPr06XTnzh3S0tISBTz/TiDm6uoq7OD++OMPun//vlBXMRCLiIhQGISlp6eTgYEB9ezZU+F6pVIpde/enaysrITPjJ+fHzVs2FBuJ1BUVESDBw8WBUOyQKz8DmvFihUEgF68eCG3Pjc3NyFIHjRokOhzWzEQy87Opvbt2xOR4kAsJyeHMjMziajs7G/5syy+vr40YMAA0tTUpMWLF4vGkJycTKamptSnT5/PCsRkY634AxcVFUXdunWjBQsWkJaWluisxvXr1+nbb78VnhcWFpKlpaXozKZMaWkp2djY0PPnz4UyRYHYhw8fhPfIw8ODAgICiIho6dKlcoEgUVmwoKurS3FxcVRQUEB16tQRfb/Nzc3pt99+E55v27ZNCHxl/Pz8aPDgwVS9enXy9fWVW8f169dJVVVV7qxGcnIymZubi7ZZUVERtWjRotJ9QXn3798nALRx40a5ukOHDpG2tjatXLlS4bLjx48nKysr0tLSqjTwXbJkCbm7u5OhoSHNmDFDVGdvby/3I6vIvHnzqG3btqKz/+/fv6dBgwaJDppkVFVVFZ5ZzM7Oph49eog+p7LXuHfvXlFbiURCHh4e1KFDB7l+RowYQS4uLgrHGh0dTYaGhgSAZs+eLaqTXQ0JDAwkov//mzJ//nwiIrp79y7VqVNH7qzY6NGjhQMR2UFBRXPnzhXaVDyImjVrFv30008KlytPdlCVk5MjKr916xbVrl2bzMzMRHXbt28nABQbGytqn5WVRfPnz6f69etTbm6uUN6oUSPq1auXqG1aWhp5eXmRtrY2nTlzRijftm0b6enpyQXNMv3796fdu3cLzyMiIqh169b06tUroezZs2fUpk0bql69OiUnJ8v1IbsaBoBWrVqlcD3Pnz+Xu6pVcfkxY8YoXPbOnTtC/xXji6/ZF82A/+WXX5CVlQV7e3tR+dmzZ3Hjxg2cPHkS4eHhQrm6ujpMTU3l+uncuTOGDRuGOXPmIDEx8UuGIKhduzbmzJmD33//HZcuXVLYJiYmBgAwdOhQhfVqamo4ePAgbGxsKl3P0aNHERISgk2bNkFLS0thm9evXyMjIwP9+/eHi4sL8vPzERoaKtQbGRnBxcVFbjkTExPR65k4caLw/OzZs9DT00PXrl3h6uqKFy9e4Pbt25WOs02bNhgzZgzmzp2LhISEStt9jqysLJw4cUJ4PnjwYLRq1Uph25MnT+LgwYPYunWr3Pyfc+fOITs7G66urgqXVVFRwbBhw/D8+XPcu3cPAODi4oJ3796hb9++OHLkCDIzMwGUzV/65Zdf0LRp0yrH3qNHD2hqasLZ2RlHjhwR1S1duhS9evUCAISHh6Nt27aV9qOvr4+4uLhK6wMCAnD8+HEAwPfff4/58+eL6h0dHdGuXTuEhYWJyqOiojBgwAA0atSoytfxOQwMDLBo0SJYWlpi0qRJyM3NVdhOS0sLP/zwA2JiYpCcnCyqi4+Ph66u7ifH4+XlJcwB3Lp1K77//nsAZXPGTp06hdOnT4va29jYYMaMGUhNTYWWlhZiYmJgbm5eaf/ff/89tmzZIjzPycnBgQMH4O/vj+HDh8ttR6Ds86OioiK3bhMTEwQEBODx48dCWX5+Ph49elTla/wcrq6uGDp0KBYuXIiUlBRRXW5uLs6fP4+IiAhYWFggODgYEolEYT/NmzfHokWLsG3btio/Z1WpVq2aMLcwNTUVnp6eWLlyJVq0aPHJZSMjI5GQkAB9fX1s3boVJSUlAIDHjx/Dw8MDAwcOxIgRI0TLqKmpYdGiRUhISMDTp0/l+jQ0NFS4riNHjmDGjBno1asXDh8+LKp78uQJ+vXrhx9++EHhsq1bt8aePXtE3+XMzExcvXoVO3fuhKampsLPhoy3tze8vb3x66+/4sGDB6KxVjbez9GuXTu4u7vjzZs3iI2NrbJtQkICDAwMsHjxYnTs2PGT7Y2NjTF79mwUFhZi//79ojGrqqpCX19f4XLVq1dH9erVhed79+6FtbU1GjRoIJQ1btwYx44dQ2lpqcLvw4YNGzBixAh06NCh0u0q226Ktp+srLJ9flhYGNzc3KCvr1/l+/a1qTIQmzdvHqZNm4Zp06ahWbNmWL9+PVauXIlp06aJ2h0+fBh+fn6YN2+eaGJwVbZs2YLS0lIsW7bsXx78jBkzYGtri/HjxyucYPzs2bNKl3348CEuXrwoPG7evCmqT01NRVBQEEaPHo20tDRhR6VIcHAw+vXrB01NTbRv3x76+vrYuXPnJ8df1fjCwsKED/OQIUNgZmb2yQ/uzz//DDMzM8yfP190J+rn6tWrF1xcXGBlZSWaTF6ZkydPYujQoWjXrp3CSdinTp0CADRp0qTSPqpVqyZq26lTJ+zYsQOpqakYNmwYGjdujJEjR2Ljxo2oVasWPDw8qhxTx44dERwcjLS0NAwbNgwWFhb46aefcO3aNZibm2PMmDGffF2VuXbtGi5evIiNGzcKN6EAZT9QtWrVkms/bNgwPHr0CA8fPgQAFBQUYNmyZZXupP4Vqqqq2L59O65evSraaVfk6uqKjx8/YteuXaLyBQsWYNiwYQqXefr0KS5evIhz586JbsTQ1tZG/fr1hX6trKwwcOBA9OjRA5s3b8arV68AlN280r9/f6ioqHwy0FNTU0PDhg2F51FRUbCwsEDbtm3h6uqKd+/eCYGvTMeOHeHk5ITx48dj+PDhovpRo0aJDob+Sq6urigsLBQddAJlAUeNGjXQtGlTfPfdd7h06VKVB0Xe3t4wNTWFp6fnvzWe9PR0fPfdd1i3bl2VQVj5m1k2b96MK1euACj7cZbdzHPgwAEUFhbC3d1d4Y0mDRs2xNatW2FsbPxZY8vMzMSBAwfg6uqKYcOGITExURR4tm/fHlu3bhXurlekT58+ohudLl26BHNzc4wdOxatWrXC0aNHK72DX11dHevWrUONGjWEg4e/QkFBAe7fvw9DQ0M0b968yrYODg7IycmBiooK9u7di65du36yf9mB6b9zc4uOjg7OnTuHq1evisobNGiAuXPnKrxJ6/r165g0aRJcXFxw584dPH/+/F9at2y/XtHmzZuxdOlS9O3bFydPnqzyxqCvSZWBmIeHBwICAhAQEIBr164hMTERs2bNkvvSbNu2DRcuXMDNmzdhZGT0WSs2MjLCDz/8gNDQ0E8eIVRGW1sbq1atwrNnzxAYGPhFy6ampuLMmTPo0aMHVq5cibdv34rqL1y4gAsXLiAoKAiXL1/Gpk2bFPZTVFSEgwcPYs+ePfDy8oKXlxfy8/Nx6dIluSPmz5WWlobQ0FCcPn0aXl5emDFjBvLz87F3715kZGRUulzt2rWxYMEChIaGyn35PsfkyZMxaNAg+Pr6VnoXn8ypU6cwefJkNGnSBAEBAXjx4oVcm88NygGI7kx0d3fHn3/+iTNnzsDFxQVRUVGYNm0amjdvLuygquLm5obnz59j586d6N27N3bv3g07Ozt06dIFd+/e/ewxVZSZmYmEhAQkJCR81g5EdsBy9OhRAEBcXBxycnLk7rb9d3Xu3BnDhw/HvHnz5D7HMg0aNICTkxN27twpjD01NRXx8fFyB1YyZ86cwZo1a+Du7i7cbVxRo0aNEBcXhzlz5iA1NRVTpkxB8+bN8e233+Ly5ctVjruqM0FhYWEYNmwYVFRUYG9vD6lUin379sm1O3jwIPz8/BAdHQ0XFxfUqFEDrq6uiI6O/uxgoTLlz1iXJwsqZWfcy4/Zx8cHADB8+HBoa2tXefCkpaWFZcuW4fHjx/j555+/eHwZGRl49+4devXqBYlEgmbNmlXZ/pdffoGXlxdGjhyJiIgIuSsbAIT3rKrA2dXVFTVr1vysMZ46dQrt2rVDixYtMGrUKBgZGQnfhy9Ro0YN4e/y23nYsGG4ceOGEPxXZGlpCW1tbaxYsQJxcXFVHqxU5cyZMzhx4gROnDiBjRs3wsHBATdu3EB4eDjq1asn1z4mJgYnTpyAn58fXr9+LQSKurq6cldW0tPTRQf60dHRmDZtGvT19TF27Nh/abwAsHLlStStWxfdu3dHixYtsHDhQmH/OXv2bLnA9NatW3j79i26desGDw8P6Onp4Y8//viX119RcHAwWrZsCXNzc7i6uuLt27e4du3aX9b//7IqA7GmTZvCyMhIeFR2SlRGXV0dwcHBwo94UVGRwrQLMvPnz4eZmRl8fHxEt+l/ia5du2LSpElYvnw5Fi1aJKobPHgwAMid7QLKLmH5+fkBKLuMUvHSYdeuXbFv3z64u7tj6NChmDt3rpAOoTzZpZ379+9j8+bNmDdvHp4+fQo1NTW5S2MVVXYUeOzYMVhbW2PcuHHo1asXevXqBQ8PD6Snp+PChQtV9jl69Gi0bdsW7u7uX3xWbMiQIRg3bhzmzJkjd0RTsS8bGxtcuHABhw4dgpaWFkaPHo2srCxRG1tbWwAQcrcp8u7dOwD//72S5XrT09NDnz59EBQUhKSkJBw9ehSGhobo3bt3lcGobHldXV2MHTsWQUFBePfuHY4ePYqnT59i+PDhn3W2T5EBAwZg3LhxWL9+/WedWdPQ0ICLiws2bNgAIkJYWBjGjRv3ye/Rl1JRUREORBYvXqxwe6uqqmLUqFH4888/cePGDQBAYGAgnJ2dFZ75AMoCyYiICCQmJlZ6aRoo+3FZsmQJ7t+/j7S0NKxduxbv37/Ht99+W+UPX/kzNOV9/PgR586dw969ezF69GjhLGhUVJTce6+hoQF/f3+8ffsWZ86cwfTp03H+/Hn069cPjo6OVZ7J/pSKKWgqKn/ZMScnB6dOncKuXbswevRoLFy4EKqqqjh69GiV38OhQ4fC3t4ey5cvx/v3779ofA8fPkTnzp2hr6+P8+fPC6l2KtOxY0dhf6Kvr69wv1iVAwcOwM3NDaNHj8agQYPQs2fPTy5z+PBhWFhYoKSkBNraZ7SdIwAAIABJREFU2qhXrx7CwsKq3CdUJSUlBQcOHICZmRlKS0uFg5pPXS0YNWoUOnbsiMmTJyMtLe2L17t//37s3r0bu3fvxuXLl5GXlwc1NTV8/PhRYfsTJ05g9+7donQ/lbl//z7c3d2hp6cHbW1tTJgwAWPGjMHly5fRuXPnLx6rTO3atXHz5k0sWLAAxcXFWLJkCdq3b4/mzZtj7969cu/BoUOHMHXqVJSWlqJu3bpo1KgRDh06VGn/dnZ20NPTEz0UXRmQuXjxonDQN2jQIDRq1IgvT/6fvzyzvrOzMzQ1NUFE+O2333D+/PlK2+ro6GDZsmWIi4ur9Ej+U1RUVLBgwQIQEc6dOyeah2JnZyfMA/vUl6Gi+vXrC8lld+/ejW7dusHFxUXujEpYWBg8PT1Ru3ZtaGlpoWHDhjA3N0eXLl3k5kNU5OzsrLA8JiYGvr6+GDVqlPAICAhA/fr15Y7CK1JVVcWePXuQlJT0b12Gy8zMFPJNhYaGyh09mZqawsLCAk2bNsX27dsRFxeHFStWiLaz7BJcZV82qVSKw4cPo1atWsIllblz52LWrFmidrKA5pdffkFaWlqVZ9rmzZuHmTNnyi0/ePBgHDp0CH/++SfS09M/cytUbvLkyejRoweAsgMOWVBf0YwZM/Dhwwfs378fx48fx7hx4/7tdStSs2ZNjBs3DkFBQVi6dKnCNk5OTmjYsCE2bNiA0tJSHDp06LMuk+ro6MDDwwN16tQBUBaUHzhwAEDZWRbZJS41NTUYGxvD29sbT548gbOzM3766acvfi0hISGoU6cO5s+fj5EjR8LNzQ2rV69GRkYGoqKihHZxcXHC/kVDQwMODg7w9/fHhw8fMHv2bERERFS5//mUygLF69evAygLbGQ2bNiANm3aYOrUqRg5ciRGjhwJT0/Pz7q8s3//fpSUlGDOnDmVzilTRE1NDSdOnMCVK1cwatQoTJo0qcozviNHjsSoUaMwfvx4zJw5E6mpqUKd7Dsl238qCmBHjRoFX19fHDhwALa2tp/ctmlpabh8+TJCQkJQs2ZN1KpVCy9evMDz58/lLut+rrCwMKirq6Nnz55CnksNDQ1s2LDhk8uuWbMGeXl5cgfsn2PPnj04dOiQ8Lh79y5GjhwJJycn4cCmvGXLluHQoUO4evXqJ68S9ezZEwcPHsS+fftQWlqKH3/8EUuXLkXr1q1F7So7K10VdXV1+Pv74/nz53jz5g3Wr1+P4uJieHh4YM6cOUI7iUSCjRs3Ys6cOTAyMoKenh5u376NmzdvCt/visLCwpCXlyd6VBbkJiUlISwsDDNnzsTgwYMxatQoZGRk4PTp0//ySZh/EoWBmOwy06cSWcralT8TUlRUhPfv38PPzw8zZswQTiHL+qvYp7OzM4YMGfLZA1bUh4mJCWbPng1AfDmsefPm2LFjB65fv46ZM2eKLicREbZv317peoqKioS/9fT0sH79ekilUkydOhXZ2dkAyi4NBAcHKzxqcXV1xeXLl6s89aroRgXZB7ZiolF9fX3069cPu3btEu1AAfn3ydraGl5eXpWu90vcuHEDkyZNqvIHe9CgQZg9ezZWrFgh2qZmZmbw9PTErl27cOfOHbnlzp49i3v37mHBggXCzsrOzg47duzAwYMH5Y7YatSoAQ0NjSr/y4KdnR127tyJS5cuVbr8X/FfFWxsbGBmZgYiwvr164Uf54o6duwIc3NzfPfdd2jWrJkwt+o/YdGiRWjRogUiIiIU1uvq6mLIkCG4cOECli5dCgMDg8++TDpz5kxhrl9ISIgwB/Lhw4fw8/MTfV9kxowZg4yMjC8++3H48GFMnDgRTk5OwsPHxwetW7cWHdx8/PgRI0eOVHiGc9asWahRo4bczQn/rtLSUoSEhEBDQwPdunUTyq9evYp169bJjflTlycBoF69epg1axZ27dr1RZdqunTpIpypXL16NSwsLDBy5Ei5/YMi8+bNw9SpUwGU7etkB0Ky73llB5F169b97PGdO3cOgwcPRnZ2tvB49+4dTExM/qUzISUlJQgMDERoaKioz+3btyMpKemTB6l2dnaYMGECgoODP2sO76fIEoFXDAKNjY2Fy8RGRkb4448/hCTI8fHxlU5zcXFxga+vL2bNmqXwUqu2tjaISEjYXNGLFy9Elz29vb1FBwH16tXDlClT8PjxYzg6OmLPnj3CGb2IiAi0b98eL1++RHZ2Np49e4ajR4/CyMio0vfqSz4L4eHh6NKlC3bu3ImpU6di6tSpWLduHV6/fo3ff//9s/v5x6p4G+WJEyeof//+ZGlpSV26dBHleCrv8uXL5ODgQJaWltSyZUtyd3cnd3d3IdWCpaUltW7dWsij5OXlRVpaWlS9enXRLblEZbmfGjRoILq9XZazpm7dusKt64cPHyYTExOFiV5zc3PJyspKlL5CJiwsjFq0aEEWFha0ZMkSWrNmDY0dO5bc3NyoefPmolvaJ06cSLVr1yYVFRXR7fS//vqrkIzWysqKpk2bRlZWVqSpqUk+Pj6i9SUkJFCvXr0IAJmbm4uSM75+/ZpmzpxJqqqqVLduXdEtvMnJyTR48GACQHv27BH1+erVK6HPYcOG0aNHj+jGjRvUuXNnql69OgUHB4vaf/jwgfT09D6ZvuLVq1fCOmfOnElr1qwRHj4+PmRkZES1atWinJwcKioqouDgYNLQ0KCWLVsKubMkEgnt27ePAJC+vj4tXLhQuDW6pKSEJkyYQJaWlrR69WpKSEighIQEmj17Npmbm9OCBQtE44mNjSUdHR0yMTEhHx8fof3p06epffv2Qh6evLw8io6OJgA0depUIU+QLPUCAFqxYgWlpqaSRCKh+Ph46tChA3l7e8ttg6ysLLK1taVGjRoJKSnKe/nyJQGgSZMmCeORPaZNmyaX6mDixInk7e1NpaWlRERC0t3y6Vo8PDwqzTNWXklJCRkZGZGnp6eoPDw8nHr27Cnk7JMJCwsjDQ0NUfqK8p4+fSokx920aZPCNrJtuH79eqFMIpFQQkICrVu3jnR0dITky0eOHCEA5OLiIsrVVFBQQN27dxfSXFRkbm4ul5CZqCxvnY2NjcJEmwsXLqRatWoJyTSfPXsmJEaumNjz+vXrZGhoKOxTMjMzq0xlU54sfUXFXHRZWVnk6+tLmpqaooStjx8/pmrVqinsq1OnTtS6dWtR2ZIlS+QSvhYVFZGFhQUB+Oz0Ffb29qKyS5cukba2Nnl6esrl3VJVVVWYGJWIKCAgQNjXydLE6OnpCcmTy3v27BkBoEWLFonKR4wYIcpFR1T22hUl+x4zZgyZmJjIJVolkk9fUd779++pfv36cukbMjMzSUtLS24/PHfuXLn8ha9fv6b69esTALnExIpUlr6CqCxdEgDRPmX79u1kamqqsC+pVErTpk2jDRs2CGUV01dIJBLq3r07NWnSRC6xa0REBAEQ5e6SuX//PtWoUUNUNnz4cHJzcxOlOJFZu3Yt1axZU1iHm5ubaFwyjo6OZGlpKcrrKEvnc/PmTbn2srRTFRMS9+rViw4fPiwqy8/PJ0tLS3J0dJTr52ujMI/Yf0JSUhLduXOH7ty5o/ALmJSUJNp5yNreuXOHHj16RERlCSVlZRVzf8nqy+dDKi8/P5/u3LlDS5cupWPHjgk76LS0NFFSxQcPHgjrKJ8768mTJ6IxKRqfTFZWlqi+fP85OTmiuvKJG/Py8oTyitmu379/L1ouIyODXrx4QZs2bSJ/f3+5DzlRWf4eRV+W8qKiosjf37/KhyzpYXJysqhclmcqOztbbpn9+/eL1nPnzh3y9/enb775hnr06EH+/v4Kc33l5eXRgQMHKCsri7Zt20a9e/cma2trmjx5Ml2/fl1o9/TpU9H6Tp06JSwfFBREd+7coUWLFlG3bt1o5MiR5OzsTNeuXZNbn0QioW3btlH37t3J2tqaXF1dRT/qiYmJ1L9/f7K2tq700a5dOyG7vZ+fH7Vr146sra1p7dq1RER07do1srW1FXLqzZgxg9q0aUPW1taV5liTkSV/1dDQIDc3NyIqS25rbGxMABQGXG5ubgpze8n07NmT9PT0FAaBz58/pyZNmggJR9u0aSOMVRbg6ujoCP8xIzIykgYMGEB+fn5kY2NDM2bMoICAAOrbty/9+OOPQjAqk5aWRjNmzCBNTU3S19cXfU4eP35MLVq0IB0dHbkg8fbt29SmTRsh6JMlkNXX16exY8dShw4daNWqVXTt2jX68ccfycbGRvgPFxKJhObMmSMkDS2fr6+iq1evkrOzMwGggQMHUkBAAAUEBFD//v2pfv36ZGxsLBwMEJUFJnZ2dqSpqSmXkFZ28ABAyDN35swZat68OTk4OIg+z0REv/3222cFYnfu3CErKyvS09OjsLAwYRu/fPmSOnToQABoyJAhFB8fTzk5OXT27FlSUVGhvn37Unx8vPBYs2YNubi4CP9FQiYhIYEcHR3J2tqajh07RhKJhKRSKd2+fZtsbW1JV1dXFIi9ffuWbGxsqGPHjsK+TvYfUCrm0yIqS1QtC+YqJsa9desWAaCJEyeK8iZmZWWRi4uL3AG4TLdu3cjExET4zxmFhYU0fvx4+u677+QCkdDQ0M8OxLy8vIS8YOW33ZEjR6hJkyZkYmIi+s1Zt24dGRgYiH4TcnJyKD4+ngYNGkTa2trCfq+goIDMzMzk8oj9+eefpKurSx4eHqIM/qWlpWRra0umpqYUEhJCBQUFlJ+fT+fPnycTExO55LQ///yzcKBa/jc3KSmJWrVqRfPmzSOisiBOV1dX9F9wZGTJjct/thMSEggARUVFybWXBWLl/7tMdHQ0NWnSRGEy9GnTppGenp7C34Kvidz/mmSM/X1yc3MrvdUbKJsELru8VqNGDRgbG6OwsFCYL6Kvry93iUB2+b58TqGK9enp6QovkxYXF3/yf49qa2uLchPJZGZmCnNEatWqpXBuTMX+q1WrJtx1JpFIhOkOOjo6MDMzE9plZWWJ7kKW9f/8+XNYWVnh3bt3OH36NNLT09G8eXPY29sL6yci7NmzR5gM36ZNG/Tt21fha3v79q3CGwzU1dXh6OgIIyMj0YTkhIQE4TJexX7Lp/3Q0NCAr68v9u3bJ9yg0qtXL9E8tNLSUpw5cwbt2rWr9I5NANi9e7doYv+MGTOEfFrl7142NTWFnZ0dDh48WGlfMt7e3qL/c1tUVIQTJ04gLCxMmCtbq1YtjBw5Es+ePYOlpaWQhsHZ2Vn4jFpYWGDjxo0YNmwYioqKoKurixMnTkBXVxdA2Q0XP//8szCFZOHChRgwYACAsjs2/f39hUvNPXv2xPLlywEAq1atwpEjR6CmpoYpU6Zg9OjRwliDg4MRFBQEqVQKNTU17Ny5E8HBwbh48aIwvorzodzd3dG3b98qU4f8+uuvOHTokML5ctWqVUOfPn3g5uYmfI82btyI33//HXl5ecJ3FSjLYSebA920aVPs2bMHubm5mD59unCzV4cOHbBy5Uph2sXx48cxf/585OTkICIiAi1btgQAZGdnY/Xq1dizZw9UVFRARFBRUcG8efPg5eUlugHs9OnT2Lp1K6ysrHD69Gn0798fUqkUZ86cQefOnbFx40akpaWhU6dOSEpKQvfu3YVtBpTdVd2zZ088fPgQenp62L9/P9TV1TF37lzcv38f5ubmCA4OFm7aePjwISZPnozo6GjUrVsXwcHBMDMzQ9++fZGZmYm5c+di3rx5Qv/R0dHw9PREYmIirK2tsWvXLrRv377S9+OfjAMxxhhj7L9MSUkJPn78qPBOxNzcXGFutqGhYaUHcwUFBdDR0UFmZqYQ4Orp6QkHacXFxaIJ9uUTsEskEtHBj+zARpZkGyhLKi27C7ygoEB0V7OsXDYZX1tbW5T2JCcnR5hvLetfFrB/bTgQY4wxxhhTkr88fQVjjDHGGPs8HIgxxhhjjCkJB2KMMcYYY0rCgRhjjDHGmJJwIMYYY4wxpiQciDHGGGOMKQkHYowxxhhjSsKBGGOMMcaYknAgxhhjjDGmJByIMcYYY4wpCQdijDHGGGNKwoEYY4wxxpiScCDGGGOMMaYkHIgxxhhjjCkJB2KMMcYYY0rCgRhjjDHGmJJwIMYYY4wxpiQciDHGGGOMKQkHYowxxhhjSsKBGGOMMcaYknAgxhhjjDGmJByIMcYYY4wpCQdijDHGGGNKwoEYY4wxxpiScCDGGGOMMaYkHIgxxhhjjCkJB2KMMcYYY0rCgRhjjDHGmJJwIMYYY4wxpiQciDHGGGOMKQkHYowxxhhjSsKBGGOMMcaYknAgxhhjjDGmJByIMcYYY4wpCQdijDHGGGNKwoEYY4wxxpiScCDGGGOMMaYkHIgxxhhjjCkJB2KMMcYYY0qiruwBMPY1yMzMxMyZMxXWaWhoYNCgQbCzs0P16tX/8nVHR0fD2dkZZ86cQceOHf/y/hXJyMjA1atXhecNGjSAjY0NAODixYvIzc0FAJiYmKBDhw5/y5gYY+y/EZ8RY+xvUL16dcyYMQORkZG4cuUK+vTpIzwaNmyICRMmoGvXrrh27dpfvu569eqhT58+/5EgrzKlpaW4evUqHB0dsW/fPtSsWVOoe/ToEZycnLB48WIhIPs7ERHevn37t6+XMcYUUSEiUvYgGPtatGrVCgYGBoiJiRGVf/z4EU2aNEG7du1w+vRpJY3ur3XmzBn069cPR44cwZAhQwAAUqkUs2fPRsOGDeHt7a2Ucd26dQtRUVGYNWuWUtbPGGPl8Rkxxv5mdnZ2cmUaGhrQ09NDZmamqLygoADXr19HYGAgIiMjFZ5BIiIkJiYiMDAQ58+fR15eHrKzsxEeHg4iAhEhOTkZxcXFouWysrJw/PhxBAYGIj4+XuFY379/j8LCQkilUiQnJyM5ORnp6en/0usuLS3F3LlzYWFhUWkQJpFIkJycjLy8PIX1ubm5SE5ORmlpaaXrkbXJz8+Xq0tJSYG/vz8KCwtF5cnJySgqKlLYPjk5Wa49Y4z9VTgQY+xvpqurK3qenJyMn3/+Ge/evROdpbl37x7s7e2xefNmvHz5Eps3b0a3bt1El9WkUimcnZ3h4eGBly9f4pdffkHr1q3RtWtXrFy5EteuXcM333yDevXqIS4uTlju8ePH6NixI6Kjo/Hy5Ut4eHjA29tbFIz069cPpqam2L59OxwdHWFra4tOnTrBwsLii8/alZaWYv78+TAzM8OkSZMU1gcGBsLFxQUBAQFwcXHBpEmThMBUKpXit99+g52dHezt7eHs7IwuXbogLCxM6OP9+/eYMGEC+vTpA3t7e3Tt2hU7d+6E7KR/ZmYmXF1dcfLkSQQHB+O7777D2rVrcf36dXTt2hXt2rXDpk2bhP4ePXqE7t27w9TUFHPnzv2i18sYY5+NGGN/G2tra9LT06PWrVsLDwMDAwJAQUFBorZjx46lCRMmiMpGjBhBK1euFJ4fPHiQ6tWrRzk5OUJZ+/btafDgwUREJJVK6erVqwSAYmJihDYtWrSgtWvXCs9fvHhBenp6dPv2baHswYMHpKWlRcbGxnT27FnKzc2lgoIC6t+/P3Xr1u2Tr/X06dMEgMLCwujHH3+kunXrUn5+vsK2QUFB1KRJE8rLyyMiotzcXOratSvNmTOHiIhiYmIIAJ09e1ao9/LyIicnJyIikkgk5ODgQD4+PlRQUEBERLdv3yYtLS06ffq0sJ7CwkJq3LixaBvKlu/UqRP99NNPcmMbMGAAjRkz5pOvlzHG/hV81yRjf7OhQ4diwYIFwvOXL18iJCREOBvm5eUFABg+fDgaNmwotEtKSkJOTo6or6NHj6JDhw6oVq2aUNarVy/cuHEDAKCiogJra2u5MUyZMgWurq7Cc11dXTRq1EjUpmXLllBRUcH69evRu3dvodzPzw/+/v6f/XqXLVuGgoIC5ObmwsvLC/v37xfVSyQSLF++HBkZGZg+fTqMjIwAAH/++Sdev36NJUuWQE1NDQCwcuVKEBG6d++ODRs2ICoqCgBQUlICbW1tjB8/Htra2gCAtm3bQltbG1lZWcK6tLS0hPry1NTURNuwPENDw89+rYwx9qU4EGPsb2ZjYwMrKyvhuZWVFXr06AEAmDNnDpydnWFsbAxbW1ts374dYWFhUFdXR7169XDp0iV0795dWHbMmDFwdnbGlStXYGdnh9zcXBw5cgSOjo5VjmHkyJHYsWMHwsLCIJFIULduXdy/f19hWz09vSqff0r9+vURFhaGVatWYfHixbCzsxPNEZNIJHjx4gUOHz6Mzp07C+U+Pj7Q1taGqqoqbG1tsXPnTixZsgR9+/ZF8+bNMWrUKIwfPx4AoK2tjfDwcNy6dQubN2/GkydPcPfuXWRnZ3/RWBlj7O/Gc8QY+y+gpqaGZs2aIT09HVlZWUhPT4eDgwOuXbuG/fv34+LFi/j999/h4+MjWq5v375o2bIlBg0ahBEjRqBZs2ZwdXXFwoULK11XYmIimjZtigcPHmDHjh24fPkywsPD8c033/xHXtumTZugpaWFefPmoXfv3liwYAEePHgg104ikaBevXqiR40aNQAAqqqqGDt2LB4+fIirV6/CxsYGS5cuhZ2dHZKSklBSUoJhw4bBzc0NJSUl8PDwQHh4OPT19f8jr4kxxv4qHIgx9jeTSqVyZbm5uQgODoaFhQXq1KmDe/fu4d69e3Bzc0OzZs2go6ODrKwsXLx4UZh8DgCzZ89Gnz59kJSUhN27dyMxMRHLly+vMmdYUFAQjI2NsW3bNlhbW0NXVxcPHjzA8+fPP2v89IUZb1RUVACUBVMhISGwsrLCiBEjUFBQAKDsjtF27drh0KFDor6JCLGxsQCAyMhIuLq6QlNTE507d0ZoaCgCAwORkJCAmJgY7Nu3DxcuXMDly5cxffp02Nra/kuXFCu+N6WlpZxzjDH2H8WBGGN/g/z8fGzatAmvXr3CihUrsGXLFuzatQvBwcFwcnJCw4YN8fHjRxw6dAjVqlVD69atYWhoiDVr1mDXrl1YsGABhgwZguLiYgQFBSElJQXFxcWwsLDAypUroaenB2trawwdOhRz587F7du3hdQV+/btAwBs374dGRkZ6NKlC54+fYqAgADs2rULCxcuhIeHhxAoZWVloaSkBCEhISgtLcWlS5eEoCk9PR2LFy/Gw4cPcfPmzUqDssLCQkRHRwMALly4AIlEAgDQ0dGBvb29kNQ1Pj4eampqWLlyJY4fPw5fX19kZWXhxYsXGDNmDF6+fAkA6NKlC65cuYIZM2YgNzcXpaWlKCoqgoaGBjp37gw1NTXk5+cjNjYWWVlZiImJwcCBA5GTk6MwwHzx4gWysrLw9OlTJCYmAgDMzc2xd+9eXL9+HVlZWQgNDUWbNm1w/fp1lJSU/KWfB8YYk1FbtGjRImUPgrF/OqlUioKCArRu3RomJiZITU1FUlISkpOT0b9/f4wdOxbLly+HpaUlgLLJ805OTkhOTsa7d+/QoUMHzJ8/H56enkhLS0NkZCRat26Nzp07Y/Pmzdi1axdMTEygoaGB8PBwrF69Gtra2ujSpQt2794NW1tbaGho4JtvvkGHDh3QunVrPHr0CElJSULahk6dOuHu3buIioqCiYkJwsPD0b59e5SWlqKgoADW1ta4dOkSUlJSYG1tjbt376J3797CRPryjh07hidPnsDW1hbv3r1Do0aNUKtWLURFReHBgwewtbVFzZo1ERcXhwEDBqBRo0bo2bMnYmJi4Ovri5s3b2LWrFno168fAEBTUxMaGhpIS0vDrl27EBoaiidPnmD16tWwtbVFy5YtkZeXh6VLl2Lz5s3IysrC8uXLYW5ujo0bN+LBgwfo0qUL9PT0oKOjg927d+OXX35BfHw8hgwZAn19fbRs2RK3bt3Cxo0bsXnzZtSpUwebNm1Cbm4uIiMjUVhYCHt7+7/1c8MY++fjzPqM/Q/r27cvFixYIJckNigoCBMmTEBhYSG0tLSUNDrGGGOfwpcmGfsfdufOHeHynUx+fj5SUlIwcOBAaGpqKmdgjDHGPgufEWPsf9itW7ewbNkyvHr1CllZWdDV1UWTJk3Qo0cPuLu7w8DAQNlDZIwxVgUOxBj7B/jw4QOKioqgrq6O2rVrK3s4jDHGPhMHYowxxhhjSsJzxBhjjDHGlIQDMcYYY4wxJeFAjDHGGGNMSTgQY4wxxhhTEg7EGGOMMcaUhAMxxhhjjDEl4UCMMcYYY0xJOBBjjDHGGFMSDsQYY4wxxpSEAzHGGGOMMSVRV/YAGGP/OVKpFE5OTigsLAQAWFhYYPv27aL6Pn36AADU1NSwbds2mJubK2WsjDH2NeL/NcnYP9zTp0/x3Xff4d27dzh58iRat24t1BERLly4AEdHRxw7dgwODg5KHCljjH19OBBj7CvQu3dvvHjxAgkJCXJ1ubm5aNSoEVJSUpQwMsYY+7rxHDHGvhLW1taf3TY7OxuxsbGQSqVIT0/H2rVrceLECeTl5QEAcnJyEBsbi9jYWGRkZAjLxcfHIzY2Fo8ePRL19+TJE8TGxuLevXty63r+/DkAoLi4GLGxsYiPjxfVx8bG4sWLF589dsYY+1/Cc8QY+0o0btz4s9rdu3cPDg4OSE9Pxw8//IDo6GjUrVsXS5YsQZcuXdC/f39s27YNtWrVwsOHD2Fubo7Y2FgAQFZWFpYsWYILFy4gKSkJNWvWBAD8+eef2L17N44dO4ZHjx6hcePGOHjwIGbNmoWsrCxMmzYNp06dgoGBAW7fvg1/f38QEUJCQqCvr48bN27Az88P/v7+/7HtwxhjysBnxBhjItbW1ti1axcAoG3btoiLi0NUVBTCwsJw8uRJPHnyBOfOnUNUVBQuX76Mmzdv4vz58wAAOzs7BAQEoLi4GFKpVOjT0dERK1euhEQigUQiAQA4OTlhypQpyMnJQV5eHi5duoSoqCgwyvVFAAAgAElEQVQsXLgQvr6+uH37NqKionDhwgXs3r0bK1euRGJi4t++PRhj7D+JAzHGmIiamhqqVasGAPDw8ICuri6A/39GbcqUKahduzYAwMrKCkSEkpISYXkNDQ2F/VYs19HRQePGjaGpqYm1a9dCR0cHANC9e3cAwLp162BoaAgA6NWrF/Lz85GWlvZXvUzGGPuvwIEYY18J2Zkoxhhj/z04EGPsK6CtrY3w8HCFdVeuXIGdnd1fur5WrVoJZ7PKMzIygpGR0V+6LsYY+1/GgRhjXwEfHx8kJSVh3759osuI79+/x4oVKzBmzJi/dH0vX75Eamqq8Dw7OxsbN26EhoZGpZcuGWPsa8SBGGNfgW+//RaLFi3ChAkT0KpVK/j5+cHJyQnffPMN+vXrBycnJ6Ht48ePsXTpUgDA5MmTAQBJSUn46aefAABz587F69evkZOTA29vbwDAoUOHkJSUBACoW7cuatSogcGDB2PRokVYsGABhgwZgjdv3iA1NRVxcXEAgLdv3+LXX3+FRCJBVFQUACA1NRVr1qwBAERGRkIqleLjx4/CzQPR0dHCfwlgjLF/Ak7oythX5O3btwgPD0dubi4AwM3NDfXq1RO1uXTpkpCOQkVFBTNnzsTdu3cRGRkptOnZsydq1KiBw4cPC2UdOnRAjx49AADp6ekICQlBUVERGjRoAEdHR0gkEmzduhVv3rzBr7/+isjISNy9exdA2cT9KVOmIDY2FpcuXRL69PHxQUJCAiIiIoQyT09PGBsb/8VbhjHGlIMDMcYYY4wxJeFLk4wxxhhjSsKBGGOMMcaYknAgxhhjjDGmJByIMcYYY4wpCQdijDHGGGNKwoEYY4wxxpiScCDGGGOMMaYkHIgxxhhjjCkJB2KMMcYYY0rCgRhj/4+9+46q4uj7AP6lSbkgoCIQjQUEo0TFgkSjgIgNUEFFmr0GjIoYSzTRJzEqxo6xIfaCUoxYIlYssXdFVGxYEEUpAkrn+/7BYV83oLGgN0+e+ZzDOezs7Ozs3nt3f7s7syMIgiAISiICMUEQBEEQBCURgZggCIIgCIKSiEBMEARBEARBSUQgJgiCIAiCoCQiEBMEQRAEQVASEYgJgiAIgiAoiQjEBEEQBEEQlEQEYoIgCIIgCEoiAjFBEARBEAQlEYGYIAiCIAiCkohATBAEQRAEQUlEICYIgiAIgqAkIhATBEEQBEFQEhGICYIgCIIgKIkIxARBEARBEJREBGKCIAiCIAhKIgIxQRAEQRAEJRGBmCAIgiAIgpKIQEwQBEEQBEFJRCAmCIIgCIKgJCIQEwRBEARBUBIRiAmCIAiCICiJCMQEQRAEQRCURARigiAIgiAISiICMUEQBEEQBCURgZggCIIgCIKSiEBMEARBEARBSUQgJgiCIAiCoCQiEBMEQRAEQVASEYgJgiAIgiAoiQjEBEEQBEEQlERd2RUQBOHjCA0NxYEDB1BcXFxmXt++feHs7AxV1U93LZaamorRo0dj9+7dmDJlCkaPHv23yxQXFyMxMRERERG4cOECNDQ0MHPmTNSsWfMT1FgQBOHjE4GYIPxLDRkyBEePHkVERATCw8Ol9KNHj6J79+5wcnLCH3/8ATU1tU9Sn6pVq2LZsmVo2LBhucHhXyUmJqJfv37Q1dWFv78/mjdvDicnp09QU0EQhE9HBGKC8C/m5OSE33//Ha6urlKaq6sr7t+/j82bNyM2NvaTBje6urrQ1dX923zJyclwdnbGzJkz0b17909QM0EQBOUQgZgg/IsdOXKk3HQjIyMAwNOnTwEAz58/R2RkJFJTUwEA7u7usLCwkC1TWFiImJgYxMfHo3HjxqhXrx6MjY2hp6cn5UlLS8PRo0dx48YNNG3aFO3bt3+vx58TJ06Eo6OjCMIEQfjXE431BeFf7PPPPy83/fnz5wCABg0a4OnTp2jXrh0uXbqELl26oFatWujWrRv27Nkj5X/x4gUcHBwQEhKCNm3aIDY2Fra2tpg1a5aUZ+vWrbC3t0d+fj5q1KiBoKAgdO7c+Z3rnJycjO3bt6Nz585YtWoVmjRpgsaNG2PEiBE4ceLEO5cnCILwj0ZBEP61vL29qaOjw+PHj/P48eOMiYnh4MGDqa6uzqlTp7K4uJjjxo2jhYUFc3JypOVGjRpFMzMzFhQUkCSfPHlCANy3b5+U58qVK7SysiJJZmdns2bNmgwICJDmv3jxgtra2oyJiZHVqUGDBpw3b95r63z+/HkCYPXq1env78+bN2/y1q1bXLJkCQ0NDblixYoK2TeCIAj/BOLRpCD8y+Xl5eHHH3+Upq2srLBx40b06tULKioq8PX1hYuLC7S0tHD37l3cuXMHDx48wPPnz6VG9ZUqVYKBgQHc3d3Ro0cPDB06FG3atMH+/fsBANra2pgzZw5at24tref+/fsgiRcvXrxXvb28vLBgwQKoqKgAAPz8/JCUlAR/f3907NgRtWrVet9dIgiC8I8hAjFB+JfT0dGRAqbyWFlZYfLkyRg0aBAUCgXq1KmDuLg4tGzZEpUqVQIAGBgYICEhAXPnzsXWrVuxadMmmJmZISgoCO7u7lBVVYWNjQ3mzZuH48ePo2bNmlBRUUFBQcF713v8+PFSEFaqX79+mD59Ok6dOiUCMUEQ/hVEGzFB+B9GEh4eHti1axeioqJw8eJFbN++HV27dpXlu3XrFh4+fIigoCBcv34d27ZtQ506ddCzZ0+cPHkS8fHx+Oqrr1BcXIw9e/YgKioKkZGR0NLSeuc6qaioQEVFBY8fP35tnrd5/YUgCMJ/AxGICcL/sOLiYmzbtg1t27aFtbU1VFVV8ejRI8THx6OgoAAkAQAvX75E3759kZycDFVVVbi4uGD16tXQ0NDArl27cPToUTx9+hT9+/eHgYEBACAhIQGFhYXvXCdra2vY29sjLCxMWn+psLAwVK1aFY6Ojh++8YIgCP8Aav/5z3/+o+xKCIJQ8Xbu3ImoqCg8ePAABQUFaNCggexVE0DJ3adjx47hzz//RFZWFiIiIrBmzRpUq1YNO3fuhJ6eHoyNjWFmZoYVK1ZgyZIl0NTURKVKlTBu3Dioqqpi6dKlMDY2xooVK/D8+XMkJSVh/fr1+P3333Hv3j1oa2ujRYsW0NHRwfLlyxEREQFTU1O0atUKOjo65da9QYMGmDJlCpKSkmBlZYWsrCxERUVh9uzZmDJlChwcHD7BHhQEQfj4VPjXS05BEP4Vzp07h6KiImm6YcOG5b5M9dmzZzhw4AAuXLiAL774Al5eXtDS0sIff/yBI0eOoF+/fmjYsCGuXbuGrKwsXL16FTdu3ICxsTH69euHqlWrSuuLiIgAAHh4eKB58+a4ffs2VqxYAYVCgZEjRyIoKEhar729Pbp06fLa+j9//hwbN27E/fv3AZR0CBg0aNBrX8khCILw30gEYoIgCIIgCEoi2ogJgiAIgiAoiQjEBEEQBEEQlEQEYoIgCIIgCEoiAjFBEARBEAQlEYGYIAiCIAiCkohATBAEQRAEQUlEICYIgiAIgqAkIhATBEEQBEFQEhGICYIgCIIgKIkIxARBEARBEJREBGKCIAiCIAhKIgIxQRAEQRAEJRGBmCAIgiAIgpKoK7sC/6v27NmDhISEMunVqlVDhw4dUK1atQpf59OnTzFw4EC0b98eY8aMqdCyCwsLsXHjRkRGRmLw4MFwc3Or0PL/W718+RIXLlxAUVER7OzsPvr6Hj58iHv37uHrr7/+6OtStoyMDOjr60NFRUXZVREEQXhv4o6Ykpibm2P16tWYOHEidHR0YGtrC11dXYSEhMDCwgJRUVEVvs6CggIkJSWhbt26FV728+fPce3aNfz555949OhRhZWbnZ1dYWUpw6+//opOnTohMjLyk6xv5cqVcHNzQ1pa2idZnzK1bt0ac+fOVXY1lOLx48do164d1q9f/9HWkZubi2PHjmHWrFkoLi7+aOv5EDk5OUhISMCcOXM+yfqePn2K4OBg5ObmfpL1fWrFxcVISEhATk6Osqvyv4WC0qxdu5bVq1eXpWVnZ7NVq1Y0MDBgRkaGkmr2/szNzbl48eIKKauwsJDffvtthZSlTPPmzePIkSM/ybpu3rzJ3bt3v/NyR48e5fnz5z9CjT6evn378uDBg8quxhvFx8d/lHIfPXrE1q1bc9q0aR+lfJJ88OABraysCIAFBQUfbT0fYvny5TQzM6OKisonWd+KFSsIgKdOnfok6/uUrl69yoYNGxIAjxw5ouzqVJi4uDh269aNX375JfPz85VdnXKJO2JKVN5dC4VCgcDAQGRkZODgwYNSek5ODo4fP464uLi/Lff27du4fv16hdZVGSZNmoSsrCxlV+ODVa5c+ZOtq169eujcufM7LxcWFoaXL19+hBp9POvWrUO7du2UXY03Wrhw4Ucp19TUFMeOHcMPP/zwUcoHgJo1a+LMmTPQ09P7aOv4UMOGDcPixYs/2fo8PT1x+/ZtNGnS5J2XPX/+vOyY/k9Tu3ZthIeHK7saFc7U1BRt2rRBXFwcSCq7OuUSgZgSPX/+vNz0w4cPQ0VFBdbW1sjPz8e8efNgb2+P8PBwBAQEwNnZGUlJSQCArVu3omPHjmjWrBkiIyPRtm1bNGrUCNbW1ggICJCVO23aNLRt2xbr1q0DUPKocsiQITA1NUVISAiCg4Nhbm4OU1NTNGvWDOfPn5ctv2rVKpibm8PT0xPNmjWDn58fXFxcYG1tXe52FBUVoWnTpjA1NYWpqSkcHR2lefPmzUPNmjXh7e2NunXrYty4cbLHkI6Ojpg9ezbCw8NhamoKW1tbad6NGzfg5eWFDh06oHHjxvD19UVGRoY0Pz09HRs2bMCIESNQVFSEFStWoGPHjrC0tMTixYsr/LFCUlISpkyZAn9/f0yaNAn37t17Y/6tW7di586d2L9/f5kD8549e+Dv7w9/f3+cPXu2zLJ37tzBggUL4O/vj5UrV+LAgQOy+SdPnsS2bdtkaYWFhQgJCYG/vz8iIyOxf/9+5OXlAQCePHmCYcOGITQ0FNHR0di/fz8SExNly8fExMDf3x/z5s0rExjHxcXh6tWrAICzZ89i//79uHv3rjT/6tWr2L9/P65du/bGffI+0tLSkJycLEt7+fKl9D26fv069u/f/0EH32fPnmH//v14+vRpufPj4+PLfAYAkJmZie+//x4XL1587WO9P//8E/v370dRUdFr13/48OEy2/gpaWtrQ1VVnCZK6enpwczMDJqamu+87OLFi//RFzsKhQJ16tRRdjUqXJUqVdC8eXNlV+PNlH1L7n/Z2rVrqa+vz9TUVClt48aNVCgU7NatG0ly9+7drFatGh8/fkyy5HFdx44d2bZtW5Jkeno6fXx8CIA9evTg+fPnmZmZyevXr1NFRYX79u2Tyt62bRurVavGpUuXSmX99ttvBEBdXV0GBwczOTmZN2/eZN26ddm3b19p2eTkZNauXZtHjhxhcXEx79y5wxo1arBt27b8888/pXyvPposKiri0KFD2aBBAx47dozZ2dkkSx7VWVtbMyMjg8XFxUxJSWG9evW4cuVKqZysrCz26tWLPj4+zMzMZFZWFkkyLS2NxsbGjIqKYn5+Pl++fMlx48axffv20rLnzp2jl5cXAdDAwICjR4/mmjVr+O233xIAt27dWgGfXol79+7RwsKCixcvZmZmJletWsV69erx+vXrUp7Q0FDZo8k9e/ZQS0uLTZs25bp160iSOTk5dHFxYY8ePbhmzRquWbOGlpaWHDhwoLTchQsXWL16dWl7Ro0aRVVVVf7xxx8kyfDwcKqqqtLW1lZa5uHDh7S0tKSvry/XrFnDiRMnUldXl0uWLCFJ3r17l8uWLSMATp48mWvWrOHly5dJko8fP2ajRo347bffcs2aNfTy8qKJiQkfPXpEkmzdujU1NDRoZmZGOzs72tvb09HRkZqamvz555/ZvXt32tra0sXFhRoaGoyIiKiQfZ6RkUFPT0/q6OhwzZo1JEseybZp04YKhYILFy6kl5cXK1WqRABs0KABL1y4IG1TjRo1qKenx6+//po3b97k/fv3aWdnRz09PWl/p6WlsUePHmzdujW7devGunXrMjAwUKpDWloae/bsSRsbG3bv3p2WlpY0MjJiQkICSXLTpk00MzMjAHp7e3PIkCHSsjt27GDDhg3p5ubGr776ivXr1+eOHTtk23j8+HE2bdqUXbp0oZ2dHR0dHaXvUFZWFmfMmMGmTZty1apVFbJPS+3fv589e/ZkzZo1OWbMGK5YsYIaGhplHk1u27aN/fv3l/7++qguNjaW06dP5759+/j48WNOnjyZ/fv35/Dhw2XHu4qwe/du2aPJp0+fyuoWGxsrzTt06JCUPnr0aL548UJWVmJiIseOHSvNv3XrFmfOnMmFCxeSJE+cOMHp06eXqcOuXbs4YMAA9u/fn6GhoUxLS5PmpaSk0MXFhQA4aNAgRkdH8+rVq7L5y5YtY//+/TllyhSmpKSUKf/ChQs8c+YMyZLvRmBgIGfOnCkdFytKdna29Gjyxo0bjI6OZnR0NBMTE8vNf+DAASlPYWGhbF5CQgJv3LhBkrx06RJPnTrFwsJCKf+r+4As2YfR0dHSb/VVMTExjI6OZlJS0mvrvmvXLm7fvv219QTAvLw8kmRubq7s3FieW7dufbKmDyIQU6KRI0dSRUWF2tra1NHRoY6ODt3c3Pjrr7+yoKCABQUFbNKkCdXV1enq6so+ffqwT58+1NfXp5aWllTO/Pnz+cUXX7C4uFhWvru7e5n2QnXq1JECMZJMTU0tNzjZtm2bbB2zZs2itbW1LM+sWbNoaGgoSysNxIqKiti7d2926NBBCiJLBQQElDmYzZw5k1OnTpWleXt7s3///rK006dP09raWvpBkWRSUhLr1Kkjy/fHH39QRUVFdoIoLi5mv379aG9vz4rSo0cPOjg4cNOmTdKfkZERO3bsKOV5NRB79uwZW7RowZ9++knWXmHixIn87LPPZO0CHz58SA0NDZ4+fZokOXv2bALg/v37pTxbtmzhsGHDpOldu3bJArHw8HACYGhoqJQWGxtLFxcXaTorK4sAZAE1SXbp0oVubm7Mzc2V/qytrenv70+yJJD38fFhnTp1uHPnThYXF7O4uJj9+/enkZER9+7dK30np0yZwoCAgPfYw2UVFxfzyZMnNDAwkAKx4uJiRkVFEQAbNWoknRgKCwvZtm1b2efx559/Uk9PjydPnpTSrly5Qnd3d2kbfHx8OGHCBKn+8fHxBMAtW7aQLPm8AEhBxd27d+ni4sK5c+dKZW7cuJGdO3eW1f3Jkyc0NDSUTgLFxcVcsGABdXV1ZfkaNGggBX7FxcXcsGEDDQwMmJKSwszMTIaHh9PIyIjLli2rkH1KlrR/0tPT48aNG1lYWMj169ezfv36ZdqIjRo1im3atOHz58+lE6u6ujrPnj0rbaO3tzf19PTYtGlTWlpact68edy0aRM/++wz2tnZVVidybKBWHZ2Nlu3bs2mTZty7dq1zMnJIUnOmDGDjRo14vnz55mens5Ro0axYcOGUjB28OBBamlpcfXq1UxPT+fs2bOppqZGGxsbHj58mMeOHWOrVq2oo6PDW7duSevz8/Oju7s77927x1u3btHZ2Zk2NjbSb/nJkycMDg6mqqoqJ06cyPDwcF66dIlkSYCgq6vLGTNmMC8vjzNnzqSuri4PHDgglR8YGEh1dXXa2tqyVatWdHJyore3N42MjGhhYVEmmPwQpYFYpUqV6OzsTG9vb3p7e1OhUHD16tVSvgsXLtDOzo5+fn4MDw9nly5d6O7uzqKiImZlZbFVq1ZUU1OjlZUVGzRoQC0tLaqoqHDBggXcsGEDq1evzgkTJsjW/fvvv7NWrVocPHiwlPbs2TPa2Nhw2LBhDA4OpoWFBfX09GTnlBkzZtDCwoKbNm3iuHHjaGFhwZCQEFnZpYHY2rVr2bNnT3755Zc0NTWllZWVdHwttXbtWlpaWtLHx4fe3t6sV68ely5dWub8WpFEIKZE5TXWf1Xpj+Lv7iSUBmJ/1aNHj7cOxP76ZYyOjqampqY0PXfuXH7++ed89uyZlNa9e3c6OzvLljM3N6evry9btWpFDQ2N1zaOzM7O5qpVq/jjjz/SxcWFhoaGbxWIkWRBQQHj4+MZGhrKZcuW8csvvyw3EFNVVS2z7KRJkzhx4sRy6/Q+VFVV2bFjRw4ePFj29+oJOTQ0lO3bt+eCBQtoYWHBqKioMuU4Ojpy/PjxZdLt7Ow4aNAgkiUHdBMTExoYGHDAgAHcuXOndJex1OXLl2WBWFJSEuvVq0dNTU16eHgwPDycz58/l111lheIJScnU6FQlLttP//8s5TP19eXffr0kdVh8uTJZdJCQkIqLBArZWJiIgViZEngCoB79+6V5du8eTMNDAxkaU5OTvzuu++k6enTp0sN6y9fvkwA/Prrr6WLHy8vLxoaGvLHH38kSS5dupQA2LdvX+7evZv5+fm8ceOGFKiRJXdfunTpIlvv06dPGRAQILuTERYWRoVCIcvXuHFjNmzYkIsXL5ZO6Fu2bJHuMJBk7dq1KywQy8/PZ/Xq1WXfW5I8fPgwVVRUZIFYhw4dZIECSdrb25e5G1GvXj1269ZNdgy4ePEidXV1X3uH5X28Gog9f/6cnp6e7Nixo2wfJyYmEgADAgIYGhrK0NBQ/vjjjwQg7cOePXvS1dVVVnadOnVkTwZSU1NZo0YNaTohIYFaWlrSnVDy/7+HV65ckZWlrq5e5s7nuHHjZIEHSbZv357jxo2TpQ0aNIjm5ua8ePGilBYfH081NTU+fPjw73fSW3rdOWf69OnSHaXi4mL26NGDgYGBTEtLk/50dHRk3x8bGxuamppKFx0xMTFMTk4mSX7//fdlAjGy5Fz26v6YMmUKzc3Npd9AUVERPTw8pDvBd+7cYeXKlWX75eDBg9TX1+eTJ0+ktNJA7IsvvpCC4BcvXrBdu3b85ptvpHy3bt2iioqK7C7q9u3bZRddH4N4j9g/mIqKCrS0tMp939in5ufnh99++w3Ozs7o06cPzp07h8TERCxYsKBM3tOnT6Nz5864fPkyvLy8sGnTJlmbivXr12Pq1KmwtraGh4cHHB0dMW/evLeqR2JiInx8fJCbm4u2bdvC3d0dP//8MwIDA996W4yNjd8679sICAhAly5d3pjnwIEDuHLlCnJzc3H69Gl0794dampqf1u2iYmJ9H/16tVx4sQJhISEICIiAuvWrYORkRE2bNgAJyencpf/7LPPcPToUYSGhiIsLAwRERGoXLkyli5d+tq2fUBJO7wXL15g8+bNMDQ0/Nt6/lWDBg3eeZmK8uo+e53Ro0ejX79+mDp1KgDg0KFDmDRpEgDg6NGjAIDw8HB89tln5S7v4+ODvLw8zJo1C+vXr8eXX34JT09PjB8//o3rrVatGn7++WdERkbi7t27OH36NO7fv18m3+rVqzF27FiMHDkSU6dOhbOzM8aMGQNLS8u/3bb3cfjwYeTk5GDQoEGydDs7uzKdTfbu3Su9CuePP/5Abm4ubty4UW65HTp0gIaGhjRtbGyM6tWro3bt2hW+DSdOnMCECRNQu3Zt7NmzRzYvIiIC6urqKCoqwqVLl6T0kSNH4ssvv5Sm9fX1y5T7ura8AGBhYYEDBw7AzMwMaWlpyMnJwY4dO966zsOHD4eWlhaAkramBQUFePDgAZo1a1Ymb/PmzWWdBBo0aABzc/O3Xte7+Osx8ptvvsG0adOwc+dO1KhRA1u3bkX16tWxZcsWKY+hoSHy8/Nly/n7+0vHpk6dOknpJiYm5b7myNjYWNYhzdHRETNmzICLiwsCAgLg6OiIhQsXSu1AK1WqhKlTp8r2S926dVFYWFhue7wDBw5Iv2kdHR04ODhg165d0nw9PT189913cHBwkNLK+05UNBGIKdHfvSNLR0cHLi4uCAsLw9ixY6Vg5sWLFzhw4AC6dev2wet4W3v27EG3bt3g4+ODP/74Ay4uLpg3bx6qVKlSJm9AQAD8/f3h5uaGbt26wdfXFxs2bICWlhYePXqEb7/9FlOmTMHYsWOlZWJjY9+qHoGBgcjPz8fp06ehrl7y9b1z5847bUt5jeDfl66uLhISEv42EGvTpg12796Ne/fuSb0aZ8yY8bcNobOzs6XA4tSpUzAyMsKMGTMwY8YM7Nq1Cz/99BP69euHEydOlHtyu379OnJycvDDDz9g3LhxOHr0KGbNmgU/Pz84ODi8NtDQ1taGmpoadu/eDR8fn7fZFTIxMTFSYPNP5ODgAHV1dWzbtg35+fmy3pelgeebfjv5+fkYMWIE+vfvj9jYWERERGDmzJlISEiQOsOU59ChQ+jbty8aN26McePGwcfHB0ZGRqhVq5Ysn6WlJWJjY3H+/Hls3boVK1euxKZNm7BhwwZ4enp+4NaX9fTpU6irq8PAwOCN+QoLC7Fo0SJs3LgRGhoasLe3R/PmzVG1atUKr9O7IIlevXpBW1sbSUlJuHXrFurVqyfNv3TpEjQ0NBAcHPzaMoYPHw5nZ2e0adMGjo6OOHHiBDIyMmTHqfI8fvwYdnZ2IAk7O7t36umtr6+P+fPn48qVK3jx4gVsbGykjjT/JFWqVJEuHC9fvoyqVasiPj7+o3/u9vb22Lt3LwICAuDp6QlDQ0N06tQJK1asAADUqFED9vb2mDVrFnbs2IE6derg3LlzKC4uRmFhYZny/u5F6dWrV8cPP/yA1atX4+7duzh79uwneSej6A6jJImJiQgODsaLFy+kK/DyjB07Funp6ejZsyeOHj2KixcvYsCAAdIBMzU1FWfOnMGzZ89kAcb9+/dx4MABhIWFSSeU5ORkKYgp7clV2sPvxIkTsvWeOHECJJGZmQmg5AQSFhaG8ePHgyRSU1Px4MED2TKPHz9GXl6e1N2xgNsAACAASURBVIPR0dERW7duRVRUFPr06YOcnBykpqYiJycH2dnZIIm7d+9izpw5mDNnDuLj42Xl6evrIy4uDllZWUhJScHjx4/x8OFDqKioSFep27dvR8+ePfHo0aNye+b99Wo2Pj4eCoXitfv7XXl4eGDmzJmyq+wlS5Zg9erV0vS1a9dgZmYGXV1dWFlZYc6cOZg7dy6+//57qUdfz549ER4ejidPnkjLnT59Gnv27EHPnj0BlJwse/fujZSUFACAi4sLvvvuO6SkpMiWe1VRURGGDh2Khw8fQlNTE05OTggLC4O6unqZz/xVLVu2RKtWrbBo0SLZPrx16xY2b978t/ulvDti+/fv/9vl3kWLFi3ee1ldXV14eXnh559/RnBwML799ltpXvv27VGlShVERETIlklKSpLutMyZMwdLliyBgYEB3N3dsWnTJkydOhVbtmx5Yw/RX3/9FdbW1ti6dSscHBxQv379cu8m9e3bFxkZGWjWrBl++eUXxMXFoW7dujh58uR7b/ObGBgYIDMzE/v27ZOlZ2VlyXp1Hjp0CN9//z3GjBmDEydOICgoCB4eHvj8888/Sr3exbVr13D9+nV06dIFnTp1wq1bt6R5Tk5OIPnGIEldXR12dna4d+8ePD09ERcXh6NHj75xRIywsDAMGTIE48ePx7FjxxAUFPTWFyA5OTlwcHDApUuXEBoaigMHDiAoKEgWQP5TZGVlSecMfX19pKamynpHv6u3PRY8fvwYrVu3xqVLlxAXF4devXph586d8PX1BQBs27YNHTp0gKamJpYtW4b169dj7969UCgUMDU1fed6xcXFoVGjRtixYwfat2+P1atXY9GiRe9czjv7aA89hTfauXMn58yZwzlz5nDBggVMT09/bd5Hjx5xzpw57NSpE7/55hseP35cmrdt2za2bt2arVu3lvWw69q1q5S+YsUKZmZm0svLS0qbO3cuExMT6eTkxNatW9Pe3p6///47SXLVqlVs06YNW7duTU9PT6akpDA/P5+WlpZs1qwZW7duzerVq1NFRYX169fn1q1b+fjxY7q4uLB169Zs3749586dy4KCAvr4+Ejr7N27Nx8/fsyVK1eyevXqrFu3Lm1tbbl161ZGRUXR3NycZmZmUjuK69evs169ejQ1NaW9vT137drFW7dusUWLFjQyMqKNjQ379OnD+Ph4Nm/enA0aNOD69eu5f/9+9ujRg/Xr12f79u2lhp2//fYbNTQ0qKWlxcGDB5fp5fM+MjIy2LVrV+rr63PQoEEcMmQIJ0yYIJW9Zs0a6ujoUFdXl0FBQVKaQqEgAHp5eTE+Pp6FhYUcPXo0raysuGbNGk6ePJnm5uayNhfp6ek0NTVlvXr1GBQUxEWLFrF58+ZSO7rY2Fh26NCBmpqaHDFiBF++fMni4mJaWVlJDbt3797Ndu3asWXLllIj5tLP1s7OjmPHjmWvXr2YmprKK1eusGHDhrSxseHYsWPp5+fHzp07S9/V7du3U19fnwYGBtJndvToUdaqVYuWlpbSC2KvXr1KKysrVq5cucJ6Ie3du5cKhYKDBg3ijRs3WFBQwG3bthEAg4KCpHYzN2/e5PDhw6mrqyv1Oit19uxZqqurs1+/fmXK37BhA/X19TljxgweO3aMYWFh7NKli9QW6PTp09L8p0+fMiUlhb6+vmzSpAlzc3NJlrQR09HR4aFDh3j48GFGRkbym2++Ya1atRgTE8Njx47xt99+o76+PjU0NGS/aw8PDzZt2lS2D+vWrSu1z8vOzqaJiQlnzJhRIfuzsLCQX3/9NVu3bi2130pMTGTfvn0JQPoNbdq0iQYGBoyLiyNZ8v2fNGkSVVRUynTAqVevHhctWiRLu3r1KvX19d/Y++1d/bWx/vPnz9m4cWOamZlJjeqzs7NZtWpVjh07ls+fP5fSJk6cyGvXrpEk9fT02KNHD0ZHR/PYsWPlNoJPTU2lkZGR1P5s7NixtLGxkX7vBQUF/OGHH96qjdilS5cIQPYC7MuXL7NWrVrlthHr3bu3LO3Fixf8/PPPP0obsW3btsnSJ06cyCpVqjA7O5svX76kmZmZrBcxWfJ9j4mJkaZtbGxe+8LhGTNmlGlffPPmTTZr1kzWRmzBggWyNlwkuWjRIn722Wckya+++oqtWrWSzY+OjiYA2e8pOTmZOjo6sk5eJPnTTz+xZcuW0vTgwYPZunVrWZ6YmJiP3kZMBGLCW1m6dCnHjRsnHXAyMjJ45swZBgYG0szM7J3Ly8jIYHJysnTSIksajScnJ8sCpJcvXzI5OVnW4DcvL4/Jycmy4DU7O5vJycmyxus5OTmy8kvzJCcny7qXf6iioiLeuXOHS5YsYUJCgqz+6enp0jqfPn1KsiTAXLJkifRXeuIrLCzkjRs3pPTyurE/e/aMycnJXLVqFZcsWSL1VCNLejK9Wm7ptqenpzMxMVFKDwsLK3OSSU5OLlMfsmQflqavWbNG1gC6tA5LliyRGs9GRERIaaUnnZiYGClt06ZNH7SvyZLvzvLly+nq6srg4GDu3buXmZmZdHJykv5KOx7Mnj1bSvP09CxTlr+/v6wB/Kv27dtHZ2dnOjk5cfDgwbx586Zs/tq1azllyhT26tWLPXv25NChQ3n37l1pfl5eHv39/enk5MRBgwbx5s2bTElJ4ahRo6Q6hYWFMTk5mRMnTmS3bt3466+/SvssMDCQ7u7u7NOnD11dXTl9+nTm5eUxKSmJnp6edHJyoouLC+fPn//B+7R0v7q7u1OhUNDExIReXl4cPXq01BO19Pfl6upKXV1durq6slWrVpwwYQL79+/PypUr08/Pj6dOnaKvry/V1NRobm4uvSrlxIkTrFevntQR4tXG1O8rIiKCxsbGBMDu3bvz6tWrPHDgAFu2bEkArFu3rhQMXrhwgQ0aNGDLli3p5+fHxo0byxplR0ZGEoD0V61aNVpZWTEkJISFhYU8ffo0O3XqRABs1aoVk5KSuGPHDqmHYemFyk8//cQ6derQ1dWV+/btk36Hzs7OtLa2pp+fH7t27co7d+7QxcWFlStX5pAhQ9itWzfa2trSzs6O1atXZ2RkJO/evcvNmzezcuXKNDc359q1a0mWHBeHDRtGAHRycpJ97z5EdnY2K1WqRGtraw4bNozh4eH08PCgqqoqo6OjpXyHDh1ilSpV6OjoyOjoaAYEBNDd3V26uDty5AirV6/Oli1b8tChQ2XWc/LkSVapUoW+vr708/Njz5492aJFCxobG7Nx48bS639u3bpFfX19TpgwgRcuXODFixdZv359DhgwgGRJIGxsbMzly5dz3759/OWXX9i8eXMC4IoVK6T1lfZy3rlzp5SWmJjIDh068IsvvuD9+/dJlvQILu05vG/fPk6fPl26aA4LC6uQfVweFfIf+qpZ4R/F1tYWv/zyCzp06CBLv3btGpycnKQXzAqC8N+LpNSUQaFQoLi4WBp3sPQN+8XFxXjx4gUAQFNTE5UqVQJQ8lgnPT0dX331leylyerq6tDW1kZBQYEsXaFQfPDLYnNzc1FQUCBNa2tro7i4WNbOSk1NDTo6OgBKXmIdFxeHu3fvolOnTrJmChEREdi5cyd+++03ACWPz44dO4aoqCj06NEDQUFB5dY/Ozsb0dHRMDExwddffw0tLS08efIEMTExqFKlClxdXaGiooKCggIcPHgQGRkZcHV1hUKhQFFREY4fP447d+6gZcuWsLCwgJqaGnbu3Im0tDR07doVN2/elEZKMTc3R5s2bZCVlYWtW7dKdWndujUsLCw+aF8CJW0AT5w4AVtbW+zevRsRERGoW7cuPDw80KhRI6ioqEh5Hz9+jC1btuDgwYNwcXFBv379oKWlhfz8fISHh0uPtKtXr15uG9oLFy5g3rx50NDQgIeHB5ycnLBlyxZERETAxMQEy5cvB1DyAuysrCxcunQJDx8+hJubGzw9PaGmpobi4mKEhoZi165dMDU1hYeHB+zs7LB8+XIcOHAA7du3h4ODA86fPw+S0NDQQLt27WBqaop9+/ZJL322tbXFuHHjAABBQUFSMx83Nzf06tUL69evx4EDB6BQKN7YBvR9iUBMeCtLly7F/PnzYW1tDWdnZ6SlpeHkyZO4cuUKFixYIOsRIwiC8N9GV1cXWVlZsmADAHbv3o2QkBD8/vvvSqqZ8G8nAjHhrWVmZso6Fnz22Wdo2rSpEmskCIJQMRo2bAhHR0eMHj1a6l23Z88ezJo1C5MmTYKHh4eSayj8W4lATBAEQfif9+TJE4SGhsp6IFetWhVDhw597WteBKEiiEBMEARBEARBScR7xARBEARBEJREBGL/pVJTUzFmzBiYm5vj9OnTyq6O5N69e7Cysnrjy0L/l4SHhyM8PFyWdv78eVy9evWT1uPx48c4f/78J12nIAiC8PdEIPZf6vnz59DQ0MCdO3dkXaqVrbT7cnp6urKronR+fn7w9PTE3r17ZekeHh4ICAj4ZPUYMGAA6tevr/TGxvPmzUODBg3QsWPHCi/75cuXGDhwIExNTd/4ZvvyjBo1Ck2bNn3jCBf/BElJSdi/f3+5f8p06NAhjB49Wql1ED6NV8eBFCqOCMT+S5mZmUkDFv+TGBsb48qVK3879uL/gkWLFsHNza1M+saNG8sdLP1jWbp0Kf7zn/98svW9zjfffIM2bdogNTW1wstWV1dHkyZN8Pjx43LHmHsTGxsbAEBUVFSF16sivXjxAjExMejQoQNGjRqFRYsWYdGiRZg8eTIMDQ0xY8aMT16ndevWYcCAAViyZMkHl5WVlYXKlSuX+/fX4ab+F02ePBk//fRTmfSNGzdiwIABZb73SUlJ6N27t/QeuA+xZs0aVKlSBUFBQR9c1sdy8eJFdOjQAZaWlqhevbpsiKt/OjHotxIVFRXh8OHDePLkCRwdHWFgYIBKlSrJ3mNTUFCAhIQE5Ofnw8rKSnp5Ynlllf4Q1dXVpQFaS5FEfn6+NF06gPhf5efnS+MfampqoqioCCSlAbYLCwulF/WpqqpCQ0OjTBnq6uooLi6W1aGgoADq6upQUVGR1vFqHQoKCkDytdtXUFCA4uLicretPHl5ea/dxk9FXV293P3z1VdffdJ6aGtrQ0tL65Ouszw6OjqoW7fuR3lEWqlSJXh4eGDMmDHvvGzfvn0REREhezHoP5GlpSVGjRqFuXPnIjIyEg0bNgRQ8tv29vbG5MmTUbt2bWkcvk+hX79+MDQ0RI8ePSqkvK+++gpDhw4tk25ra1sh5X9KYWFhcHR0hLGx8QeXdebMGYSHhyMhIUGWPm7cOISEhCAzMxPLly+XjtNAyYDYCoUCO3fu/OC74f369VP6nde/06dPHyxbtgw2NjbSmMj/LcQdMSW5e/cuWrRogejoaKirq8PNzQ1aWlqygVRXr16Nxo0bY8eOHYiNjYWVlRWOHz9epqyJEyeiY8eOGDFiBNq2bYtmzZrhypUr0vwLFy6gV69e6Nu3L0aMGIGaNWti0KBBssCsqKgIP/30Exo1aoQRI0bAxMQELi4uaN68OTp37gyg5J061tbWGDx4MHr06AFLS0ts3LhRKiMtLQ2enp6oV68e1q9fDwBISEjAwIEDYWxsjNDQUHh6eqJWrVrQ1tbG8OHDcfHiRQwcOBD16tWDsbExgoKCpMFlgZK7AD/++CO++OILmJqaokWLFpg/f770IyOJyMhIuLq6Yu3atfjzzz/h4eEBPT09ODs74/Dhw7J9lZOTg0WLFsHX1xd9+/aFh4cHYmNjP+SjlOTm5iIiIgK9e/fGoEGDsHv3btk+BkrexbZ582bExMRIaU+ePMHKlStx5swZPHjwALNnz8bAgQPxxx9/AADS09MxefJkeHp6IjIyUrZ/SucvXrwYrq6u+O6773Dq1Kkyef7qxIkTWLlypfRXOjJCSkoK5syZA1dXVyxduhSrVq2SApRdu3ZJ+Uvfvg4ABw4ckNKfPXsmW09GRgZWrlyJ9evXlxmA/UMVFBQgPj4eK1euxLVr114bSOXn5+PixYtYuXIlbt++LRvE+k0KCwtx7do1rFy5EvHx8eWW/+LFC2kA+/T0dKSnp8vuQGRkZGDfvn3Sm+gryqsXayoqKlizZg0AlGkvmpGR8dGbCfz1BajvKzExEe3bt4eHh0eZv1q1alXIOj6VZ8+eYdy4cbLfyYcIDg5Gjx49yuzr2bNnIzo6+rXL+fv7Y+HChR8clKiqqlbY5/wxPHr0SBqdQFNTEwsXLqyQkQY+mY82eJLwRqNGjaJCoZDGIcvOzmaXLl24cOFCkiUDoFarVk02iOrWrVtpYGDA5ORkaRkAHD9+PDMzM6V8vr6+rFatGsmSsQLNzc05atQoaX5qaiq1tbUZGRkppU2cOJFGRkbSGF9Pnz6lQqGQBlx98OABFQqFNDA4Sa5YsYLa2tp88OAByZKxIiMjI6lQKLh69WqSJQOWL1y4kABoYWHB5cuXMzc3l8HBwVRRUaG+vj7nz5/P58+fMyoqiurq6jx8+LBsWzw8PKTpM2fOUFdXVxr3rLCwkCtXrqSpqSlNTU3ZsWNH7tq1i7GxsWzWrBnr1q0r2++enp50d3eXxq6Mjo6mhoYGL1++/JafXPmysrLYvHlz1q9fnzt37mRsbCw9PT0JQDaIbd++famrq0snJyeSJYMEN2/enJqamqxVqxabNm3KkSNH0svLi6qqqrS3t6eVlRVHjhzJkSNHslq1arJBgm/cuMHPPvuM8+fPZ2xsLLdt20YTExP+8ssvsvotWbJENibolStXqFAo2KhRI27cuJGpqal8/PixtP7Y2FjOnTuXurq6nDNnDkny/PnzHDFiBAHw3r17srImT55MADx37pyUvmrVKioUCvbu3ZurVq1iixYtaGZmxmbNmn3QviZLxkW0s7OjoaEhv/32WzZt2pQNGjQgANlnefXqVdrY2NDDw4MjR45k+/bt6eTkJBunlCS7du1Kf39/afru3bu0t7dn165dOXLkSDZv3py2trZ89OiRlGf06NE0NTVl06ZNOWbMGFarVo0mJiasXbs2o6OjOXLkSBoZGbFKlSqsWbPma8e0fBf37t0jAMbHx8vS09LSCED6nd+7d48jRoygu7s7e/XqRVdXV9mA0+T/j4Xp4+NDX19fDhgwQBoztNSlS5c4fPhw9unTh+7u7pw+fTozMjJkeXbs2EF1dfUP3rY1a9Zw06ZNfPjwIR8+fFghY1G+6smTJwwMDKSHhwc7duzIxYsXS2OnJiUlMTg4WPo7duwYyZKB4UvTSo/FWVlZXL9+Pbt168aePXty8+bNsrFbL168yBYtWhAAp0yZwuDg4DKf17syMDDg5s2by50XGxtLALJxdV+ti5qaWoUMDN6nTx/6+vqSLPl+BQcHc926dbLxZ69fvy7tr9KB4l/NHxwcLA2yTpL5+fl8+PAhs7OzmZOTw6ioKO7YsYMXL16U8pee70gyISGBwcHBvHDhgjSAd15eHjdv3kwA/PPPP6XxLj9Edna29D189dz6sYhATEk2bdpEAGzSpAmDg4OZmJjI7Oxs6cs7YsQIqqqqsmvXruzTpw/79OlDe3t7WlpacsuWLST/PxB7NXAhyaNHj1JVVZUHDx5kQUEBZ8+eXeaHqKurKwvEbGxsOHToUFkeDw8PNmnShGRJYNajRw/Zj/3Zs2cEwAMHDsiWMzU1lQIxsuQgB4CXLl2S5atUqZI0iG0pS0tLBgcHkywZTNve3l42UCtJ1qhRg6GhobK0r7/+miNGjJClRUZGUldXV5bWuXNn7t27V5ou3YdHjhzhh1iyZAmrVKkiO/iQZPv27WWBGFkyUG1pIFbK0dGR7du3lx3Qu3fvTisrK1nQMHr0aNra2krTfn5+tLGxkZU1fvx4Ojg4lKlfaSCWk5PDXr16ceTIkXz27JmUZ/ny5QQgG5j70KFD7NevnzQdHx9fJhAjyZSUFFkgdu3aNSoUCq5cuVLKk5eXx+7du1dIINa1a1d++eWX0kG6oKCAU6dOLROI1alThz/++KM0nZOTw3r16jEkJKRMea8GYm5ubuzWrZs0XVhYyJYtW3L69OlS2oULF9itWzdWrlyZixcvZkZGBnNzc9m8eXNqaWnx559/ZkpKClNTU2lvby9d1HyI0kDs9OnTUlpycjLt7OyopqbGmJgYpqam8osvvmBQUJCUZ+/evVRXV5cNEt+/f3+2bNmShYWFLC4u5oYNG6ivr8+4uDiS5PHjx6mhoSH9/lJSUujj40M3NzdZnSoyEANAQ0NDWlpa0tDQkC1btuTy5ctZXFz8QWXfuHGD1atX5/bt25mZmcm4uDh26tRJ9hlv2bKFAOjp6SkNAp2ZmckePXpw6NChvHXrFlNSUtiiRQv+8ssvPHXqFE+dOsUOHTqwV69eUjmPHz+WLj6joqJ46tQpPn369L3rfubMGaqpqfH8+fPlzn9TIEaSn3/+uWwA7PfVp08fNm3alMOHD2fz5s05YcIEWllZsVmzZtJx69mzZ5wxY0aZ72hGRgYXL15MPT09DhkyhGTJ99be3p4A6ObmRhsbG5qamrJSpUqMjY3ljz/+yEqVKvHXX3+Vynn69CkDAgIIgCdPniRZ8pvw8vIiAPr4+Hxw0Lty5Ura2tpywoQJ9Pf3Z+PGjcucbyqaaCOmJN7e3tDX18fChQvx/fffY9y4cXBzc8Ovv/4KoORxk6ur6xtvO79OmzZtoK2tjfT0dKirq2PUqFH4/fffER8fj5iYGKipqZXpadmgQQPs2LEDGRkZMDAwwPPnz7F//34MHDgQAFCtWjUsXrwY4eHhuHXrFrZv314hja4NDQ1fO09VVRWHDh3C7du3ERERgbi4OMTFxSElJeWdyyq1e/duJCUl4eLFi9i+fTtu37793nV/1ZYtW+Dl5VWmPUiVKlXeuozmzZtLgxMDJdvz5ZdfwsDAQJb2qu+//x6qqqooKCjA1atXkZmZiT///PO1be3OnDmDoUOHwtnZGdOmTZO1t+vduzfmz5+PwYMHIyQkBB4eHvD29sb06dPfehtKhYSEwNTUFH379pXSKlWqhJYtW+LBgwfvXN6rrl+/jj179mDPnj0wMTEBUNIeb+jQoWUaM/v5+cHV1VWaVlFRgYqKSrmP617dz8bGxmXaWqmoqCAtLU2atra2hpGRETp16gR/f38p3c3NDaqqqvjxxx+ltLf5br6Lrl27wsjICEBJI/eqVati3bp16NSpExITE2FiYoLhw4dL+du2bYvCwkJkZWVJaZcvX8bNmzcRHR0NR0dH+Pr6onLlytJjrIMHD8LR0VFqmmBkZIRWrVph4cKFFbotpbp3744rV66gWrVqMDExwc2bNxEaGgp/f38oFIoPavu2du1afP755+jatSsAwMrKChMnToSLiwvS09NhaGgIDw8PrF+/HnFxcfj8888BlAx0npeXh59//hkmJiYIDQ1FZmYmAgMDoa2tDQAYP348OnTogKKiIqipqcHY2FjaZ02aNIG5ufkH7ZfMzEwUFRXBysrqg8qpCA8ePMCYMWMwd+5cKBQKjB49Gg0bNkR0dDS8vb1RtWpVjB8/Hlu3bsXZs2eljjD6+vrw9/fHwYMHpbJMTEwQEhKCr776Cvfv30d4eDgMDQ2xe/duODg4wMHBocz4ntWqVcPUqVNlnZ1q1aqFGTNm4Pfff8fq1atfe+x7G1euXMHQoUOlTjFASdOL7t27o1evXtDX13/vst9EBGJKcvPmTTg7O8PZ2RmPHj3Cli1bMHnyZCQlJUltlk6ePPleZWdkZEjtYB48eAA3Nzfk5OQgMDAQYWFh0NbWhqWlpWyZ0aNHY926dWjXrh3at2+PLVu2oFOnTpg2bRoA4MaNG+jUqRMsLS3Rp08fREVFIT8/Hw0aNPiAvfBmJBEQEIAdO3bAy8sLHh4e6N+/f7nt5N5GTk4OJk2ahKioKHzzzTewsLBAz549sW7dugqpb+XKlSuknHehpaWFESNG4P79+1BTU0P79u2hqalZbpuQ+/fvw9vbG7m5ubhz506ZPAYGBjhx4gSWLVuGjRs3YsSIEfjpp58wZcoUjBgx4p3qtWfPHpibm5fbWeFDnT17Fvn5+fjiiy/+Nu+QIUOwbt06TJ06FXFxcWjSpInUHu6vHB0dpf9nz56NDRs2IDo6GtHR0ahXrx5u3LiBNm3aVNh2fIigoCDY2dkBABQKhewCoE6dOoiNjcW5c+dw6tQp3Llzp9xjSenFQ8+ePWFqaooBAwZg6NChqFu3LgBg7NixGDlyJO7evYvz58/j9OnTuHjx4kfbJgMDA1kwbGFhgVmzZuHBgweYNm3aBwVikyZNwujRo/HkyRPcvn0bsbGxOHjwIF6+fCl1clJRUcEPP/yANm3a4NChQ3BwcMC5c+fQsGFDKeD39PSEu7s7tLW1cfHiRbx8+RJr1679sA3/L9KpUyfZxZWpqSn09fWRmZkppampqUGhUKBFixblltGoUSPpf0tLSxgaGmLIkCFSwPo+n3PdunUrpEOSpqYmFixYIAVhQMlx/cWLF2/dtvR9iEBMSZYsWQIVFRXMmzcPn332GcaMGYMHDx5g/vz5yMzMhLW1NcLDw3H48GHY29vLluvXrx90dXWltL/eIVq+fDlyc3NhbW2NmJgYJCYm4uLFi9JVXmpqquxLlZubi2nTpmHChAno27cvjhw5gqioKLRs2VLKExISAl1dXezevVu6i/Khdzb+zs6dO7FkyRIcOXIErVq1ktLfptdkebZt24ZVq1bh7NmzUkPOimxEfenSpbfOa21tXSHr7NChAypXroy9e/dKgeCECRPKfclvjRo1cPHiRdy+fRu2trYYOnQoVq5cCVXVkj479+7dQ2FhISZOnIjAwEBcu3YNkydPxpgxY+Do6PhOQbeFhQWSkpKkuwQV6W0b4aalpaFTp04wMjLCt99+CxsbGxgZGaFx48ay9DRmRwAAIABJREFUfCTx9OlTaTo7Oxs9evRAbm4uAgMD8d1338HQ0FB2Z03ZbG1tYWZmVu68ly9fwsvLC7du3cKwYcPQu3dvjBw5EnXq1JHls7CwwIkTJ3D16lUsXLgQK1asQEhICEJDQ+Hm5oZLly4hMDAQeXl5GDhwIBwdHVG1alWsWrXqo2xTXFwcvvzyyzLpX3/9NbZs2fJBZb948QKDBw/G7du3YWFhgc6dO5d758TGxgYuLi7YsGEDHBwcsGzZMtmdTS0tLUybNg1HjhxB3bp1YWdn99q73jVr1pTuWgr/r6I7rgDA0aNHZcHg+7K0tISenh5CQkJw7Ngx7N2795P0pha9JpXEw8MDCxYswIgRI3D16lUkJCTg5MmTaNeuHRQKBQICAtC5c2e4urpi1apV2L59O/r06YOsrCwoFApZWUOGDMHatWvx8OFD/PLLL/jll1+wfPlymJmZwdTUFBkZGVKvqi1btsDe3h45OTk4e/YsgJIekykpKViwYAGGDRuGU6dO4dSpUzh37py0jpycHCQnJ+Pq1at4+vQpli1bJt1BSE5OlvKlp6cjNzdXllb6/6NHj6S0J0+eoLi4WJYvMzMT2dnZUlpubi5UVFSkH+6NGzfg6+uLR48eyZbLy8tDWlqaLK1UYWGhFKjeuXMHGhoayMvLk+pV+vimvGXfxfDhw3Hs2DFpnwIlb9B/dbpUcnKy7MWIBQUFskDg1Xx/59q1a/D09JSCsBs3buDIkSPl5lVTU4Ouri6aNGmCLVu2YOPGjdKjZ6Ck11rHjh2RnZ2NSpUqoUmTJhg4cCAKCgrw8OHD19bt4cOHskdzQMn3++zZszh27Ng7b9PfsbCwgJGREUJCQt5YdmhoKM6ePYuoqCg4OzvDyMgIL168KHPALioqkt0xioyMxP79+7Fx40a4u7vDxMQEampq7/0ZfWqDBw/G5cuXcfz4cQQEBKBly5blvkKhXbt2yMnJQdOmTbFmzRrcunULRkZGmDx5MgCgf//+qF27Nk6cOIERI0bA2dkZenp6H6XORUVFaNasmawXdqm0tDSYmpp+UPn9+/dHRkYGzp8/j+joaPj5+aF58+bSibeUqqoqfH19sXr1aqxZswZ5eXnSBSwABAYGYteuXdi2bRvCwsLg5+cnPe78q2rVqinlLrmyZWdn4/r166+df+fOnQpf56uvXfoQp0+fRv369XHt2jUMHz4cCQkJn+b9gh+1BZrwWsXFxQwPD2d4eDhHjhxJHx8frlq1itnZ2VKe/Px8rl+/nt7e3vT29ubWrVtlZRQUFDA6OpqZmZmcNm0afX196e3tLWuMTpIhISFs1qwZW7RowRkzZvDmzZs8efIkzc3N2bBhQ167do1Xr16luro6u3XrRkdHR2pqalJNTY3m5uaMiYnh8+fP6enpSW1tbbZq1Ypz5sxhXl4ev/32W2ppabFTp068d++eVAcfHx/+9ttvPHz4MH18fKS0nTt38urVq/T19aW2tja1tLQYGxvLJ0+e0NfXl1WrVmXNmjW5adMmFhUVceTIkdTS0qKOjg69vb0ZHh7OyZMnU09Pjz4+Pnz06BG7du1KTU1Namlpcfbs2STJPXv2UFtbm5qamjQwMOD169eZkZFBDw8Pamtr087OjnZ2dgwPD6efnx8bNWrEPn36MCkp6b0/06CgIBoZGdHDw4MODg5s06YN69SpQ01NTfr5+ZEkAwMDqVAoaGxszFmzZjE/P5/du3cnAOrp6TE8PJwk+c0331BDQ4P/x96dh+WU/n8Af7fQJonKmlRMpbJWlqJCElkrkaxZMvadxliSJWOJQcLYt1H2mBqyZs0+lBKSLaGkfXl6//7o6vw8k21mmL4zc7+uqz/Ofe7tnOc8p89zzn2fo6+vzzVr1pAk/fz8WKVKFVatWpVz584lWTKrVFVVlR4eHuzSpQubNm1KZ2dnKioqcu7cuTx//jy3bdvGGjVqUENDgz4+Pnz79i0jIiJYr149AqCtrS1v3rzJ1NRUVqtWjTVq1OC8efO4c+dO2tnZ0dLSUhosnZGRwVatWlFPT48eHh708PBgw4YN6e/vTwAcNWoUMzIyWFxczG+//ZZ16tThkiVLuHnzZtrY2FBZWZna2to8cODAXxqAHRUVRQ0NDQYEBHDnzp1cuHAh9fX1CYCBgYHMyMjgrVu3qKKiQg8PD+7cuZMBAQGsVasWlZSU2LNnT+bl5bGoqEga7NyxY0e+ePGCSUlJ1NLS4nfffcedO3fyhx9+oKGhIZWVldm7d2+p3OXLl6mhocGWLVtKA6XT09NpaGhIY2NjZmRkkCz5HltZWbFhw4Zysy7/qKKiIp4+fZoAePToURYVFb0339ixY1mlShVeunSJeXl5jI6OZps2bQiAx48fl/J5eXnRxcWFiYmJJEsmMjRs2FCaSNKgQQNOnTqVRUVFLCgo4K+//srq1auzRo0achNIVq9eTWVlZcpksj+9bcXFxXRzc2PDhg3lJrw8ffqUWlpa3LVr15+umyQ1NDTYt29fymQyFhcX8+bNm7SxsaGOjo70OZXKzs7mN998QwUFBWliFFnyOdaqVYvffvutdOw+e/aMgwYNIgBpJjZJ7tixg1WqVJHOJ39l30RFRRGANEvw90qP35ycnPeu/5KD9UtnTb7LwMCAa9eulZYzMzOpp6fHoKAgaT8VFhYyNDSUioqKcnmLi4tpaGgoneN+z8LCQm7Gv0wm47p16+QG65Pk8ePHP7qPPpeXlxfbtWsnlxYWFkYAfP369V+q+2NEICYwKyuLtra23LFjh1z61atX6e7uzubNm5dTz/554uPjGR4ezkuXLpEs+UcSHh4uzUQ7ffo0w8PDGR4ezpiYGMpkMmk5PDycCQkJJMnbt29LaaWzTc+dOyelvXsSiomJkR6ZUer48eMMDw/n06dPpfWlf1lZWXL1h4eHS7O67t27xydPnjA8PJwjR47koUOHymzjmzdvuGXLFvr4+Ejr3759Sx8fH/r4+MgFGxs3bqSPjw9/+uknvn79muHh4Zw0aRLDw8M/OMvrc0VFRUltbt26lWlpadJy6aMGIiIi6OzszC5dunD+/PlMT09nTEwMe/bsSQcHBz58+JDDhg2TypUGwufOnZPSZs2axZSUFMbHx7Nt27Zs1aoVb9y4wcmTJ0t5SmdcLly4UEoLDAwkWfJDqDRt2rRpf3p7T58+LdXj4+NT5gdXqaysLA4ePJja2to0MTHhzJkz+eTJE06ZMoVNmzbl5MmTSZZ81j4+PnR2dpZmZXt6ekpBVnR0NGvWrEkHBwdaWFjQ39+fYWFhNDQ0ZJs2bThr1ixu2bKFenp61NbWppOTk3Sc/xmFhYXs06cPzc3NOXHiRHp6erJGjRrcvn37n66z1LfffksNDQ3a2NjQxcWFLVu2ZHBwMKtWrcoOHTpIn1WpnTt30tTUVG4WM0kuXryY6urqtLW1Zbdu3dipUycGBwezSpUq9PX1lWZfp6SksE6dOrS1teWECRM4ZcqUP933M2fOUEFBQe5HOlnyo2jTpk3s168fAdDV1bXMLPSEhASqqqpy8+bNf7p9kty+fTvr1q3LunXrSp9Heno6lyxZQjU1NbZv315utuKcOXOkH/bjxo2jmZkZp0+fTgUFBbZp04aPHj3imzdvpJnO7dq1k8597xo1ahS1tbXp5+fHgIAAtmrViv379ycAjh49mjk5OczJyeHq1asJgOvWrZMLiP+o6dOnU1VVlSdOnOClS5c4bdo06uvrU1FRkbt375Z7VMeXpED+gx4/K3wVz549Q4sWLXDx4kXUrl1bSieJSZMmSbMtBUEQcnNzcenSJbRo0UKaOfglPX78WJrN3KpVqy/2howXL14gLi4OderUQf369QEAiYmJePLkCczMzORu3x49ehSxsbGYPHlymXqePHmCxMREVKpUSRqQ/urVK9y+fRs1a9aEiYkJgJJbdFeuXIG2tjYaN278l/peq1YtLF++HJ6ennLply5dknuAsJKSEtq0aSMtx8TEwMbGBq9fv/5DM7h/79y5c9JYqQoVKsDW1hY5OTlyY1F1dHTkxvidPn0ae/fuRbVq1TBs2DDUqlULgYGBePr0Kezt7dG5c2dcunQJkZGRyM7Ohre3t9y4ZKBkH0ZGRuL06dOoWbMmunfvDkNDQ0ybNg0A4OLiAh0dHekB4gAwfPjw9441/BwvX77Ehg0bEBoaKr0Xd+DAgQgJCUFgYCCcnJwQEhLyp+r+GBGICQBKZk2eOnUKVlZW0mDoY8eOQV1dHTt37vxqY0MEQRD+lxQVFWHIkCH44Ycfvsjrib6EcePGIT8/H2vXrv1D5RYvXowjR44gKipK7vVHwv8WEYgJktTUVLkByVpaWqhTp0459kgQBOHri4uLg4eHB7y8vFBcXAwDAwO5xzSUt9LHHV25cuWzn2WVl5cHGxsbLFu2DB06dPjKPRT+ChGICYIgCP9pOTk5WLNmDW7cuAEPDw906tTpi90S/VKuXbuGnJycz36W3cOHDxESEoKAgABxNex/nAjEBEEQBEEQyol4jpggCIIgCEI5EYHYv9CGDRtQr149uafvAyWvlih9Lcrf7cqVK6hatep7H9goCIIgCP9V4sbxv1CPHj2wa9euMq8+Gj16tNxLpb+Wy5cvo1KlSmjYsKGUpqKiAjc3N7n3jAmCIAjCf50YI/Yv1b9/f+zduxc5OTl/e9tDhgyBs7NzmWfeCIIgCIIgT9yaLCeZmZk4duwYHj58iPT0dBw8eBCLFi1CQkKCtP748eNYtGjRe1/gDACxsbFYtGgRQkND8erVK7l1jo6OZfK/evUKycnJcmlPnjyRrpwlJSUhPj5e7r2CGRkZiI+PR3x8vPSORgBISUmR0kuDvfz8fOzduxdhYWFQV1dHfHw8UlJSpDKvX79GQUGBtEwS9+7d+6z9JQiCIAj/RiIQKyeDBw9Gx44dMWTIELi5ueHs2bM4f/48mjVrhmnTpqFNmzbYt28f4uLiYGdnh7CwMKns27dv4erqCj8/PxQVFeHIkSNwcHCQC2p+/zJiT09PNGzYEF5eXlKas7MzzMzMMGLECHh6esLR0RHdunWDmZkZpk+fDpJ4+PAh5s2bB1NTU7n6nzx5gqVLl8LU1FR6YfKjR4/g5+eHzMxMjBkzBn379sXhw4dx6dIltG3bFmZmZrh165ZUR2RkJExNTbFx48Yvvn8FQRAE4R/hq7w4SfgkmUxGAHR0dJReJpqXl8eaNWvS1NRUel9fUVERra2taWVlJZVdvHgxFRQUmJqaKr0XzsrKik2bNpXe3+ft7U01NTWpzNOnT9myZUva2tpKaYmJiTQ1NaWxsTEPHz7M9PR05ubmctGiRQTA69evS31o3Lgxf/vtN7ltyMvLIwAGBQVJaefPnycAbtq0SUrLyMjgqVOnpBcyl4qLi6OtrS1Pnz79l/alIAiCIPxTiSti5WzChAnSO8BUVFSgrKyM0aNHo2bNmgBK3h1Wt25dZGdnS2VWrFgBCwsLfPvttxgxYgT69+8PPT096Ojo4M2bNwAAa2truXZq1aqFRo0ayaUZGxvD0NAQXbp0gaurK6pUqQJVVVVMmDABlSpVwooVK6Q+fOzhhomJiR/dxsqVK7/3Cf2mpqaIjo4ut5mcgiAIglDexKzJcqaqqlom7fdBj62trTTbMT4+Hq9evUJgYCD69ev3wXpjYmLKpOXl5X1WnypWrIju3bvLjQn7mObNm39WmiAIgiAI8sQVsf9Bjx8/llvev38/rl69CgAwMTGBpqYmLl269IfrLa3jz+aVyWTvzVu3bt0yaeIdlYIgCILwaSIQK2fvziL8ECsrK/Cdp4w4ODggNDRUrmxqairmzp37yXreJykpSW754cOHSEpKgoODg1z6wYMH5ZZ//fXXD7b1+7zvU1BQgLS0NBQWFn4yryAIgiD8G4lArBzk5eXhu+++AwAsXLgQZ8+eRWFhIZYuXYrU1FSEhYXh6NGjIIndu3fj4MGDSEtLw9atWyGTyRASEoI6derAxsYGK1euxMqVK+Hj4wM3NzcAwPXr13H37l0UFRXh0KFDyM/PR2JiIiIjI/H8+XMkJiaCJIqKivDo0SNERkZi0qRJePz4MTZs2ID27dvD2NgYQ4cOlfpsaWmJTZs2YeHChVi5ciUGDhyIgIAAAMAvv/yCjIwMAIC5uTmqVauG27dv49GjR1i5ciXi4uKkK2xxcXHIysoCACxduhTVqlXDmTNn/rZ9LwiCIAj/S8QDXctBRkaG9LwwAKhRowZ0dHRw+/ZtKU1bWxtGRkZlbhE2btwYFStWRHp6Ok6ePImYmBioq6tj8ODB0u3ATZs2SfWrqKhg0qRJ2Lp1q/R8sOrVq2Ps2LEAgDZt2kBfXx9du3bFihUrUKFCBXh4eMDb2xs6OjpSu3l5eZgzZw4OHDiAJk2awMPDA927d0eHDh2QkpKCoUOHYvLkyQCALVu2YMmSJahevTo8PDxgaGiIkydPSnVZWVnBzc0Np06dwpgxY3DgwAEYGxt/yV0sCIIgCP8IIhD7j+vcuTMaNGggzZAUBEEQBOHvI25N/ocVFxcjPT29vLshCIIgCP9Z4vEV/2EjR47ExYsXce/ePWhra2POnDnl3SVBEARB+E8Rtyb/w0oHzQOAoqKi9KwyQRAEQRD+HiIQEwRBEARBKCdijJggCIIgCEI5EYGYIAiCIAhCORGBmCAIgiAIQjkRgZggCIIgCEI5EYGYIAiCIAhCORGBmCAIgiAIQjkRgZggCIIgCEI5EYGYIAiCIAhCORGBmCAIgiAIQjkRgZggCIIgCEI5EYGYIPwLHTt2DJGRkfjcN5jJZDLs2LED+fn5X7lngiAIwruUy7sDgvBfMn78eBw/frxMupGRETw8PODu7g41NbW/3M7s2bNx4cIF5OXlQUVF5ZP5IyIi4O3tjWfPnmHKlCl/uf0vqaioCHPnzv3gen19ffTp0weVK1f+G3v15cTGxmL79u04dOgQtm7dimbNmn3xNtLT03Hq1CmEhoZixowZsLS0/OJtAEBiYiKuXbuG1NRUjB49+qu08a6srCwEBQVhxIgR0NXV/WrtbNy4ESYmJrC1tf3sMnfv3kViYiJcXV2ltAcPHqBixYqoU6fO1+im8A8lrogJwt9o8eLFaN26NapUqYLDhw/j8OHD2LdvH6pXr44BAwZgxIgRX6SdTZs2YceOHahYseJn5e/UqRM2b94MDw+PL9L+l6SkpIT+/ftj9+7dCAkJgba2ttzfzJkzYW5ujkuXLpV3V/+UChUqoHLlyrhz5w6ys7O/ShsvXrzAnTt3sGvXLuTm5n6VNgBg1apVGDp0KNatW/fV2njXunXr8P333+Pq1atftZ1x48ZhzZo1f6jMxIkTMXjwYLx58wYAMGDAAFhaWiIwMPBrdFH4B1Pg5967EL6Kq1evIi0tDRoaGmjdunV5d0f4G0yePBk3b97EsWPHpLTi4mK4urri2LFjuHfvHurVq1d+Hfwf5ejoiGfPniE+Pl4u/fXr1zA1NYWWlhYSExPLqXd/TXZ2NipVqoQzZ86gTZs2X6WN9PR0VK1aFZcuXYKNjc1XaQMAWrdujaysLNy6deurtVGqsLAQ6enp0NXVhYKCwldr5+XLl1BRUflDV12fPn2KJ0+eoEWLFgAAknB2doaJiQl+/PHHr9VV4R9IXBErJ0+fPkXDhg1x5swZPH/+HD///DNatmyJ27dvl1uf4uLiMHLkSOjo6GDp0qVo3749NDU1oampCXt7e7x9+1bKm5KSgv79+8PCwgIeHh6oWbOm9Ivx5cuXmDVrFszMzHD48GEsW7YMBgYG0NTUhIGBAWJjY+XaffjwIYYPHw5ra2u4urrCzs4OZ86cAQAkJydjypQpqFevHs6dO4f58+dDT08Pnp6ekMlkKCoqwpQpU9ChQwd0794ddevWxZYtW+TqP3/+PJYsWYIff/wRsbGx8PX1RbVq1dCuXbsyv6RL98HAgQMxcOBAhISEyK1/8+YNfvrpJwwcOBB5eXlYtWoVBg4cCF9f3zLb9UcoKirCwcEBRUVFkMlk0j728/PDwIEDMWLECNy5c0euzJEjRxAcHIzCwkIsW7YM3377LTIyMgAAkZGRcif7hw8f4sCBA2X+Dh48CABISkrCkiVL8OjRI6nMjRs3yqwfPXo0EhIS3rsNZ8+excyZM3HgwAHcv3//vXlK9/fr16+lPvzV34JaWlpQUVFBXl5emXUpKSk4cOAArl+//tH+JCcnIyIiAtnZ2VK/zp07J5f3/PnzOHDgAE6cOFGmnsePH+PAgQN4/fr1B/tZWr70CsnHvHnzBmfPnv1kvv9V3bp1+1vaqVChAvT09L5qEAYAurq6f/jWd+3ataUgDAAUFBQ+a5iA8B9EoVx4eXlx0KBBcmnt27enl5dXOfWITEtLY0BAAAHQwMCAP/74I2UyGRMSEmhiYsLOnTuzuLiYMpmMpqam7NevH4uLi0mSJ0+epJaWFmNiYvjixQuGhoZSSUmJampqnDlzJm/evMn09HRaW1vT3Nyc+fn5JMnc3Fx27NiRU6dOleratm0ba9SowQcPHjApKYkbNmwgAGpra3P+/PkMDg7mN998w/z8fHbv3p1du3aVyt66dYs6Ojo8evQoSbKwsJBhYWE0MzOjoqIiraysePToUT579oz9+/ensrIyr169SpK8cOECq1SpwnPnzlEmk/Hx48ds3bo1hw4dKu2joKAgmpqaEgANDQ0ZFBTE0NBQdu7cmZqamkxKSvrkfp40aRI7dOggl5aZmckGDRqwWrVqTElJ4fXr16mmpsbly5czKSmJc+fOZeXKlXn27FmS5JgxY6iqqso6deqwQYMG7NWrFytUqEB/f39OmjSJmpqa7NKli1T/jBkzaG5uzg0bNjA0NJSzZs0iAHp6evLs2bM0MDAgAF67do0kuWzZMqqoqFBBQYE9evSgubk5vby82LVrVyoqKvLcuXNS3fn5+XRxceHIkSMZGhrK9evXU0tLi2vWrJHyBAQEUEVFhbVq1eL3339PR0dHenl5sX79+jQ0NOTTp08/ud8cHBz4zTffyKUVFRVx69atVFBQ4IQJE6T0ly9fsmPHjrSzs6OXlxdtbW1paWnJFy9ekCTHjRtHdXV1Nm3alGPHjqWamhoBMCAggCNHjqSWlhbbtWsn19aCBQtYvXp1WlhYSGkymYyenp5s0KABvby8aGNjQ0VFRW7dulXKEx0dTSMjI3p5edHLy4vGxsZcvny5dMySZFZWFgFw7dq17N27N9XU1KiiosKaNWvy7t27cv3Ys2cP27ZtS29vbzo5ObFu3bqMjo7+5P5LS0sjAPr7+3P48OHU1dVly5YtOWbMGBYWFkr5iouLuWPHDrq4uFBdXZ29evXiqVOnpPWRkZGcOXMmw8LCePHiRfbt25ceHh588uQJSbJVq1a0sLDgpk2b6O7uTnd3d44bN65MH69cucIBAwbQ29ubvXv3ZlBQEGUymVyeS5cusW/fvvT29qaXlxcDAgL466+/kiz5bu/fv5+TJ0+WzickmZGRwaFDh7Jfv3709PTkxo0beebMmY/um7Nnz3LRokU8ePAg79y5w6FDh9LHx4cZGRm8cOECd+zYIXfMFxcX88SJE/Tw8KCXlxe3bNnC3bt3S+vz8vJ49epVRkZGyrXj6urK0aNHS8vh4eHcsWMHd+zYwV27dknphYWFDA8P58CBAzlv3jxGRUXJ1VNcXMzw8HDeunXro9sl/DOIQKycHDlyhNevXydZEoy8fv2avXv3pr29fbn2Kzo6mgC4efNmufQzZ84QAOPi4njkyBECYNOmTeni4kIXFxfa29sTAIOCgqQyysrK9Pf3l6vnwIEDBMD09HSSZEhICAGwVatWUl0tWrQgAO7cuZMk+fz5cwKQO4GRJScjCwsLuRMYSerr63P9+vVyaW3atKGZmVmZ7a1Xrx4HDx5MsiT4cHR0lFu/fft26ujoyKVNnDiRAHjv3j0pLS0tjbq6upw3b16ZNn5v0qRJ1NHRYXBwMNevX8/Vq1ezYcOG1NHR4ZUrV0iSTZo0YePGjbl+/Xrpz8jIiE5OTlI9Q4YMoZqamhRc3L9/n2/fviVZEqiVBmI5OTm0trZmWloaSfLJkyc0NTWlsbExHz9+TJJ88eKFXCBGkkePHn3vfu/UqRM9PDyk5W3btlFXV1eqnyQnTJhAc3NzuX/wy5cvp5KSktwxkpKSQgUFBSlw/hgHBwdqaGhIx4mLiwubN29OAJwzZ45c3tGjR7NJkyZS+/n5+WzYsCF79+5Nkrx79y67du3KihUrMiQkhIWFhZwxY4b0z3bq1KllAjGSXLJkiVwgFh4eTgDcv3+/tK9dXFzo6uoq5alXrx7Xrl0rLZ84cYIA+OjRIymtNBCzsLDgzp07mZmZybS0NDZu3Jg9e/aU8l2+fJlaWlo8ceKElLZ27VrWq1fvk/uvNBBzdHSUjt2XL1+ycePG7NGjh5Rv9uzZdHR0ZHZ2NsmSwEtJSUn6EbBgwQJWrVqVAOjg4MChQ4dST0+PN27cIFkSiKmpqfHbb7/l0aNHefToUQ4bNozKysq8ePEiSTIhIYH16tXjyZMnSZLXrl2jgYEBZ8yYIfUjPj6eqqqqXLZsGWUyGS9dukRDQ0P26tWLJLlv3z66uroSgNTX3Nxc2tnZsU+fPszMzGRsbCytra3ZtGnTj+6bUaNGUUVFhfr6+mzfvj379OnDqlWrcv/+/Zw4cSI1NDTkfiSHhISwWrVqPH78OF++fEl/f3+qqanx8uXLJMn58+ezevXqbNWqlVw7vw/Efv75ZwKgt7c3f/nlF5Jkeno6W7duTT8/Px49epRbtmyhhYUFQ0JCpHJJSUlUUlKinZ3dR7dL+GcQsybLiYODA9auXYuZM2ciOzsbBgYGiI6ORoMGDcq7a+9VvXp1ACW3w0pvOy0e185IAAAgAElEQVRduhSKivJ3t38/9qRp06ZyyzVq1JBbDg8PR7Vq1bBw4cIybZqZmckt+/j4yC0rKCjg1q1buH//PlauXIm3b9/i+PHjSE1N/eztatq0KcLDwwEAEyZMwKhRo/D48WMcOXIEBQUFOHToUJkyVlZWsLKygqGhoZSmra39h8Z1qampIS4uTloeMWIEXF1dYWRkhDt37iA2Nhb29vb47bffpDyurq6oVauWXD1du3aFnp4egJKZlx9q6/LlywBKxtSMHj0aMpkMJ06c+OTsLUVFxTLjWZo1a4bo6Ghp2cnJCdHR0dDW1sbbt2+RkZGB+Ph43L9/HwUFBVBW/v/TTIMGDTBu3DhpuXr16n/otpK2tjamTZsml7Zy5UqsXbsWRkZG6N+/P169eoXdu3dDU1MTgwcPBlAy8zIzMxPPnz8HAJiYmMDAwAAdO3bE8OHDAQALFiz47H6UUlNTg4KCAubMmYMXL17A09MToaGh2LFjh5TH3d0dbm5u0nKFChU+WJ+/vz969uwpLbds2VLueH716hUcHR3lbnlVrlwZT58+RVJS0mcdg4sWLUL9+vUBADo6Oli8eDFcXFxw8eJF1KpVC8uWLYOdnR02bNgglSGJTZs2wc7ODjNmzMCuXbtgZ2eH0NBQVKxYEevXr5drY+rUqZgzZ4607OzsjKioKKxduxYtWrTAwYMH0apVKzg4OAAo+R6OGTMGixcvlj6HjIwM5OXlIScnB+np6bCxsUFUVBTGjh0LAOjZsyeqVasmfX+BkrF2MTExqF69OrKzs2FmZoaIiAj07NkTJD94rK1atQopKSl48OABwsLCUKVKFWldjx498OrVKxQVFUlpO3fuhKqqKoyMjKCjo4Pvv/8etWrVwsmTJ2FtbQ0/Pz/k5+fLjQP9vcePH2P+/PlYs2YNhg0bJn1P/P39oaysjBkzZqBSpUoAgObNm6NJkyYwNzeHra0tDAwMsGXLljLnV+GfSQRi5SA7Oxvdu3dHQUEBtm3bBgMDAwDAjBkzcOHChXLuXQlHR8f3pleqVAmampoAgLZt20JJSekvt1WxYkXY29v/qbL+/v4ICgrCoEGD4OXlBWdnZ3Tt2vW9eU1MTD5a16NHj9CnTx8UFxejXbt26N69OzIyMnDz5k25fFeuXIG2tvZf2nYTExOsWLHivevevn2LgoICeHl5YdCgQX+6jd8rLCzEqFGjEBERgevXr6Nu3bpfpF5dXV3s27cPgwcPhqqqKszMzPDy5UvY29tDXV39i7RRSl1dvcyx0rZtWwwdOhRDhw5F06ZNUVxcjFevXmHu3Ln49ttvv2j7v9euXTvs378fy5cvh6+vL+bMmQMnJyfMmzdPyjNr1iysXr0a0dHRUFVVxd27dz9Yn46Ozkfbc3FxgY2NDTZt2oRz584hMzMTycnJIPmnnwHXsWNHKCgoYO/evahbty4yMzPRv39/KVgDgIsXL5bpm52d3WfPylVUVISFhQUiIiIAAKNGjUJKSgri4+Nx7do1PHr0CIcPH5Yr07BhQ7i5uWH27NlYunQpvL294eHhgT179nywnWrVqmHMmDFYtWoVIiIi0KdPH7i7u+Pw4cOfFfA3b95cLgj7kLlz52Lw4MFo1KgR7O3t4eHhgd69e0vnxo9JT0/H7t27MWnSJCxYsAADBw6U1uXn5+PQoUPo1auXFIQBgLm5OUxNTREWFiY9QqNfv36fbEv4ZxCD9cvBmTNnEBUVhYkTJ0pBWEpKCo4cOVIm7/379/H06dO/u4vSlYNScXFxUFNTg6urK3r16gUlJSWEhYXJ5bl7967clZLP4e7ujpcvX+L06dNy6cnJyUhPT/9o2du3b2POnDnYsGEDli9fDmtra1hbW3/wn8P7TsRv3rxBw4YNUVBQAE9PT9SpUwfR0dFYuHAhWrZs+cGrTF+Tvr4+NDU1/9Lg//eZMmUKtm3bhm3btsHU1BRASSD7V/n5+SEgIABLlixBVFQUVq1aBTs7u79c7+dSUFBA69atUVBQgFOnTv1t7QIlx2nbtm1x4sQJXL16FYMGDcLx48fh7OyMjIwMJCQkwNLSEnFxcQgMDMTWrVsRGhr6p9vbt28fmjVrhgsXLmDChAnYunUr5s6dC2Vl5U/+0PgUvjNpwsLCQvo+lf69ewX4r3r8+DF69OgBd3d3xMXFoXr16mWu7mhoaCAsLAxRUVHw9PTEoUOH0LZtW3h5eX30ERw//PADLly4gBEjRuDMmTNwcXFBhw4dPmuSxOeyt7fHxYsXMXfuXKSlpcHHxweWlpbSleeP2bFjB2bPno3i4mKcPXsWhYWF0rq8vDzcv38fHTp0KFPO3Nz8k+dE4Z9JBGLlwMHBAbVq1UJgYCDOnTuHBQsWYOTIkUhPT8f9+/dx8uRJvHz5Erm5ubC0tETHjh3/9j4OGzYMoaGhePHiBbZu3YrvvvsOO3bskGYCde7cGcOHD8eBAwdQUFCATZs2YfLkyVLgkpaWBpJl/jGePHkSAKTZZZ6enrCyssLkyZNx6tQpZGZm4sCBAxgzZox0xak077u36YCS2ZlASRCbl5eHc+fOwd3dHc+fPy+TFygJgEsDxfT0dEydOhXnzp3DmjVrkJaWhjt37kBfX1+6dbR371788MMP790/CQkJclcg8vPzkZWV9Vn79mMz6wCgTp06cHV1xb59++SunoSFhWHt2rWf1cbvhYaGYvPmzdi2bRvc3d0BAAcPHnzvrdc/giQCAwPRtWtXtGrVCkDJlcWYmBikp6dLM0C/FGdn5zJpxcXF2L17NypWrAhHR0eYmpqiWbNm+Pnnn+Xaf/jw4R96vtWbN2/kbkelpKSUmUl56dIlTJ8+HYqKimjWrBkWLlyIgwcPIj4+HqGhoVi9ejUeP36M4OBgmJubQ11d/ZOf/8esWLECLVq0wPbt22FtbQ1tbe0/XN/v8//8888gCTc3N+lBr7///pDEvXv3/nQbJJGWlgZLS0vk5eWhd+/eaNSoEW7cuAF/f38MHjy4zI+eS5cu4cCBA7C3t0dwcDBu376N77//HgcOHPhgMJuWloYJEyagSZMmWLp0KW7duoXg4GBcu3btg1eg/4wVK1aguLgYEydOxPnz53H//n3Ur19fuor+MR06dMCtW7dw8eJFHDhwAL6+vtJxpqqqigYNGuD8+fNlykVGRqJatWpfbBuE/yHlNjrtP+7NmzcMDg5mcHAwjx8/zsLCQiYnJ0tpCQkJLC4u5r59++QG5n5tpYP1ly9fzsGDB9PNzY1OTk5cvXq1XL68vDzOnDmT7du3Z+3atTlq1Chp5tvt27fp4eFBJycnOjs7c8uWLSRLBte6uLjQycmJbm5uvHDhAsmSQcQTJ06kiYkJ69WrRy8vL2ZkZJAsmSRQ2ocePXrw8OHDUh+Ki4s5Y8YM6urqsk6dOnRzc+OZM2e4c+dOGhkZ0dXVlc+ePSNZMli/cePGnDBhAq2trVmlShVaWlrKDRKPjIzkN998Qz09PTZs2JB+fn68ePEidXV16e7uzgMHDjA4OJg6OjoEwIEDB7K4uJhZWVls164dAbB27do8duzYB/evv78/K1euzIoVK3Lo0KFlZomVys/Pp7u7O9XU1Ojr60snJye52W3Tpk1j5cqVqaamJjdbkCS///57WlhYUEVFhb6+vjxz5gwrVqzIypUr09fXl76+vmzVqhUVFRW5adMmXrhwgU5OTgTA1q1bMyUlhQkJCezcuTMBSAPcyf+fOVizZk3++OOPJMlBgwaxSpUqUt12dna0traWZgHeunWLFy5cYL169VilShWGhYUxJyeHr1694oIFC6igoEAbG5syswNLyWQyhoeHs1atWtTT0+OKFSv466+/cvv27fT19WXTpk1Zu3ZtuVlr4eHhVFFRYadOnRgREcF169axU6dO0gD5s2fP0srKigYGBmVmtpHkjRs3qKKiQmdnZx49epRDhw5lw4YN6eDgwKpVq0qz1R49ekRlZWX26tWLsbGxTEpK4vDhw2lgYMBXr15x1apVVFBQ4ObNm/nrr79y/PjxrFSpEgFw3bp1JEsmSqxdu5YAuHTpUunYv3v3Lrt06UJDQ0OpPXd3d9avX58XLlzg3bt3GRgYyEqVKlFJSYm3b9/+4HFH/v9g/TZt2vD+/fskydjYWJqbm7Nbt27Svh4yZAhr1aol1Zeamsq5c+cyPj5eqsvS0pKTJ09+bzutWrVi1apV5Wb6zZ8/n6qqqkxMTOSzZ8+oqanJiRMnSus3b97MevXqUU9PT0qLj4+npqam3Od669YtAuDevXtJkqdPnyYAPnz4kGTJebVatWpcvHixVObVq1dUVVUt8z35vTZt2sjNkH6Xs7Oz3GD9uXPnskuXLszJyZHSgoKCqK6uLp0HZ82a9cnB+nv37qWKigqXLVsmpU2aNImGhobSxBuyZNKQkpKStJ05OTlcsWKF3Oxc4Z9LPNBVkHPu3DnY2dnh7du3nzXegSRycnKgoaHxl9suKChAUVHRHx5XlJubi+LiYrk+5Ofno7CwUBpn0bZtW7Rt2xYBAQHSOlVVVbmB5KV9KCgogJKSkvSqodzcXMhkMumWZ0FBAQBAWVkZqqqqICn3RHQVFZUPDsjOyclBcXGxtPzuOJDfKyoqQmJiIi5fvgxjY2O0bNlSukqYnZ0t3UpSUFCQ2/Z327hy5QpsbW2lq3cnTpyQbtHUqFED7dq1AwBERUXhxYsXAEoGJ+fm5iIyMhJAyeDyvn37AiiZrFF6taN27dpo3749ioqKpPKVK1dG586doaSkhPPnz+Phw4cwMjJCfn6+dIu9SpUq6Nq1K4qLi/Hzzz9LVwPMzMxgbW1dZj+UvgfzQ5SUlODu7l7mGU1JSUnYs2cPLly4AAMDA0yePFmanBAQECA9Q0xfXx8rV64sU+/58+cRFBSEoqIieHh4oFevXoiIiMDmzZtRsWJFBAcHo2rVqtI7OiMiIqCgoABDQ0NMnDgRenp6kMlkWLp0KS5cuAAVFRV4eHjA2dkZoaGhOHLkCOrVq4cePXpg6dKlUrtLliyBsbExNm7cKI2bUldXx44dO5CRkYHFixfj7t27UFJSgre3N9q1a4fp06fj9evXaNKkSZnJDKWysrKwaNEi9OrVC8HBwTh8+DCUlJQwcuRITJs2TTpm09LS8MMPP+Dw4cN49OgRGjVqhM2bN0sTidq1a4fTp09DQUEBQ4YMKXOV0cnJCd26dcOWLVukh+9qaWlhyZIl6NOnj7SN8+bNg6WlJdLS0uDt7Y2CggL4+/ujc+fOGDx4MNzc3NCiRQsoKChAXV0d+vr6OH/+PPr164dZs2Zh37598PX1xevXr2FkZIQ9e/agefPmmDBhAlauXAlra2uYmJjgypUrMDY2xr59+8p830u5urriyJEj0NDQwOzZs+Ve81U6AaNixYqYOXMmZs6cieTkZFhaWkJLS0saT3v27FkEBgbCw8MDc+fOxapVq5Ceng5fX18sX74cs2fPxg8//AA1NTX4+/tj/PjxWL58Ob777jsUFhbC3t4e27dvh4aGBoYNG4Z79+5h4sSJSExMxJYtW7Bu3TrpluWLFy9gYmKCrKwsJCcnl5nEI/yziEBMkFMaiKWnp3/WoNV/incDMUEQSm7pKigofHAQO0seb1Qmz7s/JN5XvrRMaflnz56hdu3aZfK9fv0at2/fRtu2baV1ubm5OHXqFDp16iTVUdrm4cOH0a1bN2mmdmn9v+/Lu+kRERFwdHSEqqrqRwfrv7tNAORmg39oXWl6amoqHjx4gFatWkltvK/M56S9uz/v3LmDuLg46Orqyu2jUr/99huaNGmCx48fi0DsH04EYoLkt99+w4QJExAVFYVGjRph//795TJY/Usiib1792L48OGoV68eZs2ahR49epR3twRBEP604uJiTJ8+Hc+fP8e2bdvKuzvCXyQCMUGSlZUl98qfhg0bQldXtxx79NfJZDK5mZyamppo1qxZOfZIEAThr0lOTsbEiROxbds2aQiF8M8lAjFBEARBEIRyIh5fIQiCIAiCUE5EICYIgiAIglBORCAmCIIgCIJQTkQgJgiCIAiCUE5EICYIgiAIglBORCAmCIIgCIJQTkQgJgiCIAiCUE5EICYIgiAIglBORCAmCIIgCIJQTkQgVk7i4+MRFhZW3t0QBEEQBKEciUCsHNy8eRMDBw7E4MGDy7sr/1pLly5F8+bNMXr06C9S36NHjzB9+nQYGxsjOTn5i9QpCF/ao0ePkJGRUd7dEAThDxCBWDlo3Lgxzp49W97d+Ffr2bMnVFRUkJmZ+UXq09bWRl5eHh48eIDi4uIvUqcgfCmFhYVo06YNvvnmGyQkJJR3dz7LnTt3sH///jJ/kZGRX7SdTZs2wczM7LPz5+bmolOnTggMDPyi/RA+3/379/Hdd9/h7du35d2Vv4UIxMqJkpJSeXfhX83IyAiGhoZfrL7KlSvD19f3i9Un/DvIZDLs27evvLuBChUq4Pjx42jQoEF5d+WzkYS/vz88PDwQGhqKvXv3Yu/evfDx8YGWlhbOnTv3xdoh+dXL/F2ioqLQokULKCoqwtraGv3790f//v3h7e0NVVVVGBsbIyIiory7+aedPn0a7dq1w4IFC/4zdx+Uy7sD/2W5ubnYtGkTMjIycP78eWRmZqJ///7o27cvFBQU/vb+FBUV4c2bNzh69Cj69u2LO3fuIDQ0FBoaGhgwYADq1Kkjl//GjRuIiYkBADRo0AB2dnZQVi45pF6/fo2YmBh06tQJeXl5OHLkCNLS0mBubo6WLVtCUVERDx48QFRUlFSfm5sbqlatiqSkJBw7dgwA0LFjRxgYGEAmk+HChQuIi4sDAPTp0weamppSWZlMhuTkZBw/fhw6OjpwcXH54Hamp6fj2bNnSEpKQtu2beXqKd0HVatWRXZ2NvLz86GqqopKlSqVqef169cgicqVK6NixYpl1mdmZiI/Px8AoKWlhQoVKrw3j6amJoqLi5GWlgag5Orb+wL13NxcZGdno0KFCtDS0nrvtpX2HwCqVav2yeMoMzMTBQUFqFat2kfzfcjr16//dNl/g5UrV6JGjRrl3Q0AgIqKCnR0dMq7G5/NwsICbdq0Qe3atbFz504pPTc3F1ZWVujSpQvu3bsHXV3dv9TOkCFDMGTIkM/Or6am9sWvyn1J7du3x65du2BsbIwdO3bgm2++kdYFBgZizJgx6NWrF65cuYKGDRuWY0//HHt7e5w/f77M/5t/M3FFrBzJZDKEhITAwMAAq1atgq+vLyZMmIClS5eWS3+2b98OCwsLDBw4EI6Ojhg9ejRycnIQHR2N1q1bS8ERAAQHB2PIkCFSgOHj44MpU6YAKLnlYGNjgy5dumDSpElo3749Dh48iL1798Le3h6bN28GALx9+xZHjhzB8OHDERUVhby8PADAtWvXsGLFCkRERCAzMxOvXr1Cjx498NNPP6F27dq4fPkybGxsEBsbC6BkP/r5+aFp06a4dOkSzpw5AwcHBxw/frzMNq5YsQJt27bFhg0bcOzYMTRt2lQK7q5cuQI7Ozvo6upiy5YtsLW1ha6uLrp37y5Xx61btzBo0CA0b94cBgYG6Nu3rxRwAUB+fj7mzp2Lli1bIiAgAC4uLmjTpg0ePnwo5Tlx4gTat2+P9u3b48yZM+jRowd0dXWhq6uL6dOnQyaTSXmLi4sxb948tG/fHs2bN4e1tTXc3d2Rnp4u16+IiAg4OzujefPmaN68Odq2bYurV69K669duwZfX1/Y29vj5s2bmDVrFoyNjVG9enWMGDFCbhveJzQ0FCNHjoSfnx/Cw8Ph5OQEPT09tGvXDuHh4WX2Ubdu3dC/f3/06tUL69atk+pPSkpCUFAQJk6ciOTkZEyePBn29vbS5JVHjx7Bx8cHXl5e8PHxQVBQkPRZ+/v7w9fXF507d5a+JzKZDEFBQQgKCsKePXukz2Dt2rXo0KED7O3t8f3338vtr/z8fFy9ehUDBgzA27dv8fPPP8Pd3R27d++W8hw9ehQDBgyAvb09+vfvj+vXr8tt49ixYzF16lT89NNPCAoKwrp166R1b968wbp16+Dk5AR7e3scOHBAruybN28QHh4upUdHR8PDwwPff/+9dDx+Sn5+Pg4ePIigoCDs3bsXycnJ7/0Mc3Nzce7cOQQFBSEkJEQK1N9FEvfv30dISAiSk5ORnJyMoqIiuTzZ2dnSuvetB4DU1FSp/mfPniE1NfWztuVdampq6Nu3LzIyMuTOOS9fvpTaLigoKFPu8ePHAEp+XCQnJ6OwsLDMulIpKSly25KcnCyXp7CwsMxYu+zsbOTm5gIoOXclJyd/9NbZ8+fPkZyc/NnDI37fxz+jdu3acHJyQm5uLnbt2vWX6xP+JhTKhUwmo7q6OjMyMuTS9+/fTy0tLebl5ZVLv6KjowmAu3btYnFxMUkyPz+fvXr1ooODA0ny+PHjVFJSYnR0NOPi4hgXF8fdu3dTTU2NsbGxUl3Kysrs168f3759K6V16dKF7dq1k5Zzc3NZr149zp8/X64fTk5OLCwsJEmOGzeOLVq0kNqKi4tj+/bt6enpSZI8c+YMtbS0eOfOHal8UlISq1WrxgEDBkhpv/zyC1VVVXnz5k0pbf78+TQyMmJ2djZJMiwsjADo4uLCFy9ecN++fdy4cSNJMi4ujgBoZmbG6OhoymQyJiQk0NjYmLNnz5bq/Omnn2hoaMiUlBSSZFFREb28vGhjYyPlefToESdNmkQAtLOz49GjRxkTE8Mff/yRFStW5MmTJ6W8W7ZsoZGREbOyskiSWVlZtLOzo7e3t5TnwYMH1NbW5oULF6S0GTNmUEdHR1pOSUnh5MmTCYAWFhYMCwtjTEwM9+zZQw0NDf7000/8mJCQENrb2xMAW7RowdDQUMbExHDy5MlUVlbmmTNnSJKXL19mlSpVeOjQIZLkixcvaGRkxEmTJpEkf/31V9rY2BAAa9asyRkzZtDBwYHz58/nq1evaGJiwvHjx7OgoIAPHjygjY0N7ezspLqNjIzYqFEjxsfHkySLi4v5/fffs02bNnz8+DHz8vLYt29fjhw5kjExMYyJieH48eNpYmLCnJwckuSNGzdYt25dAqCRkRGdnZ3ZunVrNmnShCS5adMmNmjQgOfPn2dMTAx//vlnVqlShdHR0dL+uHnzJq2trTlq1CjGxMTwxo0bJMmXL1+yQYMGXLdundS+qakpt2zZIpVdvnw5q1atSi0tLTo4OHDQoEH08/NjixYtqKenx1evXn30s0hISGDTpk3ZuHFj+vn5cdq0aaxUqRIB8PLly3LHhYmJCWfOnMmYmBguWLCAhoaGPHLkiJQnMzOT3bp1o52dHf38/Oju7k4VFRWuX79eynPhwgU2btyYw4YNo5+fHxs3bkx7e3tmZmaSLDmfubq6snLlyhwyZAhHjx5NFRUVampqMiYm5oPbMWbMGHbp0qVM+tSpUwmAt27dIkkGBgbSwsKCQ4cOpY2NDVu0aMGHDx9Kn5WVlRXV1NS4f/9+6uvrEwDHjRvHY8eOsXXr1lRUVJTOZwkJCVRXV6euri5NTU1pampKRUVFqqqqsqioiFOnTqWFhQXnzZtHsuT7Nn78eBoaGjIkJIQrVqxgo0aNqKOjwzp16jAiIkKu70+fPmWXLl3o5eVFX19fNm7cmCEhIVL7hYWFDA4OZrt27bhkyRLu2rWLTk5OrFKlClu2bClt88fcv3+fAKTvQCmZTMahQ4eyQoUKPHfunNxnPGbMGHbv3p19+vRh27Ztee/ePWn98uXL2bNnT0ZFRXH16tW0srKio6Mjg4OD2atXL1pZWckdM7du3aKHhwetrKy4Y8cOufaDg4Pp5OTE3r17s3///pw1a5Z0LifJxMREDhkyhG5ubnR2duagQYP4/Plzue148uQJAfDKlSsMDQ2lnZ0drays5L5DpeLi4jh+/HjpHLt9+3bpXFkqMjKS8+fPZ1FR0Sf3bXkQgVg5kclkrFSpUpn07OxsamlpSf/E/m6lgdi7wRNJHjp0iKqqqnz8+DFHjhxJLS0tdu/enV26dGGzZs3YrFkzOjo6ygUCysrKPHz4sFw9U6dOlQvESHLhwoU0MzOT/klGRkZy5cqVJEtOghoaGjQxMZHaKf3r1q0bSdLNzY3Dhg0rsy1eXl5ygZiXlxfV1dXp6elJb29vent708HBga1atWJycjJJ8urVqwTA+/fvl6mvNBB7N5AjSRcXF44dO1Za3r17NwMCAuTyrFy5kt98841c2sGDB9mkSRPpn1kpY2Njrl69WloODAzktm3b5PKMHj2arq6u0nJ0dLS0P0qFh4dTSUlJLu23334jALmAmSwJfCdOnFhmm38vICCA5ubmLCgokNJkMhltbW3p7OxMkuzZsyf19fX53XffSX/GxsasW7euVObIkSOsX79+mYAjKSmJqqqq9PT0ZGpqKkkyLS2Nffr0kfKUBv3v/iOZMmUKT5w4QbIkQNLQ0ODLly+l9enp6QTAixcvSmlZWVnU1NSU/uEWFhbyxYsXJMn69etzzZo1cn3r0KGDFEyW8vHx4c6dO+XSgoKCaGFhIbePVq1aJbcNJDl+/HhWrlyZZ8+eldLevHnDWrVq8ccff+TH9OzZk40bN5aCfZKMiIgoE4hNmTKF7du3lyv73XffsU2bNtLywYMHCYDbt2+X0jZs2MCOHTtKyxYWFlyyZIm0nJubS319fekfY3FxMWNjY9myZUtWrVqVe/fuZWxsLJcsWSJ9ju8zZswY2tnZSUFKamoqN27cKB0DBQUFPHToEC0tLaVzUkFBAd3c3NivXz+S5LNnz7hixQoCoKurK2NjY7lq1Sr+8ssvTElJ4Zw5cwhAamPYsGH09vaWjo/w8HAqKipy4cKFLCoqYmxsbJlALDY2loqKitTR0eH06dP54sULpqam0tPTk4aGhtIP55ycHEigAY8AACAASURBVFpYWNDPz0/axps3b1JVVVUK1AsLC3n58mVWr16dGhoanDZtGpOTk5mcnMyWLVtKP3g/pjQQGzlypNz3zMvLiwC4fPlyufzOzs4cP3483759y8LCQm7evJlGRkbSPli6dCkrVKhAfX19jhkzhn5+fnRwcOCrV6+YnZ1NbW3tMuegvLw8Ghsbc9myZVLawoULqaWlxefPnzM/P59hYWE0NDSUvpsvX76ksbExFy5cyJycHKampvKHH35ghw4d5IKk0kCsfv36HDhwIK9du8bx48dTUVGR+/fvl/LFxcXRzMyMYWFhlMlkvHPnDlu2bElfX1+5vo4ePZoAmJ+f/8l9Wx7EGLH/MYWFhSD5xWb7fSkmJibIy8uTbgm873bL7ykrK3/WGAUfHx+EhIRg79698Pb2xpo1axASEgKg5LZcdnY2Nm7ciNatW5cpWzo2zMDA4JPt3L17FxMmTEBAQMAn8747buz3Kleu/NGynp6eSExMxNSpU/Hw4UPExMQgMzPzveN3zMzM3jv+7F1Tp07Fb7/9hoCAADx8+BBRUVFIS0uDvb29lMfW1harV6/G+vXrERcXh5s3b+L27dvvra9u3brQ19f/aJsf06NHD7nxboqKinBzc8OKFSsAlOznjh07YtiwYVKeYcOGyY1709TUhKGhYZnxZQYGBhg3bhxWrFiB48ePw8HBAWPHjsXq1aulPD179kRgYCCWLl2K4OBgFBUV4eXLl3B0dAQAmJqaIjExEcrKyjh79iyePHmC6OjoMtuhoaEBJSUlTJ06FUDJ8aqnpwcAOHXqFGrUqIF79+4hJSUFFy9eREJCAho3bvzJ/dOrVy80adIEFSpUwMWLF1FYWIjDhw+XubUJAK1bt4adnZ20rKWlhRo1anz0lldqaipOnz6NPXv2oHr16lK6vb09jI2N5fI6OzvD09NTWn727Blu3bold34xNzeHrq4uxo4di9jYWAwbNgz9+/dHly5dpDxDhw5F165dpWWZTIbi4mKpnwoKCjAzM4OGhgb69u2LXr16AcBnzVaMjo5GvXr1oKCggKysLNSuXRsBAQEYOnQoKlSogPnz5+P+/fuwtLSUymRkZEBJSQmvX79GzZo1UadOHaipqWHPnj1QU1OTa7dly5Zy7XXr1g0dO3ZExYoVERMTg4EDB2LBggWYNm2a1Gc1NTUpv4aGhlTf2rVr4ebmJq0bO3YsbG1tUVBQABUVFRQVFaFmzZoYM2aMlKdRo0ZQUVFBfHw8GjduDGVlZVhbW0NPTw8jR47E7NmzpbwjRoyAn5/fJ/dZqZycHGmCxtOnT6XhD69evUJWVhYqVaqES5cu4dixY1BUVJTaysjIwIMHD7Bz506MHTsWEydOxMyZM+Hj4yPXn1LvG7OqoqICW1tbubSHDx8iPz8fFy5cQIcOHeDm5gZFRUXpOLl27RoUFBQwfvx4qKqqQk1NDa1bt8aUKVOQk5NT5rw7d+5ceHl5AQCaNm2KxMREHD58GD169AAA7N69G8bGxtJn0rBhQ2kfBgcHy9UzefLk947T/V8gArFyJJPJygx2joyMxNu3b+VOgv8Lbty4AX19fSmYuHXrFoqLi6Go+OFhhoqKijAyMvpk3bq6unBxcUFAQACaNm0KS0tLuX8wAHD9+vX3BmKlgdrnio+P/+y8f5a/vz/Wr1+PAQMGYPXq1VBQUMCGDRuksXF/1J49e+Dn54ehQ4dixowZWLRoEWbMmIEXL15IeU6dOoWBAweiQ4cO6NSpE2bMmIHjx4+jf//+ZeqrUaPGJ4O/j8nKyiqTpq6uLrdsbm7+WcHx+yxatAhTp07Fhg0bsHv3btjb28PKygqRkZGoWrUqKlasiEmTJmHatGlYvnw5Nm3ahG7duknl8/PzMWPGDJw5cwYNGjRAjx49/vBswsePH6NVq1aoXr06GjVqBBsbG2hoaHxWWW1tbWzduhUjRoyAoaEhunXrhpo1a743EPsz0tLSkJaWhvr168ulq6qqlhng3KRJE4SEhGDWrFmQyWSoVKkS4uPj5T4vY2NjJCQkYPHixVi7di2CgoL+j70zj+sp++P/q0WLtEhJQspSQlnHViSaUogSgyaNZTBmkCEUUmSZGZlBNPZ1JtuHaZia7EuE7EsIbUr7vm+v3x/93J87WWfQzPd3n49HD+457/s+73s+53Pv+57zfp8PunXrBl9fXyERYdSoUQgNDUVkZCTu378PY2PjWjGKz/nrWHgTAwcOFAXra2lpiR6YsbGxCAwMFJy75ygqKqJhw4bCsby8vMiBehWDBw8GAFy5cgWDBg3CuHHjBGf8Tbzp2tTV1REaGoozZ84gMDAQ+fn5uHHjxisd63ftq7/i7e0tCtYniePHj+PTTz9FgwYNMG/ePBw8eBBmZmZYunQpkpOTYWxsjMaNG2PFihWiMS0nJwdzc/N3aj8xMRGdOnUSjj09PREZGQlnZ2c0b94co0ePhouLCz755BMAgK2tLa5du4bbt28jOzsbJ06ceO12K3+156/9NWfOHMjJySErKwvR0dEgiR07dtTSo62tDW1t7Xe6to+JFKxfh5SUlGDevHnIysoCUBPkvmLFCgwaNEh4UJ46dQqff/454uPjP6ptoaGhIjs3btwIOzs7aGhoYOLEiXj69KnojaOwsBDOzs6i4Nzq6mqkpqa+VXs+Pj5ITU1F165dMXHiRKG8QYMGGDt2LHbs2CEKnk1NTUVQUBDq1auHYcOGISQkRBSEnJaWhkuXLonamDJlCk6dOoXbt28LZVVVVfDz83srG9+Wbdu2Yd68eQgICEDjxo2hq6v7t/fDqaiowJgxY7Bw4ULMmzcPrVu3hq6ubq2H4PLly9GzZ09s2rQJrq6u0NXVfaWDGh0djZSUlL9lD4CXbisQGhqKbt26idp4Wbtv4tmzZ1i4cCG0tbXh5eWFK1euYNu2bYiOjsbWrVsFuU8//RSFhYXw9vbGvn37RI7Yvn37EBoaiv379yM8PBxTpkyBh4fHW19fUlISHBwcMHPmTFy8eBFbtmzB5MmTYWBg8Fbnjxs3Dg8fPsTFixcRFhaGqVOnon///qL+eRMvXs9fUVdXh7q6eq3+LC8vR2ZmpqjM0dERMpkMq1evxtGjR3HgwIFaGYTPnj1DUVERli1bhuTkZGzduhXp6enCQzM1NRVWVlY4deoU/Pz8cO7cOfz666/Q19d/6+t5HcrKykKiiq6u7iuzi1+U0dXVFTlh70pBQQFmzpwJc3Nz+Pv7v7cs9aKiIvTv3x/e3t6wsrLCqlWrcOLEidfOsL9P5OTkMHDgQPTq1Qu7d+8GUPNioqSkBAsLCwwZMkSYAdXV1RU5Nvwb23X8dUbM1NQUN27cwM2bN2Fra4vg4GD07t0bW7ZsAVDjuDk4OMDNzQ2nTp2Cubn5K2eZGzRo8MbVh8TERHz66adwdHREdHQ0MjMz/1NbuDxHcsTqEA8PD5iammLkyJHo3r077Ozs0LdvXxw+fFiYCi4tLYVMJntpptOHZOPGjXB1dYWLiwtatmyJsrIyIUutS5cukMlk+Pbbb9GnTx+4uLigS5cu8PLyQuPGjZGamop+/fqhtLQULi4uwhLZvn37cPjwYZw8eRJ+fn6ijVENDAwwatQoDB48WDST8nw2SUdHB3369IGvry+8vLwwZswYYdZw0aJFMDc3R69evRAcHIy5c+eif//+iI+Px/nz53HhwgUANVtemJmZYcCAAdi2bRv27NkDa2tr9OjRA0DNthabN28GULMtwYsZaPn5+cJy6blz54SMsYcPHyIlJQUPHjzAs2fPANQs/f3+++84efIkTp8+jalTp+Knn35Cfn4+UlNTUVlZifLycuzfvx8XLlwQlhNIIjU1FQUFBYiPj0dZWRnk5OTQpEkTnD59GsnJyThy5AicnZ1x9OhRJCcno6ioCFVVVWjatCliY2Nx/fp1JCcnw8vLC7Nnzxay4crLy1FZWSlsSPvo0SPhxltcXCxkkT3PXH0d0dHRmDdvHnJzc1FcXIylS5fizJkzCAgIAAB8//332LdvHxYuXIiCggIUFBTA19dXyGisrq5GZGQkUlNTa2X5NWjQADt27MDKlStRWVkJBQUF9OrVC3JycqLZHl1dXWFGbNiwYaKlk6SkJGhra6NVq1aoqqrCw4cP4ebmBgCibNTk5GSUl5fXesnJzc1FTk4OunfvDgUFBZSVlcHf3x/Hjx8Xnf+c5+OrsrIS1dXViIuLQ/v27aGlpYWqqirExsZi/vz5L33Y/1UfSVRXV4uyXf+KgYEBrKysEBQUJHK2//jjD9y9e1ekMy4uDtOmTUPbtm2hoKCA3NxcHD16VKTv2bNnsLS0RGJiIlRUVDBq1CiEhISguroaV65cwZUrV5CQkIDdu3ejZcuWUFJSQlpa2kcLn+jTpw/2798vuq6KigocPHjwb+nLz8+Hg4MDVFRUcOTIEaipqaGqqgpWVlaiWea/8jbL+SEhIYiNjcWxY8cwZMgQqKmpITc3V5TB+aHJzs7Gw4cPBXt79+6N69evIzY2tpbcu7wg/nWs5uTk1JrlHzNmDJ49ewZzc3Ns2bIFCQkJcHBwwMSJE1FYWIjAwEAUFhbiwYMHWLFiBdzc3DBw4MCXtte0aVO0aNHilfaQxMiRI6GqqorTp0/Dx8cHbm5uwv38P0WdRadJ/Ct5MVj/+vXrDAsLE2XwvUhKSgrDwsIYFhbGnJwcoTwzM1MoDwsLEwKyY2NjReVVVVUifYsXL2ZISMhrbfvhhx8ok8lEgdBkTZDs3r17OWnSJKH+jz/+4JIlS3jixAmR7KlTp7hs2TJu3LhRFHj/+PFjkX3JyclCXVxcHPft28dJkyZx0qRJQqC4n5+fULZhwwaSNQGkX3/9NSdNmsQpU6bw9u3bLCkp4bRp06ijo8NDhw5xz549wnkzZ84kWZNd+Lxs0qRJXLduHcmajLUBAwbQ0NCQs2fP5pMnT5iZmUlnZ2fq6ury5s2bTEhI4Ndff00dHR1aW1tz3bp1LC8v55IlS6ijo8PVq1fzzz//FOkvKipidXU1FyxYIJS9mP35MpYuXco2bdpw5cqVbNq0KXV0dOjk5MQ7d+6I5M6dO0cnJyfq6OhQT0+P33//vVB38+ZN6ujoUEdHh2PHjhWCqJ/z888/c9KkSfz000/p5uZGc3Nzfvfdd7VsyczMpJaWluhzIsno6GgaGhpSV1eXPXv25ODBgxkWFsaRI0fSyMiIM2fO5KNHj9ilSxfq6OiwQ4cOvHbtmnB+fn4+bW1tqaKiwgEDBrBjx45cunQpAwMDqaGhQUdHRyHLa+XKlVRRUaG9vT2tra0ZGxvL1atXU1VVldbW1uzXrx8HDRrEoKAgamtr097enr/++iu3bdvGli1bEgC/+eYboV0HBwcCYNu2bSmTyV75OeTl5dHGxoYdO3akvb29kIEGgObm5sL12NjYUE9Pj76+vvTx8eGgQYPYr18/NmzYkKtXrxYyjVu3bk0jIyPu3LmTcXFxnDBhAlu1asXc3Fwh2NzZ2ZkbN27k3Llz6eDgQB0dHfbr148pKSksLi5mUFAQGzVqxA4dOjA6Ovq144is+b7Z2NhQV1e3VlLPi6Snp7Njx47s3r07jx07xoMHD3Lw4MFC8PujR484dOhQKikpMSIiQnRvKCwsFDIwb968ydLSUg4bNowAGBkZyfv373Pjxo10cnLigAEDWF1dzaioKLZs2ZLdu3cXxtbt27fZpEkTjh49WsjIKyoq4uTJkwVdpaWl3LVrF1VUVCiTyZiRkcG1a9eyU6dOlJOTo7+/P8vKylhVVcX4+HgaGBhw0qRJLCkpIVkT/D5v3jxqamry0aNHr+yPkpISBgcHE4DQTkZGBtPT0xkUFEQzMzM2atRIlLTRq1cvNmnShLdu3WJGRgaPHz/Or776SriWrKwsqqqqctmyZbXurSTp6upKPT093rx5kxkZGdy9ezctLCyooKAgSlRatWoVjY2NhWdGRUUFnZyc2LNnTyF73NTUVLD57NmzbN++fa0kqBMnTlBPT0+UTVlWVkYnJychSSMtLY3a2tqcNGkSq6qqWFZWxiNHjrBx48bU09MTZWoeOnSIHh4eQkLYvw058l+6fbBEnRAZGQlLS0vk5+d/tOl0oCZ4dOnSpfD393+rOA+JuiEgIABZWVkIDAysa1OQmJiIn3/+WZiJ+ytRUVFQV1dH+/btAdQs3UVFRcHQ0PCt4tcePXqElJQUWFpaCrGQN27cQFVVFbp27SrI3b9/H+np6ejYsaOwXBYXF4ekpCS0bdtWiLN69uwZYmNj0aVLF2RmZgq7hpuamgpJAsnJyXj8+DGAmtitNy2HXrx4ERUVFTAzM4OWlpYwO9eyZUthNiEyMhJVVVVQVFQU4iyvXr2KoqIitG7dGk2bNkVMTAwyMjJQUlKC8PBwtGvXDu7u7lBRUQFQEzbxfLbY3t4ednZ2ePLkCTZt2oTS0lJ4eXnhu+++E+yys7ODvb39a23fvn07bt68CaBm5vt1YyozMxNbt24VZp09PDyEJa19+/bh4sWLAAAlJSV4e3sLGx4fOnQIZ8+eFfSMHTsWe/bseWkbgwcPRq9eveDj4yOUGRkZYfr06Zg7d66QqGRlZQVnZ2eEhYUhIiJCkB03bhw6dOiAXbt2Yf/+/WjSpAmMjIwwd+5c/P7771i1ahWcnJwwZcoULF68WDjPxcUFlpaWuHHjhhDfpKKignnz5r104+YTJ068dINaOTk54afdvvzyS1F8bnZ2NrZt24Y1a9YAqPmZvV9++UUIgenUqZMQ7jB9+nR8++23It05OTkYPny4MHtvZ2cHb29vTJgwARkZGXBzc4OXlxeePXuG7777DklJSVBVVUVhYSEqKiqwbt06tGzZElevXsXUqVOFmUcXFxcMGzYMy5YtQ3V1NZycnNChQwdMnz4dubm5MDQ0xIEDB9C4cWO4uLggOjoaioqK8PX1hbu7O3bv3o1ly5ZBW1sbDRo0gI2NDfT19REYGAhNTU1s2LAB7dq1w6JFixAYGIgtW7aIklf+LUiOmIRARkYGduzYgTlz5iA6Olr0sPkQHDt2DIsWLcLKlStx6NAh4QYn8e9l3rx5kJOTw/Lly+uk/fj4eOjr60NZWRnz58/HtGnT/r/agVtCQqI2N2/eRIcOHYQQhYqKCty/f1+UaTty5Eh4eHjAwcGhrsx8JZIjJiHw22+/wd/fXzi+fPnyB/1NzLy8PMyZMwc5OTkYO3askJIs8e9k06ZNWLRoEeTk5ODv7y9KqvhY9OjRA40bN0azZs3QtGlTLFy48KPbICEh8d9i9erVOHDgAM6ePfuv/J1nyRGTkJB4K14MrldWVq6T31iMjY3FkSNHYGdnBxMTk3/lTVVCQuLfxaZNmzBixIh/lGn7IZEcMQkJCQkJCQmJOkLavkJCQkJCQkJCoo6QHDEJCQkJCQkJiTpCcsQkJCQkJCQkJOoIyRGTkJCQkJCQkKgjJEdMQkJCQkJCQqKOkBwxCQkJCQkJCYk6QnLEJCQkJCQkJCTqCMkRk5CQkJCQkJCoIyRHTEJCQkJCQkKijpAcMYn/SeLj4/Hdd9/h8uXL70UfSaSnpyMsLOy96JN4NRUVFaisrHync8rLyz+QNRISEhIfFsW6NkBC4n2TmZmJH374AcHBwThw4MB70ZmcnAwTExOYmppi0KBB70Xnf41Dhw5h48aNtcqdnZ1haWmJdu3avZd27O3toaWlhYMHD76V/OnTpzF27FiEhYXB3Nz8vdjwPgkPD0dSUtJL6xwdHaGvrw85ObmPbNX7IysrC5cvX4aZmRkMDQ3r2pxXkpaWhvDwcIwZMwb16tWra3PemYKCAsjJyaFBgwZ1bYrEe0aaEZP4n0NHRwfr1q17rzfbZs2awcfHBw8fPsSzZ8/em97/Ep988gnk5eVx/fp1zJw5E/Pnz8f8+fMRFhYGCwsLeHp6vpd2PDw80K9fv7eWNzU1hZGREerXr/9e2n/f5OXlYcaMGZg/fz7u3bsn/J09exYmJib47LPP8Pjx47o2829jbW0NR0dH3Lp1q65NeSXR0dFo3749PDw8cPHixbo2553x8/ND69at8fXXX9e1KRIfAGlGrA6prq7Gw4cPAQDKysowMjKqY4vEkMSDBw/QsGFD6OnpvVTm6dOnKC0tRevWrV+rKzs7G9XV1dDR0fkQpn40CgsLUVZWVtdm1AkGBgbo3bs30tPTYWdnJ5RbWlrC3t4e69evx+TJk2FqavqP2vn888/fSb5JkyY4f/78P2rzQzJq1CiEhISgSZMmWL16taju8uXLsLS0RP369bFt27Y6svCfcfv2bSgrK9e1Ga+lW7duCA8PR/fu3d9Kfvv27ejbty+MjY0/sGVvh6+v73/SgZR4OyRHrI6IjIyEr68v2rdvj8aNG+PAgQPo3r071q1bByUlpTqx6fjx41i7di3y8/MxY8YMrFu3DidOnIC2tjYmTpyIxYsXQ1VVFQBw8eJFLF68GGVlZcjPz0eLFi2wYsUKmJqa4vHjx1i2bBmio6Nx8uRJbN68GYGBgSAJa2trbNmyBerq6pDJZFiwYAEAQE9PDzt27ECLFi2wYMECyGQyaGtrY//+/dDX18eRI0cQGBgIAwMD3L59G/Pnz4erqyvk5WsmdePi4jBnzhzcu3cPurq6mDFjBkjWusaUlBRs374dly5dgoqKCmxtbTFx4kQAQGpqKu7du4fHjx8LD8/ExEQ4OTkJN3AzMzMYGBhg586dghM9dOhQfPLJJ6J2EhMTsXXrViHWycbGBjY2NkJ9QUEBzp49i6KiIri4uEAmk+HmzZvQ1NSEu7t7Lcf31q1b2Ldvn3A8cuTIWstwZWVlOHDgAGJiYgAAgwcPRo8ePUTLXjExMbh69Src3NyQkJCALVu2QF5eHuPHj0eLFi3eapz8FXl5ebi4uODYsWMoLi4W2RwVFYWuXbuiTZs20NDQEOoKCwvx7NkztGnTBk+ePEFBQQEsLCwAAMXFxUhKSoKJiQmAmheC69ev12pXXV0dbdq0AVCzHK2srAx1dXWhPikpCU2bNoWCggIeP36MvLw8mJiYQE1NrZaurKwsJCQkAADatWsnjPMXiY+PR8uWLQEAd+/eRb169dC2bdt37S4Rn3zyCRQVFbF///6XOmK3bt1Cs2bNoK2t/Y/akaj57r4N5eXl+Pnnn9/aaftYaGlp1bUJEh8KSnx0srOzqaWlRT8/P6Hszp07VFVV5aZNm+rMrsjISFpbWxMAnZ2dGRkZyfj4eG7cuJHq6ur85ZdfSJIPHjyglpYWz58/T5KsrKyku7s77e3tWVJSwoSEBE6YMIFycnLs1KkTN2zYwPj4eO7du5eqqqr87rvvSJLV1dUMCAggAB4/flywo6SkhEZGRkxJSSFJ7t27lx07duS9e/dIktevX2f9+vX5xx9/kCTv37/Phg0b8ssvv2R8fDzj4+M5fPhwAuChQ4cEvXfv3qWpqSlDQ0NZUFDAjIwMmpubc+3atSTJQ4cO0dbWlsrKyjQxMaGnpydNTEw4f/58kmRAQACVlJTYsWNHjhw5koGBgZwxYwa1tbX56NEjoZ0rV66wdevW3L17N+Pj47ljxw42atSIO3fuFGQWLlxIPT09mpiYsFevXrS1tWVgYCA7duzIVq1aMS8vT5A9fPgw9fT0eOTIEcbHx3PFihXU0NAQ+p8knzx5wo4dO3LMmDG8c+cON2zYwObNm3PJkiWCjJ+fHxs2bMgmTZrQzc2Ntra2/P7779m2bVvq6OjwyZMnbxwjS5cuZbdu3URllZWVtLa2prKyMh88eMCCggIOGTKE06ZNY2BgIF1dXWllZcXc3FyS5Pfff88mTZqwe/funDNnDuvXr095eXlu3LiRQUFB1NfXZ58+fQT9W7ZsoaKiIm1tbTllyhR27tyZADhw4EDevn2bvXv3ZqNGjXjq1CmSZHh4OG1tbamurs6wsDBaWlqyW7du1NLSYuvWrXnr1i2R/atWraKZmRmtrKxoZWXFrl27ct++fUL9zp072bNnTzZt2pTh4eEcNGgQ69WrRxUVFfbo0YOpqalv7Ldhw4ZxypQptcrPnTtHRUVFfvnll6LyHTt20NHRkf369aOZmRlnz57N7OxslpaWctOmTbSzs6O3tzcPHDjAVq1a0djYmJcvX6abmxs7dOhABwcHkb7PP/+cnTt3Zo8ePUTloaGh7Nu3L0ePHs3Ro0fT09OTCQkJQn1OTg5//PFH9unTh4aGhnRzc+PVq1drXYeSkhJDQ0OZkpLCJUuW0N7ennPnzmVZWZlIrqysjFu3bqWnpyc9PT0ZEBDwVv1Hkrt37xbO+/nnn3n27FmWlpYK9ZWVldy5c6cgs2nTJlF9VFQUAfDMmTMkyaSkJEHW09OTN27cYEJCAh0cHAiA7u7u9PT0ZGRkpKDj2bNnDAgIoKenJzdu3MinT5+KbExNTeXZs2eZn5/P+Ph4rl+/npcvXyZZc787e/as6F7xOq5evcoFCxZw+/btTE1N5cCBAzlu3DiRTH5+Ps+ePUsvLy/+8MMPfPDgQS09jx8/5p07d0iSaWlpXL58OYOCglhQUPBWdkh8eCRHrA7Ytm0b5eXlRTcJkszKymJxcXEdWVXDrFmzaGZmxvLyclH55MmThZv46NGjCYCTJk3i5MmThToAwk0mNDSUCgoKfPjwoUiPq6srbWxshOOysjKamppy0qRJQtn58+e5cOFCkjVOmYGBAc3NzYW2Jk+eTGVlZbq4uLCyspK9evWik5MTKyoqRHpVVFREjpiLiwt1dXV56NAhhoeHMzw8nL1792azZs0EGR8fHzZs2JBRUVFC+88fJgEBAdTQ0ODp06cF+ZKSEgIQlc2aNYtubm6i67a2tmaHDh1EZePGjaOBgYFwkyTJmJgY1q9fX+SQDx48WNQ/JOno6EgXFxfhOCgocTZcEQAAIABJREFUiD169BD1wbp161i/fn3ReT4+PtTU1OTu3btZXV1NkszNzWWjRo0Eh/N1LF26lG3atBH6Lzw8nAsWLCAATp48mSQ5bdo09uzZk1VVVSRrHkA2Njb08PAgSRYWFnLKlCls1KgRZTIZ09PTefjwYcbFxbGoqIizZs0SOWIaGhqiPhoxYgS1tLR44cIFlpWV8dKlSwQgOGKFhYXcvHkzAdDW1pbXrl1jWVkZnz17RiMjIy5evFjQtWvXLiooKIgeYPPnz6epqanw/czNzaWHhwcBsH///jxz5gzT09N59+5d1q9fnz/++OMb+23YsGE0MzMTjeFevXpRRUWFnTt3Ft0L1qxZQ2NjY2ZmZpKsedjKyclx2bJlrKqq4t69e6mvr08AnDVrFoODg2lnZyc88BcvXszOnTvXsiEoKIgGBgbC8aNHj6iqqsrz58+zurqaly9fppWVlfA5kuTYsWNpa2vLtLQ0pqenc+vWrdTV1a3lgCgpKVFTU5NmZmZctmwZg4OD2aFDB06dOlWQqaio4OjRo2lra8vY2Fg+ePCAn332Gdu0aSMaty/Dz8+PysrKvHPnDuPj4zlp0iQCEK6ZJO3t7TlixAjGxMTw3LlztLCwEH1vdu/eLXLEKioq2Lx5c+ro6NDHx4ePHz9mSUkJ/fz8CIC+vr4MDg5mTk4OyZoXInNzcx47doxPnjzhjBkzaGJiItzjLly4wJ49ewrjztzcnC1btqSSkhLz8/MZGRlJAPz6669fe62lpaV0cXGhiYkJV61axSVLltDU1JQARI5YcnIye/TowenTpzM4OJgLFy5kixYtRONx6dKlVFVVZfPmzfnll1/SxMSEdnZ2NDExoaGh4Vs7wRIfFskRqwMmTpxIeXn5ujbjpcyaNYu2tra1ylesWEF5eXnGxcWxSZMmdHR0ZGFhYa2/5w/30NBQKikp1dLj5eUlcsRI8qeffqK6urrwJj5q1Cimp6eTJE+ePEkAXLRoEXft2sVdu3YxIyODISEhjI2NZUFBAQEIs3Uv8qIjlpGRQW1tbbq6ugp6nv+9OPvh4+NDKyurl/ZNQEAAu3TpIip77ojNmjVLKCsrKxMeLJcuXaJMJmOHDh3Ytm1b0bnjxo3j6NGja7XTqlUrBgUFCccnT54UHnwxMTGUyWS0sLDg4MGDBZn79+8LMxVZWVmUyWT84osvqKCgINLt5+fHTz75pFabtra2omt4FUuXLiUA2tnZcfjw4Rw+fDhnzJjBc+fOsbKyksnJydTU1GSnTp3o5uYm/I0YMUL0UPT09HzpOCPJBQsWiByxF53cb7/9lg0bNuTFixeFstLSUpEjRtY8FAEwKytLpLtHjx4iR0wmk3HFihUimcWLFxMAk5OThbLt27dTT09PcC6f07BhQ7q6ur6uy0jWOGI2Njaicbd69Wq2bNmSLVq04G+//Uby/43TRo0aifoPAPX09AR97dq144gRI4Tv24ssX778pY7Y5s2bRY7Yc8dg1KhRgp60tDROmzZNkNHX1+eff/4pHFdXV7N79+5cunSpSLeSkhLd3NxEM2Dnz5+ngoKCMBOan59PADx79qwgc+rUKQIQfQdfxpgxY6iiosLr16+TJKuqqjh79myuXr2aJLl+/XoqKytz//79lMlklMlkdHFxoYKCAjMyMkjWOGLq6upMS0sjWfNdsLGxEWban5OYmEgAIuc/JSWF9erVY3BwsEh25MiRtLe3F47T09OF+0F5eTnLyspE98Vjx47VcmL/yqJFi9i4cWPBbpKMj4+noqKiyBELCAhgt27dRGPA399f9BmXlZXxq6++IgAuXbpU9HJhaGgorE5I1C1SjFgdoKCgUNcm/C00NTWFzDQFBYWXxtr8Hdzd3bFkyRIcPXoUI0eORJMmTaCrqwugJtYKAOzs7NC7d2/hnFGjRgGoiTUCagLJX0dRURGys7PRqVMnuLm5vRe7X+TFfa9u3ryJ+fPn4+LFixg2bBj69OkDAGjevPkb9eTk5KCgoEBUZmBggAULFuCPP/6Ara0tAKC0tLSWjKenJw4fPgxjY2O0adMGKSkp//SyXkrXrl0RHh7+0rq8vDzk5eXh4MGD7y3QuV+/fiCJ1atXY/Xq1QgPD0fPnj3f6tw3fdeGDx+O2NhYLFu2DNeuXcOlS5eQlpaGHj16oGnTpiJZOTk5ISbx79C2bdtaY2/mzJkwNTXFyJEjERcXh/LycmRnZ+P48eOimMKdO3fW0te7d+9/tO1F7969MWPGDAQFBaFevXqYMWMGXF1dsWbNGkEmOTkZFRUVOH36NJKTk3H37l1cuXIFjo6OtfSNHDlSFN+qqKiIqqoqIVZTXV0dly9fRufOnZGamooTJ07g+PHjAGriLF/HiBEjcODAAXTu3Bn9+vWDq6srvLy8hPtESEgImjZtirCwMDg6OuLkyZPQ19fHvn37UFBQICQJFRQU4ODBg/jll1+QkpKC27dvv1W27YEDB6CgoIDJkyeLyl1dXeHq6oqCggKoq6tDUbHmkTpq1Cgha/vFPhk4cOBr26moqMDBgwcxfvx4UWKToaEhXFxcRLLOzs5wcXGBnJwcSkpKUF1djStXrqCqqkqQUVJSgqKiIgYNGgQfHx+hXFNTE9ra2iJZibpD2r6iDvj666+hoqKC7du3i8rPnz+P06dPC8eZmZmoqKj4uMah5ub73MEBarI7Y2Nj0a9fPzRu3BjW1taIiopCSUmJIFNVVYVz584hPz//ndvT0tKCo6MjAgIC8O2338Ld3V2os7S0RL169XDq1CnROeXl5Th58iTq1auHZs2aYf/+/a9to3HjxjAzM8PZs2dRXV0tqvur4/NPyMrKgoODAzQ1NZGfn489e/bgq6++go6OzlttOqqoqChyHmJjY2FpaQldXV2kpaVh9+7d2L17N/r27SvIlJeXY/Dgwbh37x4uXryIS5cuYffu3bVu3O+Lt3n4//bbb++1zUuXLmHOnDlYsmSJ4IxmZ2e/NCHjXdi1axc6deoEkpg2bRqSkpLg4+ODx48fIycn532Y/kamTJmCsrIy0fYP5eXlkJOTq/X3vvnxxx9x7do1LFy4EOHh4ejVqxemT5+OyspKVFZWIjAwEObm5tizZw8qKirQt2/fv50VSxLnz59H9+7d0adPH5w5c0ZIfoiMjHztucOHD0dcXBwWLFiA1NRUzJw5E23atBGyZa9cuYI+ffpgy5YtcHZ2xrp167B27Vo4OzvXykZfsmQJSCIzMxNXr159K9ujo6NfWv5XZ/2fUlxcjLt378Le3v6Nsi1atMDx48cxdOhQtGrVCjNmzHiv9zKJj4fkiNUBHTp0QHBwML755hv4+fnh/v37WLJkCTZv3oxevXoBqNmkUldXF4sXL/7o9t27dw9DhgxBQkICEhMTsWjRIuzfvx+zZ88GULOnTVlZGZydnZGYmIjExETMnTsXq1evhpKSEkpLS5GRkYGqqirRDSwvLw/3799HaWkpioqKRG36+fkhPT0dd+7cQfv27YXyVq1a4euvv8bSpUuxd+9eVFZWIicnB1988QXKysqgrKyMUaNGYfPmzdi7dy8qKiqQk5MDX19flJeXC86iqqoqlixZgpMnT+Lw4cOCMxYSEoKtW7eKbElOThY5mS9SXl7+2l3fU1NTkZubC0tLSygoKIAkTpw4gRs3biAtLe2NfV9WViZyvq9du4aMjAzRvloRERGiDMqSkhKcOXMGnTt3FrYRefjwIXbv3v3G9p6f/6oHzV95MSvyZRgaGmLAgAEICQlBVlaWUP706dO/7ZxdvXoVQ4YMgb+/P7y9vQHUbPswePDgWk71uzJ9+nQMHjwYPj4+6N+/PyorK5GXl4fmzZuLsjxfx8syLN+Fc+fOQU5ODqqqqlBXV0fjxo2xZ88e0TgjiTt37vztNl52/vbt27Fq1Sp07NgRvr6+uHnzJtasWYOgoCD8/vvvCAkJwezZs7Fp0yZs2rQJHh4esLW1/dvXe+DAASxYsACbNm3C48ePsXHjRmFcv+m7sXTpUjRs2BBLlizB/fv3cezYMTRo0AAeHh4oKSlB3759X7oXW05OTq0xEhISgoiICPTr1w9Dhgx5q30BW7VqBZK17guPHj2CiorKe3OS5eXloaKigqNHj75WrrKyEhMmTMCqVavg4+ODlJQUbN68GR4eHu/FDomPTF2tiUrUxPV4e3vT29ubx48fZ0lJiVCXlZVFb29vUTDqx2DWrFns0aMHg4ODOWDAAJqamtLR0ZHh4eEiubi4OLq7u9PU1JSmpqacPXu2kGiwZs0aobx9+/a8e/cuCwsLOXz4cKHcw8OjVryNq6urKLj+OeXl5fT396epqSlHjBhBFxcXHjt2rFa9kZERu3XrRhcXF+7fv5+NGjWihYUFt2zZIsju3buXXbp0YdeuXTlkyBBRvNCGDRvYv39/mpqacvr06aysrBTqwsPDaWVlRQAcM2YMCwsLmZKSwtmzZxMADQ0NhRgld3d3amtrc/LkyRw7dizt7e3p6elJLS0tzp07l1FRUfzxxx+pp6dHHR0drlq1imRNNq2LiwsBCJl7mZmZ7Ny5M1u0aMGAgAA6ODhw7NixtLa2pqamJpcsWcKYmBg6OTlRWVmZXl5eHD16NJ2cnDh+/HjKy8vz66+/ZlhYGHfs2MF27dpRTU2NCxYsYElJCaurq+nr60sANDIy4pEjR145Nnbu3MmmTZuyfv36XLBgwSsTS+7cucN27dqxe/fu3LZtG7ds2UJnZ2fm5+eTrMkGMzIyYuvWrUXxR8/HlZOTEw0NDXnjxg3GxMRQW1ubGhoajImJYUxMDNeuXUtjY2MGBASwoKCAYWFhBMBly5YxLS2NGRkZXLVqFQHw8OHDzMvLY2VlJa9du8bmzZuzZ8+ejI+PJ1kTM9axY0eePHmSR48epbu7O42MjISg7qSkJCYnJ/Obb75hgwYNeP78eeF7evHiRaqqqnLWrFlChu/LePr0KbW0tGhlZSVcQ0xMDPfu3csRI0ZQXl5eNA537NhBJSUlTp8+XZB1d3fnpUuXSJKZmZls1aoV3d3dRWP0OTKZjPXr12dISAhjYmJ44sQJDh06lPr6+tTT0xM+t2vXrlFbW1v0mR8+fJhKSkqMioqiv78/AQgxTUlJSZw1axYBiOwla2LE9uzZIyo7duwYAQjB7mPHjqWOjo7Qfnp6Op2dnV8Z4/kikydPpq2tLQsLC4Wyb775hi1atGBRURH37t1LeXl5IQOaJB8+fCjEspK1Y8SKiopobW3N7t2788KFC8J5z2PEXoxDzMnJoYaGBv39/YWykpIS2tnZiWLqsrOzCUD4rF4kJyeHAQEBvH379muv9auvvmKrVq1E2ZUpKSnU1dUVru/x48cEIIpvzMvLY69evdikSRORvunTp7Nv37614gk7d+7M5cuXv9YWiY+DHPkP5/Yl/qf49ttvcfv2bURERHzUdp/PsO3atetv75lUVlaGlJQUYSkiOTkZGhoaor2lnvPw4UPo6elBU1PznfQ/efIEANCmTRsoKiri6dOnwnJAo0aN0LhxY0F/VVUVNDQ0hPi127dv48yZMxg9ejSysrKE+Ax5eXmYmJigvLxc9FbfoEEDNG/eHLm5uTh//jweP36MIUOGwNjYGEVFRTh06BASExPxzTffQFVVFUePHsWdO3fw6aefonPnzlBUVMSJEycQFRWFIUOGQENDQ/RG37ZtW8jLy+P+/ftCmZKSElq1avXS64+Pj0dJSQlycnKEJdhXxWAVFxfj8OHDiIuLQ/PmzeHs7Cz8NMvvv/8uLMPp6+tj/Pjxwnl//vmnMDvXuHFjWFlZvfKnjsaPH4+CggLRsnSvXr2gqKiIc+fOCWXDhw+HsbExVq1aJZQZGBjAw8MDKSkpCAgIQFRUFIyNjTFnzhxYWFhg2bJlOHLkCEaOHIkGDRogJiYG+vr6iI6ORnBwMJSUlLBx40ZUVlYiNDQUPj4+r4xzWr9+PcLCwmrF7Jmbm6N169bo1q2baINcAAgNDcWePXvw6NEjAEBwcDC6d++O4uJiTJw4EQ8ePABQEzs1f/580bnl5eVYuXIlDh8+DKBm+WzmzJkoLCzEwoULYWRkhF27dkFDQwMeHh64ffs2unXrBi0tLURERGDGjBnw8PBAcnIyZs6ciUuXLqFBgwZo0KABPD09ce7cORw7dgyjRo3C3LlzYWtri8uXL0NTUxOrVq3C+PHjcfjwYUycOBFZWVkwMTFBSEgIqqurMXz4cMjLy0NVVRUmJiaYMGECFixYAGVlZQwePBgLFy58aR+eOHECo0aNQsuWLWFvb4/79+/j2rVr+OmnnzBkyBAANbPqP/30E4yNjWFkZISMjAzs3r0bzZo1w4ULFzBz5kxcuXIFAwYMwI4dO5CXl4cvvvgCly9fhrq6Ovz9/TFz5kzk5+ejd+/eKC8vx4ABAxAXF4fDhw/j6tWrcHd3x8CBA6Grq4vr169DQ0MDgYGB0NfXx61bt7BixQr8+uuvsLOzw9y5c9G/f3/hGv7880/Y29vDxMRE9J37K8+ePYOdnR2Ki4vx2WefISMjA3l5eThw4ADat2+PJUuWYNCgQZgyZQqOHDkCNzc3qKqqIjIyEq1atUJISAgOHTqE9u3b486dO1iwYAGuXLmCefPmYfny5QBqlqTnz5+PXr16ITAwEJ06dXqlPRIfHskRkxDx7bff4ty5c7h48eIHTyq4f/8+5OXl0bZtWxw6dAgPHz7E3LlzP2ibEhL/P1NVVYXU1NRayS1FRUXIzMyEnp4eVFRURHVJSUmorq5G48aNoaqqisrKSiQnJwOo+emvlJQUYflPXV0d2trayM3NRV5enqBDR0cHampqKCgoQHZ2NoAaB7FevXooKSnB0aNH0bx5c/To0eOVtmdmZqKqqkpIVNHS0qr1IpWWlvbS+szMTFE4hL6+PoqLi0U2qqmpCQHyeXl5yM3NBQBoa2sLL3OFhYW4fPkyHj9+jE8//RQGBgZCgP7zPnzOX+0jiYiICMyZM+eNPweVn5+PCxcuICYmBhYWFrC2toZMJkNSUhIsLCxgY2ODiooKRERE4OHDh2jSpAmGDh0KVVVV/Prrr0hPT0ePHj2EAH6gJrZz5syZAIC9e/cKLwbNmjWDq6vra+2R+LBIjpiEgJ+fH9atW4fMzEx88cUX2Lx58z/KEnsTM2bMwMaNG9G/f3/Uq1cPW7duRaNGjT5YexISEhJ1RXV1Nb744gv069dPNAssISE5YhICz549w4kTJwDUvDEOGDDgg7ZXWVmJ06dPo379+ujZs+cHdfokJCQk6hKZTIaoqCgsX778P7uFkcSHQXLEJCQkJCQkJCTqCGkKQkJCQkJCQkKijpAcMQkJCQkJCQmJOkJyxCQkJCQkJCQk6gjJEZOQkJCQkJCQqCMkR0xCQkJCQkJCoo6QHDEJCQkJCQkJiTpCcsQkJCQkJCQkJOoIyRGTkJCQkJCQkKgjJEdMQkJCQkJCQqKOkByxfxG5ublITU2tazMkJCQkJCQkPhKSI/YvYf369bCwsMBnn31W16b85ykuLsb333+PYcOG4fTp0+9FZ0JCAoKCgjB16tT3ok9C4p+SnJxc1yZISEi8ByRH7F/CV199haFDh9a1Gf8TZGZmoqKiAkePHkVubu570Xnu3DmEhobi8uXL70WfhMQ/Yf/+/TAzM8P58+fr2pQ6oaSkBCtWrMCFCxfq2hQJiX+M5Ij9i2jQoEFdm/A/QYsWLeDt7Q1FRcX3ptPNzQ39+vV7b/ok/je4d+8erl279tHbVVNTw4ABA9CuXbuP3va7kJmZ+UH0pqWlYcmSJdKLkcT/BJIjVodcu3YNGzZsgKen57/mzTYnJwfR0dEAgGfPniE8PBwxMTEvlX1ef+rUqZfW37p1S/h/VFQUIiMj/5FthYWFCA8PR2lp6StlXmxTQuJDs27dOjx48OCjt+vg4ACZTIZGjRp99Lbfhblz534QvS1btsTTp08xefLkD6JfQuJjIjlidcShQ4fQu3dvPH78GN26dcPatWuxatWqOrVp3rx5aN26NSZOnAgfHx+0bt0aCxYsgLm5OSZMmCCS9fX1Rd++fbFp0yasWrUKnTp1wqVLlwAAO3bsgJmZGXr27IkzZ86gd+/esLS0RN++fdGsWTPk5OQAANauXQs1NTWoqanB0dERiYmJAIAxY8ZATU0NNjY2AIAnT55g4sSJ+Oyzz7Bp0yZ0794dO3bsENmzefNmGBgYYN68ebCwsMD06dNRXV1d6xr37duHAQMG4PPPP0e7du2wcOFCoe7kyZOYOnUqnJycEB4eDhsbG2hoaCAsLEykIzMzEwsXLoSmpiZMTEzwxx9/1Gpn27ZtGDBgANTU1GBra4udO3eK6q9fvw4fHx8EBQUhPj4enp6eaNasGYYOHYrr16/X0rd9+3a4ubnh888/h5ubGyIiImrJXL9+XSQTGBgo6oPY2Fhs374dvr6+yMjIwPr16+Hm5gYPD4+XtvlXYmNjsWzZMoSGhgp94Obmhg0bNtSSzczMxIYNG/D5559j7dq1SEtLE+pI4tatW8LLx5o1a7B582ahPjc3FzKZTPh7fg0lJSWi8idPngAAkpKShLI7d+4Iem7cuCGUP3v2rJaNJPH777+juroaCQkJkMlkyM7OFurT09OF85+/nDwnJycHvr6+2L59O65cuQKZTFarD8PCwoTzX0ZmZibi4uIAAImJiZDJZO/0IkHytWUkXyrzuvNfJvMmHa+qX7BgAeLj4/+27jfZ2LBhQ6iqqr72fAmJ/wSU+OhcvnyZCgoKjI6OFpWPGzeO/fr1qxuj/i+fffYZFRQU+P3337O6upokeeXKFcrLyzM4OJgkuWXLFurr6/P+/fssLCxkYWEhp06dyp49ezI/P58kGRwcTAAcNGgQ09PTSZJRUVFUV1fn2rVrhfZWrFhBALxw4YJQlpqayv79+7Oqqorl5eW0tbXl6NGjRfVqamo8fvw4SXLt2rXU1NQU6Zg2bRoB8NChQ0LZxo0b2apVKxYXFwtlzZs358KFC0mSJ0+e5IgRIwiAw4cPp0wm4+eff84tW7aQJAMCAgiAPXr04K+//sqKigrOmTOHSkpKvHPnjqBz5cqVtLCwYEVFBUny4cOH1NPT408//SSyz9jYmM2aNaONjQ19fX0pk8lobW1NbW1tZmdnC7ITJkyghYUFb9++TZIMCQmhqqoqw8LCBJn9+/dTXV2dMpmMJHnz5k22a9eOM2bMEGT8/PxoYWHBhg0b0srKirNnz6ZMJuOoUaOorKzMmJiYV4wKMi8vj87OzpSXl6eZmRlNTEwYGBjIdevW0cjIiOPHj2dlZSVJ8tSpU2zZsiV//fVXVlZWMjAwkG3btmVycjJJcvLkyZSTk2OHDh1oY2PDMWPGUFFRkefOnWNCQgI1NDS4aNEiJiYm0tvbm/Xq1eNvv/3G4uJient7EwBtbW15/vx5kmRSUhK7du3Kbt268fbt28zOzqaDgwOdnJwok8m4Zs0aGhkZ8bfffhOuZ/369axXrx4B0N/fn2pqalRQUKC1tTVJcunSpWzdujUDAwO5du1a9u7dm5MmTWJVVRVJ8tGjR3Rzc6OSkhItLS3p5ubGbdu2kSSfPHnCdu3acfLkyZTJZHR3d6exsTFTUlJIksnJyXR0dKScnBzt7e3p6elJU1NTjhw5kgoKCpw7d+4rPweS/O2339ihQwcCEL5b+/fvp6OjIwFw06ZNdHV1pZqaGlVUVNi1a1fGx8cLbZuamtLU1JSffPIJc3NzmZKSwn79+tHZ2Vn4TmVkZHD+/Pk0NTXlwIED2adPH549e1awISMjg15eXtTW1qaamhpdXFw4ZswYYQxMmzaN9erVo4KCAq2srOjm5sarV6+SJG/dusXx48dTT0+PKioqnDBhAmNjY0XXeO3aNQ4ZMoT169dnr169OHz4cK5atYokWVBQwF27dtHd3Z2///77a/tKQuK/gOSI1QETJ05kq1atapXPmzevzh2xWbNm0dbWtlb5qFGj2KlTJ5Kkubk51dXVqaurW+svLi6OJBkaGkolJaVaelq3bi1yxIqLi2lgYMCAgAChbOHChTxx4gRJMiwsjADYqVMnurm50c3NjQ4ODtTV1eX48eNZXFzMRo0aiXQ+R0VFRXDE8vPz2aJFC+rr6wt63Nzc2KFDB5qamgrn+Pj4sEOHDiwrK6ulLyAggK1btxY5ciUlJQTA06dPC2Vdu3blypUrRedaW1vXesCOGzeONjY2orKbN28SgPDQLi8vp4qKCg8cOCCSa9q0qeAgkqSDgwMdHR1FMhMmTKCrq6uozM/PjyYmJkxISBDKCgoKCEBwbF5Hly5d6OHhwZKSEqHs3LlzBMCdO3cyOzubFhYW7NmzJ9PT05mens6EhAQC4MyZM4VzDA0N2axZM8GOW7dukSSXL19OACIn87fffuPUqVNJkkVFRezfvz8HDx4sOEXV1dV0dHTkgwcPSNY4WXp6eszNzRV0LF++nE2bNhVdy6+//koA9PPzI1nzwvHgwQM+efKE9evX55EjRwTZ2NhYAmBkZKRIR8OGDfnLL7+Iyuzt7Tly5EjhuLq6mi1btqSvr69IrkWLFmzevDlDQ0OFskWLFlFNTY2JiYm1O/8F/vjjD5EjVlVVxblz5xIABw4cyMePH5MkMzMzqampSU9PT+HcNWvWEIDI8d6+fTtdXFxIkpWVlbS2tqa3t7dQHxoaSlVVVcGZdnd3Z7t27VhaWkqSPHr0KA0NDXn06FHhHC8vr1rju7i4mK1ateKKFStIkllZWZwyZYros8nPz2fz5s1pZ2fHkpISZmRkcOrUqVRTU2NZWRmLi4vp5eVFLS0trl69+rX9JCHxX+D9RTNLvBOdOnWqaxPeic6dOwuxMOnp6Vi7di3GjRv3j/Wqqqpi5syZWLlyJSZNmgQNDQ1ER0e9desOAAAPKUlEQVRj0aJFAGqCcjU1NREREQFdXd1a59+4cQNZWVno3Lnza9vJzs5GYmIiAgIC4O3t/VrZhg0bQklJ6aV1Ghoab1wOiY6ORlZWFg4ePIjExEQkJCTg+vXr6NGjRy1ZPT291+qqV68ebty4AS0tLdy9excRERHIzs6uFQS9efNmKCsrIyEhARERESgsLERERAR69uxZS6empiZatGjx2nZfR5s2baCioiIcf/LJJzA0NMT169fRrVs33Lx5ExMmTMDy5csFGU9PT/Tt21ekp127doIdHTt2BAA4OTlh+/btGDVqFMaNG4c+ffpgyJAh6NOnDwCgfv368PHxwcCBAxEfHw9jY2Pcu3cPGhoaaNu2LQDA0tIS69atg6amJkpKSpCeni5aGn1O48aNAdQsyQNAt27dAABFRUWYNWsWLC0tAdQsG5aVlb11/7i7uwu6s7KyUFBQgAYNGrzUhqlTp2LIkCHC8fjx4+Hv74+ioqLXtvHXcSMvLw8vLy+sXLkSy5Ytg7GxMQCgUaNGcHJyErX92Wefwc/PD/v37xeW5mUymfB5bdu2DadPn0ZhYSHy8/NhbGyMS5cuoaSkBLt374aXlxcKCgrw9OlT7Nq1C0OHDoWDgwM2bNiA4uLi19pdWFgIZWVluLm5AQC0tbUxePBgbNq0SZCpqKhAWVkZ0tPTERkZif79+2P9+vUwMjJCXFwcTExMsHLlSoSGhr62LQmJ/wqSI1ZH1EWA7z+hoKBAdHzq1Kn34ogBwOTJk/Hjjz8iODgYhoaG+PTTT0UZj3l5eYiNjX2pI1ZeXv5ebHifbN68GQEBAbCyskLv3r3h7u7+txMVSGLPnj1Yt24d+vbtiz59+mD48OH4+eefRXL379/H4sWLkZ+fD0dHR1hYWKBLly7v43LeiJKSEkxNTUVlCxcuhKGh4TvrateuHa5du4b9+/cjICAAa9euRevWreHv74/Ro0cDAHr37g1TU1P89NNP+Omnn3DgwAFMmTJF0NGmTRvExMSgT58+0NLSQkVFBZSVld/aBjU1NQwdOhSTJk1CWlraWzn6L2Jra4s9e/Zg8eLFqK6uRk5ODp4+fSo4di+io6Pz1nrfF7q6uhgzZgwOHTqE+fPn48mTJ0hMTISZmRmAGuexTZs2ojHWr18/eHl5oU2bNgCAZcuWobq6GlOnTsXs2bMxevRojBo1CoMGDXpj2zdu3MCjR49w4MABxMXF4ejRoyIZbW1tfP/99/j2228xcOBAWFhYwMXFBRMmTEDTpk3fc29ISNQ9UrB+HTBixAjcu3cPBw4cEMpKSkpemgZ/584d7Nmz52Oah0ePHolmAMrLy3H48GG4uroCAFxdXXHw4EFkZWUJMmVlZVi7du0b3+Rfhrq6Ouzt7bFu3TqsXLkSY8aMEerat28PALUcmUuXLuHmzZvo0KEDNDQ0sG/fPlF9Xl6eKNBXS0sLTZs2xb1790Ry1dXVuHnz5jvb/CpiYmLw1VdfISgoCDt37sSUKVPQpUuXv701SVhYGJYtW4bt27fj8OHDmDNnDrp06YJ69eoJMoWFhRgyZAgMDAwQFRWFpUuXwtXV9aM95EtKSmpl/R47duxv6Tpz5gySkpIwbtw4XL9+HSdOnIC+vj7Gjx8vBOerqqrCy8sLW7ZswZ07d3DmzBnRbNtXX32FOXPmICgoCL///jsiIiIwfPjwt7bh0KFDsLS0RM+ePbFnzx7cuXMH69evf6tzy8rKMGjQIGzevBlr1qzB2bNnce/ePQwYMODdOuJv8C597urqiuvXr+PRo0c4ePCgMAP9nLy8PLRs2RJdunQR/amrqwMATE1NcfjwYcTExGDChAmIiIjAgAED8MMPP7y23aSkJPTp0wfjx49HUVERbG1tMXv27Fpy7u7uuHfvHvbu3Qs1NTUsXrwY5ubmuHLlyltfo4TEfwXJEasD7Ozs8OOPP8LDwwNjxoyBp6cnhg8fjpiYGERFRcHf31/IFJs9ezYmT5782uyj901cXBysrKxw5swZnDhxAp988gmqq6uFVPHZs2dDU1MTAwcOxL59+xAREQFLS0s0b94campqePToEY4dO4bKykrs27cPubm5KC0txZEjR5CZmYmQkBDcvXtX1Oa8efNQVFSEli1bCss6ANClSxcsWrQI3t7eWLlyJc6ePYu1a9di+fLlMDY2Rv369TF//nxs374dwcHBQqabra0tysrKBGdRU1MTwcHBOHr0KIKCglBRUYHMzEzMnDlTlBGXmZmJvLw8VFRU1OqXzMxMFBYWvnT7jOdLhaWlpaioqEB+fj4AICMjA0uWLEFUVFSt5cSX7bH0vOz5vwUFBVBUVBRmA4uKihAQEIC0tDTcvn37/7R3byFRdX0YwJ+ZPWnGRBevHbAmoqy0bNCslKKDabHJyrJ0SiOSEsmktKy0E9IZQb2IDloQGYUdjYo0OlDYidCy7EJGO6AzmZmQpGg1zvNeiJvms97i+76yeP+/y733rL1mjzP8XWs9ewMA2tvb0dLSAj8/P23kJy8vD+fPn+9yji+L5//WvXv3XAr1nJwc6HQ6JCYmwtvbG8HBwThy5IhLUvHcuXMoLCz8bttWqxUpKSloa2vTkrMrV66Ew+FAU1OTdlxMTAx69eqF+fPnY9myZS5tlJaWIiIiAv7+/tDr9WhoaPjqExa+dS2ePn0Kk8mElStXYtCgQQA6ErU/oq6uDqWlpcjJyUFAQAAURUFDQ4P2Wf1MI0eO/OFjg4KCMHbsWGRkZODYsWOIiIjQ9pnNZrx9+xZVVVUur3nz5g2qq6sBALGxsSgrK4O3tzeysrLw5MkT+Pr6IiMj4x9/q3bv3o36+nrcvn0bmzZtQnh4uHaNO9XW1mLixIkwGo2Ijo7G3bt3tX/EkpOTf/g9CvHH6O5Fav9mZWVlzMvL482bN9nS0kKbzca8vDza7XYtsVheXu6yEPxnW7t2LadNm8bi4mIuX76cqqpy165drK2tdTnuw4cPPHToEFVV5bx581wSVYWFhVRVlaqqMiEhgXa7nU1NTUxJSdG25+bmdjm32WzWkoFfam9v571792ixWKiqKjdu3KilMzv35+fnU1VVRkVFccOGDbTb7ZwzZw4jIiJcFrXfuXOHkZGRjImJYXR0NIuLi7V9W7duZXh4OFVVZUxMjLYQmSR37NjB2bNnU1VVLl68mE1NTXz9+jWXLFlCVVU5f/58lpSU8PPnz9y4cSONRiM9PT05depUXr16lTt37qSiKLRYLFqiUafT0cPDg3v27CFJFhcXc8CAAQRAo9HIW7dusaWlhX5+fuzZsyc9PT05btw4Zmdnc9GiRXRzc+OKFSv4+PFjJiUlUVEUenp6ctiwYUxPT+f27dupKArj4+N54sQJLl++nAaDgQaDgdOnT2dLSwtLS0u1BJ6XlxcvXLjwj38fY8eO5YgRIzhjxgzGx8czICCAXl5ePHHihHaM3W5nSEgIhw4dyvj4eIaHhzM1NZWfPn0i2bEg3Wg0ctCgQdy/f79L+7W1tTQajfT29uaBAwdYVFTE0aNHc/Xq1V36smnTJvbr188lPEF2LCQ3GAzMyspiYmIiQ0JCGBYWRr1ez3379vHOnTusrKxkYGAgATA3N5f19fXa6w8ePKiFC44ePcpZs2YxODiYf/31FxcvXsyioiI2NzeTJH18fBgaGsrc3FyGhYXx2rVrHDx4MMePH8/z589z1apV9PHxYf/+/env78+ioiLa7XaePHmSRqOREydO5KNHj0iSNTU1TEpKIgBmZGR0eV+dnj9/zvT0dAJgdnY2HQ4HX79+zTVr1hCAS5KwoaGBvr6+DA0N7dJOZmamdq4vORwOhoSE0GQyad/rS5cuccaMGVoY58CBAzSZTLx9+zbJjkBCUFAQzWazlhbesGEDvby8+OLFC9bV1fHp06eMjY3lgAEDaLVa+f79e+bn59NsNlOv12ufgcPh4JgxY5iQkKCFQurq6jhkyBCmp6eT7Pj9MZlMTEtL0/p9//59BgQEsKSk5KvXTYjflY78gZvJiH+NdevWoaKi4qv3qfqZ6uvrsXr1ahQUFECn0/3Sc/8Mra2tIAl3d3coigKSaG1tBdAxtdbW1qZNnRoMBri5ucHhcLiseXNzc4PBYHDZ3qNHD/To0QNOp1MbmXN3d4der9faVxRFGxnr7IfBYABJtLe3a+17eHjA6XS6jG51tv8tgYGBWLBgAdavX4+HDx/i06dPmDRpUpdwg9PpRE1NDe7evYvIyEiXgENbW5s24vtlX/9z/5UrV/Dx40cEBQXB29u7S1+uX7+OBw8eYMuWLS7bOx9v1TlNvmDBAri7u+PixYt48OABLBYLSGrT1DqdDhaLBYqiaH0vKyvDmTNn0KdPH0RFRWHYsGGwWq3IyclB3759kZaWht69e6OmpgYFBQWoq6tDVFQUgoOD0djYiJycHDQ2NmLKlCmIjIyEzWbDqVOn0NzcjISEBJdH85hMJkyZMgVVVVUud4qfMGGCtibrS8+ePXOZTp88eTJsNhtevnyJ58+fo6amBqmpqfDx8cGOHTtQXl4OnU4Hs9nsMgXZ0NCA5ORk5Obmdpk6//z5M44fP478/HzYbDbMnTsXycnJWrji1atXWLduHRRFQWNjI+x2O/z9/ZGVlYWBAwcC6PhOh4aGorq6GuPHj0dKSgqGDx+O2NhYVFZWom/fvkhISIDFYkFcXBwaGxuxdOlSbN68GadOncLp06dhtVoxatQoXL58GYmJidi7dy9sNht8fX3R1tYGvV6Pw4cPIy4uDjdv3kRYWBgyMzO/Ot0pxO9KCjHhIjk5GRUVFbh+/fpPL4gKCgqg1+sRHh6OtLQ0zJkzBzNnzvyp5xT/m85C7HvJ018hPj4e+/btc0lwCiHEn0bWiAlNWloaCgsLUVFRgZiYmK/emf7/qbKyEklJSfD19cWoUaOkCPuNOZ1O3LhxA9XV1aiqqtJG336ld+/eYeHChSgpKcHZs2fh4+MjRZgQ4o8nI2JCiO9qbm52mdaaMGECFi1a9Ev78PHjR2zbtg1Xr17FmjVrEBsb+837vQkhxJ9CCjEhhBBCiG4iU5NCCCGEEN1ECjEhhBBCiG4ihZgQQgghRDeRQkwIIYQQoptIISaEEEII0U2kEBNCCCGE6CZSiAkhhBBCdBMpxIQQQgghuokUYkIIIYQQ3eRvr2SI5aJghFMAAAAASUVORK5CYII=;" parent="1" vertex="1">
                    <mxGeometry x="30" y="10" width="511" height="303.25" as="geometry"/>
                </mxCell>
                <mxCell id="55" style="edgeStyle=orthogonalEdgeStyle;rounded=0;orthogonalLoop=1;jettySize=auto;html=1;entryX=0;entryY=0.5;entryDx=0;entryDy=0;dashed=1;fillColor=#f5f5f5;strokeColor=#666666;startArrow=classic;startFill=1;" parent="1" source="10" target="23" edge="1">
                    <mxGeometry relative="1" as="geometry"/>
                </mxCell>
                <mxCell id="10" value="" style="rounded=1;whiteSpace=wrap;html=1;strokeColor=#b85450;strokeWidth=3;fillColor=none;" parent="1" vertex="1">
                    <mxGeometry x="230" y="9" width="61" height="20" as="geometry"/>
                </mxCell>
                <mxCell id="67" style="edgeStyle=orthogonalEdgeStyle;rounded=0;orthogonalLoop=1;jettySize=auto;html=1;entryX=0;entryY=0.5;entryDx=0;entryDy=0;dashed=1;startArrow=classic;startFill=1;fontSize=13;fontColor=#B85450;fillColor=#f5f5f5;strokeColor=#666666;" parent="1" source="14" target="26" edge="1">
                    <mxGeometry relative="1" as="geometry"/>
                </mxCell>
                <mxCell id="14" value="" style="rounded=1;whiteSpace=wrap;html=1;strokeColor=#b85450;strokeWidth=3;fillColor=none;" parent="1" vertex="1">
                    <mxGeometry x="210" y="77" width="101" height="20" as="geometry"/>
                </mxCell>
                <mxCell id="57" style="edgeStyle=orthogonalEdgeStyle;rounded=0;orthogonalLoop=1;jettySize=auto;html=1;entryX=0.5;entryY=0;entryDx=0;entryDy=0;dashed=1;fillColor=#f5f5f5;strokeColor=#666666;startArrow=classic;startFill=1;" parent="1" source="16" target="34" edge="1">
                    <mxGeometry relative="1" as="geometry">
                        <Array as="points">
                            <mxPoint x="650" y="153"/>
                            <mxPoint x="650" y="280"/>
                            <mxPoint x="759" y="280"/>
                        </Array>
                    </mxGeometry>
                </mxCell>
                <mxCell id="16" value="" style="rounded=1;whiteSpace=wrap;html=1;strokeColor=#b85450;strokeWidth=3;fillColor=none;" parent="1" vertex="1">
                    <mxGeometry x="226.5" y="143" width="70" height="20" as="geometry"/>
                </mxCell>
                <mxCell id="58" style="edgeStyle=orthogonalEdgeStyle;rounded=0;orthogonalLoop=1;jettySize=auto;html=1;dashed=1;fillColor=#f5f5f5;strokeColor=#666666;startArrow=classic;startFill=1;" parent="1" source="17" edge="1">
                    <mxGeometry relative="1" as="geometry">
                        <mxPoint x="920" y="300" as="targetPoint"/>
                        <Array as="points">
                            <mxPoint x="630" y="194"/>
                            <mxPoint x="630" y="470"/>
                            <mxPoint x="940" y="470"/>
                            <mxPoint x="940" y="300"/>
                        </Array>
                    </mxGeometry>
                </mxCell>
                <mxCell id="17" value="" style="rounded=1;whiteSpace=wrap;html=1;strokeColor=#6c8ebf;strokeWidth=3;fillColor=none;" parent="1" vertex="1">
                    <mxGeometry x="328" y="181" width="202" height="25" as="geometry"/>
                </mxCell>
                <mxCell id="59" style="edgeStyle=orthogonalEdgeStyle;rounded=0;orthogonalLoop=1;jettySize=auto;html=1;entryX=1;entryY=0.25;entryDx=0;entryDy=0;dashed=1;fillColor=#f5f5f5;strokeColor=#666666;startArrow=classic;startFill=1;" parent="1" source="18" target="36" edge="1">
                    <mxGeometry relative="1" as="geometry">
                        <Array as="points">
                            <mxPoint x="90" y="230"/>
                            <mxPoint x="90" y="480"/>
                            <mxPoint x="830" y="480"/>
                            <mxPoint x="830" y="375"/>
                        </Array>
                    </mxGeometry>
                </mxCell>
                <mxCell id="18" value="" style="rounded=1;whiteSpace=wrap;html=1;strokeColor=#b85450;strokeWidth=3;fillColor=none;" parent="1" vertex="1">
                    <mxGeometry x="101" y="222.25" width="22.13" height="14.75" as="geometry"/>
                </mxCell>
                <mxCell id="22" style="edgeStyle=orthogonalEdgeStyle;rounded=0;orthogonalLoop=1;jettySize=auto;html=1;exitX=1;exitY=0.5;exitDx=0;exitDy=0;entryX=0.75;entryY=0;entryDx=0;entryDy=0;strokeColor=#B85450;" parent="1" source="23" target="26" edge="1">
                    <mxGeometry relative="1" as="geometry">
                        <Array as="points">
                            <mxPoint x="729" y="20"/>
                        </Array>
                    </mxGeometry>
                </mxCell>
                <mxCell id="65" value="&lt;font style=&quot;font-size: 13px;&quot;&gt;mengandung&lt;/font&gt;" style="edgeLabel;html=1;align=center;verticalAlign=middle;resizable=0;points=[];fontSize=13;fontColor=#B85450;" parent="22" vertex="1" connectable="0">
                    <mxGeometry x="-0.1429" y="2" relative="1" as="geometry">
                        <mxPoint x="-2" y="10" as="offset"/>
                    </mxGeometry>
                </mxCell>
                <mxCell id="23" value="BAB III" style="rounded=1;whiteSpace=wrap;html=1;strokeColor=#b85450;strokeWidth=3;fillColor=none;" parent="1" vertex="1">
                    <mxGeometry x="589" y="10" width="120" height="20" as="geometry"/>
                </mxCell>
                <mxCell id="24" style="edgeStyle=orthogonalEdgeStyle;rounded=0;orthogonalLoop=1;jettySize=auto;html=1;exitX=0.25;exitY=1;exitDx=0;exitDy=0;entryX=0;entryY=0.5;entryDx=0;entryDy=0;strokeColor=#B85450;" parent="1" source="26" target="34" edge="1">
                    <mxGeometry relative="1" as="geometry"/>
                </mxCell>
                <mxCell id="25" style="edgeStyle=orthogonalEdgeStyle;rounded=0;orthogonalLoop=1;jettySize=auto;html=1;exitX=0.25;exitY=1;exitDx=0;exitDy=0;entryX=0;entryY=0.5;entryDx=0;entryDy=0;strokeColor=#B85450;" parent="1" source="26" target="42" edge="1">
                    <mxGeometry relative="1" as="geometry"/>
                </mxCell>
                <mxCell id="26" value="Bagian Kesatu" style="rounded=1;whiteSpace=wrap;html=1;strokeColor=#b85450;strokeWidth=3;fillColor=none;" parent="1" vertex="1">
                    <mxGeometry x="639" y="70" width="120" height="20" as="geometry"/>
                </mxCell>
                <mxCell id="28" style="edgeStyle=orthogonalEdgeStyle;rounded=0;orthogonalLoop=1;jettySize=auto;html=1;exitX=0.25;exitY=1;exitDx=0;exitDy=0;entryX=0;entryY=0.5;entryDx=0;entryDy=0;strokeColor=#B85450;" parent="1" source="34" target="36" edge="1">
                    <mxGeometry relative="1" as="geometry"/>
                </mxCell>
                <mxCell id="29" style="edgeStyle=orthogonalEdgeStyle;rounded=0;orthogonalLoop=1;jettySize=auto;html=1;exitX=0.25;exitY=1;exitDx=0;exitDy=0;entryX=0;entryY=0.5;entryDx=0;entryDy=0;strokeColor=#B85450;" parent="1" source="34" target="38" edge="1">
                    <mxGeometry relative="1" as="geometry"/>
                </mxCell>
                <mxCell id="30" style="edgeStyle=orthogonalEdgeStyle;rounded=0;orthogonalLoop=1;jettySize=auto;html=1;exitX=0.25;exitY=1;exitDx=0;exitDy=0;entryX=0;entryY=0.5;entryDx=0;entryDy=0;strokeColor=#B85450;" parent="1" source="34" target="39" edge="1">
                    <mxGeometry relative="1" as="geometry"/>
                </mxCell>
                <mxCell id="31" style="edgeStyle=orthogonalEdgeStyle;rounded=0;orthogonalLoop=1;jettySize=auto;html=1;exitX=0.25;exitY=1;exitDx=0;exitDy=0;entryX=0;entryY=0.25;entryDx=0;entryDy=0;strokeColor=#B85450;" parent="1" source="34" target="40" edge="1">
                    <mxGeometry relative="1" as="geometry"/>
                </mxCell>
                <mxCell id="32" style="edgeStyle=orthogonalEdgeStyle;rounded=0;orthogonalLoop=1;jettySize=auto;html=1;entryX=1;entryY=0.5;entryDx=0;entryDy=0;fillColor=#dae8fc;strokeColor=#6c8ebf;strokeWidth=3;" parent="1" source="34" target="46" edge="1">
                    <mxGeometry relative="1" as="geometry">
                        <Array as="points">
                            <mxPoint x="924" y="320"/>
                            <mxPoint x="924" y="260"/>
                        </Array>
                    </mxGeometry>
                </mxCell>
                <mxCell id="33" value="&lt;font color=&quot;#6c8ebf&quot; style=&quot;font-size: 12px;&quot;&gt;menyebut&lt;/font&gt;" style="edgeLabel;html=1;align=center;verticalAlign=middle;resizable=0;points=[];fontSize=12;fontStyle=0" parent="32" vertex="1" connectable="0">
                    <mxGeometry x="-0.1568" y="2" relative="1" as="geometry">
                        <mxPoint x="-8" y="2" as="offset"/>
                    </mxGeometry>
                </mxCell>
                <mxCell id="34" value="Pasal 6" style="rounded=1;whiteSpace=wrap;html=1;strokeColor=#b85450;strokeWidth=3;fillColor=none;" parent="1" vertex="1">
                    <mxGeometry x="699" y="310" width="120" height="20" as="geometry"/>
                </mxCell>
                <mxCell id="35" value="mengandung" style="text;html=1;align=center;verticalAlign=middle;resizable=0;points=[];autosize=1;fillColor=#ffffff;fontColor=#B85450;fontSize=13;" parent="1" vertex="1">
                    <mxGeometry x="639" y="100" width="90" height="20" as="geometry"/>
                </mxCell>
                <mxCell id="36" value="huruf a" style="rounded=1;whiteSpace=wrap;html=1;strokeColor=#b85450;strokeWidth=3;fillColor=none;" parent="1" vertex="1">
                    <mxGeometry x="749" y="370" width="50" height="20" as="geometry"/>
                </mxCell>
                <mxCell id="37" value="mengandung" style="text;html=1;align=center;verticalAlign=middle;resizable=0;points=[];autosize=1;fillColor=#ffffff;fontColor=#B85450;fontSize=13;" parent="1" vertex="1">
                    <mxGeometry x="699" y="340" width="90" height="20" as="geometry"/>
                </mxCell>
                <mxCell id="38" value="huruf b" style="rounded=1;whiteSpace=wrap;html=1;strokeColor=#b85450;strokeWidth=3;fillColor=none;" parent="1" vertex="1">
                    <mxGeometry x="749" y="390" width="50" height="20" as="geometry"/>
                </mxCell>
                <mxCell id="39" value="huruf c" style="rounded=1;whiteSpace=wrap;html=1;strokeColor=#b85450;strokeWidth=3;fillColor=none;" parent="1" vertex="1">
                    <mxGeometry x="749" y="410" width="50" height="20" as="geometry"/>
                </mxCell>
                <mxCell id="40" value="huruf d" style="rounded=1;whiteSpace=wrap;html=1;strokeColor=#b85450;strokeWidth=3;fillColor=none;" parent="1" vertex="1">
                    <mxGeometry x="749" y="430" width="50" height="20" as="geometry"/>
                </mxCell>
                <mxCell id="41" style="edgeStyle=orthogonalEdgeStyle;rounded=0;orthogonalLoop=1;jettySize=auto;html=1;exitX=0.25;exitY=1;exitDx=0;exitDy=0;entryX=0;entryY=0.5;entryDx=0;entryDy=0;" parent="1" source="42" target="44" edge="1">
                    <mxGeometry relative="1" as="geometry"/>
                </mxCell>
                <mxCell id="42" value="Pasal 5" style="rounded=1;whiteSpace=wrap;html=1;strokeWidth=3;" parent="1" vertex="1">
                    <mxGeometry x="699" y="130" width="120" height="20" as="geometry"/>
                </mxCell>
                <mxCell id="43" style="edgeStyle=orthogonalEdgeStyle;rounded=0;orthogonalLoop=1;jettySize=auto;html=1;exitX=0.25;exitY=1;exitDx=0;exitDy=0;entryX=0;entryY=0.5;entryDx=0;entryDy=0;" parent="1" source="44" target="46" edge="1">
                    <mxGeometry relative="1" as="geometry"/>
                </mxCell>
                <mxCell id="44" value="ayat (1)" style="rounded=1;whiteSpace=wrap;html=1;strokeWidth=3;" parent="1" vertex="1">
                    <mxGeometry x="749" y="195" width="105" height="20" as="geometry"/>
                </mxCell>
                <mxCell id="45" value="mengandung" style="text;html=1;align=center;verticalAlign=middle;resizable=0;points=[];autosize=1;fillColor=#ffffff;" parent="1" vertex="1">
                    <mxGeometry x="699" y="161" width="90" height="20" as="geometry"/>
                </mxCell>
                <mxCell id="46" value="huruf a" style="rounded=1;whiteSpace=wrap;html=1;strokeWidth=3;" parent="1" vertex="1">
                    <mxGeometry x="799" y="250" width="105" height="20" as="geometry"/>
                </mxCell>
                <mxCell id="47" value="mengandung" style="text;html=1;align=center;verticalAlign=middle;resizable=0;points=[];autosize=1;fillColor=#ffffff;" parent="1" vertex="1">
                    <mxGeometry x="749" y="225" width="90" height="20" as="geometry"/>
                </mxCell>
                <mxCell id="48" value="" style="endArrow=none;html=1;strokeColor=#B85450;strokeWidth=10;fontSize=12;fontColor=#000000;" parent="1" edge="1">
                    <mxGeometry width="50" height="50" relative="1" as="geometry">
                        <mxPoint x="30" y="-89.69000000000005" as="sourcePoint"/>
                        <mxPoint x="79.5" y="-89.69000000000005" as="targetPoint"/>
                    </mxGeometry>
                </mxCell>
                <mxCell id="49" value="Informasi dari data terstruktur" style="text;html=1;align=left;verticalAlign=middle;resizable=0;points=[];autosize=1;fontSize=13;fontColor=#B85450;" parent="1" vertex="1">
                    <mxGeometry x="90" y="-100" width="190" height="20" as="geometry"/>
                </mxCell>
                <mxCell id="50" value="" style="endArrow=none;html=1;strokeWidth=10;fontSize=12;fontColor=#000000;strokeColor=#6C8EBF;" parent="1" edge="1">
                    <mxGeometry width="50" height="50" relative="1" as="geometry">
                        <mxPoint x="30" y="-59.69000000000028" as="sourcePoint"/>
                        <mxPoint x="79.5" y="-59.69000000000028" as="targetPoint"/>
                    </mxGeometry>
                </mxCell>
                <mxCell id="51" value="Informasi dari data tak terstruktur" style="text;html=1;align=left;verticalAlign=middle;resizable=0;points=[];autosize=1;fontSize=13;fontColor=#6C8EBF;" parent="1" vertex="1">
                    <mxGeometry x="90" y="-70" width="210" height="20" as="geometry"/>
                </mxCell>
                <mxCell id="60" style="edgeStyle=orthogonalEdgeStyle;rounded=0;orthogonalLoop=1;jettySize=auto;html=1;entryX=1;entryY=0.5;entryDx=0;entryDy=0;dashed=1;fillColor=#f5f5f5;strokeColor=#666666;startArrow=classic;startFill=1;exitX=0;exitY=0.5;exitDx=0;exitDy=0;" parent="1" source="76" target="38" edge="1">
                    <mxGeometry relative="1" as="geometry">
                        <Array as="points">
                            <mxPoint x="80" y="252"/>
                            <mxPoint x="80" y="490"/>
                            <mxPoint x="840" y="490"/>
                            <mxPoint x="840" y="400"/>
                        </Array>
                        <mxPoint x="108.83333333333326" y="259.9999999999998" as="sourcePoint"/>
                    </mxGeometry>
                </mxCell>
                <mxCell id="61" style="edgeStyle=orthogonalEdgeStyle;rounded=0;orthogonalLoop=1;jettySize=auto;html=1;entryX=1;entryY=0.5;entryDx=0;entryDy=0;dashed=1;fillColor=#f5f5f5;strokeColor=#666666;startArrow=classic;startFill=1;exitX=0;exitY=0.5;exitDx=0;exitDy=0;" parent="1" source="77" target="39" edge="1">
                    <mxGeometry relative="1" as="geometry">
                        <Array as="points">
                            <mxPoint x="70" y="276"/>
                            <mxPoint x="70" y="500"/>
                            <mxPoint x="850" y="500"/>
                            <mxPoint x="850" y="420"/>
                        </Array>
                        <mxPoint x="109.00000000000023" y="287.25" as="sourcePoint"/>
                    </mxGeometry>
                </mxCell>
                <mxCell id="62" style="edgeStyle=orthogonalEdgeStyle;rounded=0;orthogonalLoop=1;jettySize=auto;html=1;dashed=1;fillColor=#f5f5f5;strokeColor=#666666;startArrow=classic;startFill=1;exitX=0;exitY=0.5;exitDx=0;exitDy=0;entryX=1;entryY=0.75;entryDx=0;entryDy=0;" parent="1" source="78" target="40" edge="1">
                    <mxGeometry relative="1" as="geometry">
                        <Array as="points">
                            <mxPoint x="60" y="298"/>
                            <mxPoint x="60" y="510"/>
                            <mxPoint x="860" y="510"/>
                            <mxPoint x="860" y="445"/>
                        </Array>
                        <mxPoint x="109.00000000000023" y="313.25" as="sourcePoint"/>
                        <mxPoint x="799" y="435" as="targetPoint"/>
                    </mxGeometry>
                </mxCell>
                <mxCell id="71" value="&lt;font style=&quot;font-size: 17px&quot;&gt;&lt;b&gt;PDF&lt;/b&gt;&lt;/font&gt;" style="text;html=1;align=center;verticalAlign=middle;whiteSpace=wrap;rounded=0;" parent="1" vertex="1">
                    <mxGeometry x="10" y="-30" width="40" height="20" as="geometry"/>
                </mxCell>
                <mxCell id="73" value="&lt;font style=&quot;font-size: 17px&quot;&gt;&lt;b&gt;DATA TEREKSTRAK&lt;/b&gt;&lt;/font&gt;" style="text;html=1;align=center;verticalAlign=middle;whiteSpace=wrap;rounded=0;" parent="1" vertex="1">
                    <mxGeometry x="560" y="-30" width="190" height="20" as="geometry"/>
                </mxCell>
                <mxCell id="76" value="" style="rounded=1;whiteSpace=wrap;html=1;strokeColor=#b85450;strokeWidth=3;fillColor=none;" parent="1" vertex="1">
                    <mxGeometry x="102" y="244.25" width="22.13" height="14.75" as="geometry"/>
                </mxCell>
                <mxCell id="77" value="" style="rounded=1;whiteSpace=wrap;html=1;strokeColor=#b85450;strokeWidth=3;fillColor=none;" parent="1" vertex="1">
                    <mxGeometry x="101" y="268.25" width="22.13" height="14.75" as="geometry"/>
                </mxCell>
                <mxCell id="78" value="" style="rounded=1;whiteSpace=wrap;html=1;strokeColor=#b85450;strokeWidth=3;fillColor=none;" parent="1" vertex="1">
                    <mxGeometry x="100" y="290.25" width="22.13" height="14.75" as="geometry"/>
                </mxCell>
            </root>
        </mxGraphModel>
    </diagram>
</mxfile>